<svg width="1191" height="1148" fill="none" xmlns="http://www.w3.org/2000/svg"><path opacity=".1" d="M104.725-359L1214.58 282.036l-.16 865.484L104.563 506.479 104.725-359z" fill="url(#paint0_linear_37_871)"/><path opacity=".2" d="M104.725-359L1213.13 281.229v117.388L104.725-241.611V-359z" fill="url(#paint1_linear_37_871)"/><path d="M0 33.05l286.903 165.668v79.604L0 112.654V33.049zm791.002 443.881l286.908 165.668v79.605L791.002 556.535v-79.604z" fill="#634ECA"/><path opacity=".15" d="M602.853 584.147l559.927 323.424V1148L602.853 824.575V584.147z" fill="url(#paint2_linear_37_871)"/><path opacity=".07" d="M657.07 557.02L1217 880.444v240.426L657.07 797.449V557.02z" fill="url(#paint3_linear_37_871)"/><path opacity=".15" d="M644.323 656.97l84.393 48.764v79.604l-84.393-48.764V656.97zm103.917 62.811l84.393 48.764v79.605l-84.393-48.764v-79.605zm103.918 58.937l84.393 48.764v79.605l-84.393-48.926v-79.443zm103.918 62.812l84.394 48.764v79.605l-84.394-48.764V841.53z" fill="#fff"/><path opacity=".15" d="M179.598-33.638l636.738 367.829v27.127L179.598-6.349v-27.289zm0 54.738l549.441 317.29v27.127L179.598 48.228V21.1zm0 54.093l467.468 269.978v27.127L179.598 102.32V75.193z" fill="#C86FAD"/><path opacity=".15" d="M26.303 225.845l466.177 269.17v240.429L26.303 466.274V225.845z" fill="url(#paint4_linear_37_871)"/><path opacity=".07" d="M80.52 198.718l466.178 269.17v240.429L80.52 439.146V198.718z" fill="url(#paint5_linear_37_871)"/><path opacity=".15" d="M58.09 302.058l370.33 213.948v27.127L58.091 329.347v-27.289zm0 54.739l296.586 171.32v27.127L58.091 383.924v-27.127z" fill="#fff"/><path opacity=".3" d="M195.25 693.785c0 31.971-7.1 52.477-21.3 61.358-14.2 8.881-33.241 6.459-57.123-7.427-23.882-13.725-42.922-33.263-57.122-58.614-14.2-25.189-21.3-53.931-21.3-85.902 0-31.971 7.1-52.478 21.3-61.359 14.2-8.88 33.24-6.458 57.122 7.428 23.882 13.886 42.923 33.263 57.123 58.614 14.2 25.189 21.3 53.769 21.3 85.902zm-50.023-28.903c0-17.439-2.582-31.487-7.907-42.467s-12.102-18.731-20.331-23.575c-8.553-5.005-15.491-5.005-20.816-.323-5.002 5.006-7.584 16.147-7.584 33.425 0 17.438 2.582 31.648 7.584 42.628 5.325 10.98 12.263 18.892 20.816 23.736 8.229 4.844 15.006 4.844 20.331 0 5.164-4.844 7.907-16.147 7.907-33.424zm136.352-12.272l61.479 35.523-173.142 254.316-61.48-35.524L281.579 652.61zm132.317 339.733c0 31.967-7.099 52.477-21.299 61.357-14.2 8.88-33.241 6.46-57.123-7.43-23.882-13.72-42.923-33.26-57.122-58.61-14.2-25.189-21.3-53.931-21.3-85.902 0-31.971 7.1-52.478 21.3-61.358 14.199-8.881 33.24-6.459 57.122 7.427 23.882 13.725 42.923 33.263 57.123 58.614 14.2 25.189 21.299 53.931 21.299 85.902zm-50.022-28.903c0-17.439-2.582-31.487-7.907-42.467s-12.102-18.73-20.332-23.575c-8.552-5.005-15.49-5.005-20.815-.323-5.003 5.006-7.584 16.147-7.584 33.425 0 17.439 2.581 31.648 7.584 42.628 5.325 10.98 12.263 18.892 20.815 23.736 8.23 4.846 15.007 4.846 20.332 0 5.164-4.683 7.907-15.986 7.907-33.424z" fill="url(#paint6_linear_37_871)"/><defs><linearGradient id="paint0_linear_37_871" x1="875.86" y1="178.372" x2="461.679" y2="591.462" gradientUnits="userSpaceOnUse"><stop stop-color="#CA4E5D"/><stop offset="1" stop-color="#fff" stop-opacity="0"/></linearGradient><linearGradient id="paint1_linear_37_871" x1="379.732" y1="-453.42" x2="801.016" y2="259.723" gradientUnits="userSpaceOnUse"><stop stop-color="#CA4E5D"/><stop offset="1" stop-color="#fff" stop-opacity="0"/></linearGradient><linearGradient id="paint2_linear_37_871" x1="934.812" y1="775.949" x2="838.89" y2="942.024" gradientUnits="userSpaceOnUse"><stop stop-color="#CA4E5D"/><stop offset="1" stop-color="#fff" stop-opacity="0"/></linearGradient><linearGradient id="paint3_linear_37_871" x1="989.077" y1="748.8" x2="893.155" y2="914.873" gradientUnits="userSpaceOnUse"><stop stop-color="#CA4E5D"/><stop offset="1" stop-color="#fff" stop-opacity="0"/></linearGradient><linearGradient id="paint4_linear_37_871" x1="311.365" y1="390.485" x2="215.443" y2="556.558" gradientUnits="userSpaceOnUse"><stop stop-color="#CA4E5D"/><stop offset="1" stop-color="#fff" stop-opacity="0"/></linearGradient><linearGradient id="paint5_linear_37_871" x1="365.627" y1="363.335" x2="269.705" y2="529.408" gradientUnits="userSpaceOnUse"><stop stop-color="#CA4E5D"/><stop offset="1" stop-color="#fff" stop-opacity="0"/></linearGradient><linearGradient id="paint6_linear_37_871" x1="313.772" y1="674.904" x2="83.653" y2="997.298" gradientUnits="userSpaceOnUse"><stop stop-color="#CA4E5D"/><stop offset="1" stop-color="#fff" stop-opacity="0"/></linearGradient></defs></svg>