<svg width="24" height="24" fill="none" xmlns="http://www.w3.org/2000/svg"><path d="M9.063 20.564a1.45 1.45 0 00.305-.225l2.017-1.895-2.3-1.583-.022 3.703zM5.62 14.13l1.995 4.567.02-3.193v-.023a.728.728 0 01.236-.539l5.298-4.86L5.62 14.13z" fill="#fff"/><path d="M23.918 1.992c-.043-.053-.124-.08-.242-.08-.128 0-.285.034-.453.097L.467 10.64c-.625.238-.623.62.005.85l4.154 1.52 12.968-6.955a.73.73 0 01.838 1.18l-8.9 8.164 9.336 6.427.023.016c.213.159.428.246.605.246.404 0 .55-.49.593-.7l3.875-18.745c.073-.35.024-.565-.046-.65z" fill="#fff"/></svg>