<svg width="100" height="100" fill="none" xmlns="http://www.w3.org/2000/svg"><g clip-path="url(#clip0_88_1090)"><path fill-rule="evenodd" clip-rule="evenodd" d="M68 78.297c9.048-.204 17.394-3.991 23.504-10.666 11.443-12.486 11.309-31.936-.295-44.28-5.976-6.354-14.067-10.02-22.788-10.332-7.246-.258-14.504 2.145-20.428 6.768L22.191 39.932a3.593 3.593 0 00-1.329 2.204l-1.415 7.994c-.576 3.249 3.179 5.49 5.786 3.455l30.579-23.87c.143-.112.29-.223.438-.33a19.28 19.28 0 016.276-3.088 17.564 17.564 0 015.444-.672 20.067 20.067 0 0113.987 6.346c7.12 7.573 7.205 19.503.187 27.16-3.759 4.103-8.882 6.43-14.433 6.56a20.406 20.406 0 01-6.79-.997 3.605 3.605 0 00-4.67 2.793l-.955 5.394c-.322 1.817.796 3.562 2.574 4.085a32.992 32.992 0 009.353 1.34c.26 0 .52 0 .778-.01zM7.085 84.544c.573-3.248-3.191-5.466-5.754-3.391-2.613 2.114-1.118 6.337 2.243 6.337a3.565 3.565 0 003.511-2.946zm10.873-16.358l6.793-5.407c2.585-2.058 6.381.142 5.803 3.362l-3.302 18.427c-.303 1.69-1.797 2.922-3.541 2.922h-5.827c-2.236 0-3.93-1.985-3.542-4.15l2.337-13.02a3.52 3.52 0 011.279-2.134zm28.52 16.318l6.526-37.66c.57-3.29-3.179-5.538-5.731-3.436l-6.713 5.529a3.624 3.624 0 00-1.262 2.18l-5.57 32.133c-.383 2.213 1.29 4.24 3.498 4.24h5.754c1.723 0 3.198-1.258 3.498-2.985z" fill="url(#paint0_linear_88_1090)"/></g><defs><linearGradient id="paint0_linear_88_1090" x1="0" y1="13" x2="104.893" y2="20.683" gradientUnits="userSpaceOnUse"><stop stop-color="#634ECA"/><stop offset=".568" stop-color="#A42FB7"/><stop offset="1" stop-color="#CA4E5D"/></linearGradient><clipPath id="clip0_88_1090"><path fill="#fff" d="M0 0h100v100H0z"/></clipPath></defs></svg>