<svg width="40" height="40" fill="none" xmlns="http://www.w3.org/2000/svg"><path d="M40 15.632H0V7.586a.69.69 0 01.69-.69h38.62a.69.69 0 01.69.69v8.046z" fill="#FF4B55"/><path d="M39.31 33.103H.69a.69.69 0 01-.69-.69v-8.045h40v8.046a.69.69 0 01-.69.69z" fill="#73AF00"/><path d="M0 15.632h40v8.735H0v-8.735z" fill="#FFE15A"/><path d="M20.29 16.712l.72 2.157 2.275.018a.307.307 0 01.18.553l-1.83 1.352.686 2.169a.307.307 0 01-.47.341L20 21.98l-1.85 1.322a.307.307 0 01-.471-.341l.686-2.17-1.83-1.35a.307.307 0 01.18-.554l2.274-.018.72-2.158a.307.307 0 01.582 0z" fill="#464655"/></svg>