<svg width="41" height="40" fill="none" xmlns="http://www.w3.org/2000/svg"><g clip-path="url(#clip0_1_659)"><path d="M.333 6.667h40v26.667h-40V6.667z" fill="#0052B4"/><path d="M8.138 6.666h26.667v26.667" fill="#FFDA44"/><path d="M3.19 7.863l1.16-.845 1.16.844-.388-1.196H3.578L3.19 7.863z" fill="#F0F0F0"/><path d="M7.234 8.096L6.79 6.731l-.443 1.365-1.435.001 1.162.844-.442 1.364 1.16-.845 1.16.844-.443-1.365 1.16-.844-1.435.001z" fill="#F0F0F0"/><path d="M9.676 10.538l-.444-1.365-.443 1.365-1.435.001 1.162.844-.442 1.364 1.16-.845 1.16.844-.443-1.365 1.16-.844-1.435.001z" fill="#F0F0F0"/><path d="M12.118 12.98l-.444-1.365-.443 1.365H9.796l1.162.844-.443 1.364 1.16-.844 1.161.844-.443-1.366 1.16-.843-1.435.001z" fill="#F0F0F0"/><path d="M14.56 15.422l-.444-1.365-.443 1.365h-1.435l1.162.844-.443 1.365 1.16-.845 1.161.844-.444-1.365 1.16-.844-1.434.001z" fill="#F0F0F0"/><path d="M17.002 17.864l-.444-1.365-.443 1.365-1.435.001 1.162.843-.443 1.365 1.16-.845 1.161.844-.444-1.366 1.16-.843-1.434.001z" fill="#F0F0F0"/><path d="M19.444 20.306L19 18.94l-.443 1.365h-1.435l1.162.844-.443 1.364 1.16-.844 1.161.843-.444-1.365 1.16-.843h-1.434z" fill="#F0F0F0"/><path d="M21.886 22.748l-.444-1.365-.443 1.365h-1.435l1.162.844-.443 1.364 1.16-.844 1.161.844-.444-1.366 1.16-.843h-1.434z" fill="#F0F0F0"/><path d="M24.328 25.19l-.444-1.365-.443 1.365h-1.435l1.161.844-.442 1.364 1.16-.844 1.161.843-.444-1.365 1.16-.843h-1.434z" fill="#F0F0F0"/><path d="M26.77 27.632l-.444-1.365-.443 1.365h-1.435l1.161.844-.442 1.364 1.16-.844 1.161.843-.444-1.365 1.16-.843H26.77z" fill="#F0F0F0"/><path d="M29.212 30.074l-.444-1.366-.443 1.366H26.89l1.161.844-.442 1.364 1.16-.844 1.161.843-.444-1.365 1.16-.843h-1.434z" fill="#F0F0F0"/><path d="M31.21 31.15l-.443 1.365-1.435.001 1.124.817h1.506l1.127-.819-1.435.001-.444-1.365z" fill="#F0F0F0"/></g><defs><clipPath id="clip0_1_659"><path fill="#fff" transform="translate(.333)" d="M0 0h40v40H0z"/></clipPath></defs></svg>