<svg width="41" height="40" fill="none" xmlns="http://www.w3.org/2000/svg"><g clip-path="url(#clip0_1_721)"><path d="M20.333 33.103H1.023a.69.69 0 01-.69-.69V7.587a.69.69 0 01.69-.69h19.31v26.207z" fill="#73AF00"/><path d="M20.333 6.896h19.31a.69.69 0 01.69.69v24.828a.69.69 0 01-.69.69h-19.31V6.895z" fill="#F5F5F5"/><path d="M23.662 17.493l-1.196 1.564-1.867-.625a.115.115 0 00-.13.174l1.118 1.62-1.171 1.583c-.066.088.019.21.124.178l1.887-.563 1.143 1.603c.064.09.205.046.208-.064l.048-1.968 1.878-.592a.115.115 0 00.003-.217l-1.857-.654.018-1.969a.115.115 0 00-.206-.07z" fill="#FF4B55"/><path d="M21.573 24.737a4.736 4.736 0 010-9.474c.973 0 1.87.3 2.617.806.114.077.245-.073.149-.173a5.87 5.87 0 00-4.45-1.81c-3.012.103-5.505 2.517-5.698 5.524a5.917 5.917 0 005.903 6.307 5.87 5.87 0 004.25-1.817c.094-.099-.037-.247-.15-.17a4.65 4.65 0 01-2.621.807z" fill="#FF4B55"/></g><defs><clipPath id="clip0_1_721"><path fill="#fff" transform="translate(.333)" d="M0 0h40v40H0z"/></clipPath></defs></svg>