<svg width="41" height="40" fill="none" xmlns="http://www.w3.org/2000/svg"><g clip-path="url(#clip0_1_651)"><path d="M37.671 6.896H3.662A2.996 2.996 0 00.667 9.892v20.216a2.996 2.996 0 002.995 2.995h34.009a2.996 2.996 0 002.996-2.995V9.892a2.996 2.996 0 00-2.996-2.996z" fill="#73AF00"/><path d="M20.308 10.563L5.773 19.411a.69.69 0 000 1.178l14.535 8.848a.69.69 0 00.717 0l14.536-8.848a.69.69 0 000-1.178l-14.536-8.848a.69.69 0 00-.717 0z" fill="#FFE15A"/><path d="M20.667 25.517a5.517 5.517 0 100-11.034 5.517 5.517 0 000 11.034z" fill="#41479B"/><path d="M15.932 17.177a5.489 5.489 0 00-.594 1.413c3.059-.23 7.583.625 10.463 3.42a5.476 5.476 0 00.359-1.526c-2.974-2.502-7.085-3.392-10.228-3.307zm4.963 4.706l.147.44.464.004c.06 0 .085.077.037.113l-.373.275.14.443a.063.063 0 01-.096.07l-.378-.27-.378.27a.063.063 0 01-.096-.07l.14-.443-.373-.275a.063.063 0 01.036-.113l.465-.004.146-.44c.02-.057.1-.057.12 0zm1.805 1.14l.063.189.2.001a.027.027 0 01.025.019.027.027 0 010 .016.027.027 0 01-.01.014l-.16.118.06.191a.027.027 0 01-.041.03l-.163-.116-.162.116a.026.026 0 01-.032 0 .027.027 0 01-.01-.03l.06-.19-.16-.12a.027.027 0 01.015-.048l.2-.001.064-.19a.027.027 0 01.05 0zm-2.585-1.977l.063.19.2.001a.03.03 0 01.016.005.028.028 0 01.01.014.027.027 0 01-.01.03l-.16.118.06.19a.027.027 0 01-.042.03l-.163-.115-.162.116a.027.027 0 01-.041-.013.027.027 0 010-.017l.06-.19-.161-.12a.027.027 0 01-.01-.03.028.028 0 01.01-.013.028.028 0 01.016-.005l.2-.002.063-.19c.008-.024.043-.024.051 0zm-3.5-.23l.063.19.2.001a.027.027 0 01.025.019.027.027 0 01-.01.03l-.16.118.06.191a.027.027 0 01-.01.03.027.027 0 01-.032 0l-.162-.116-.163.116a.027.027 0 01-.031 0 .027.027 0 01-.01-.03l.06-.19-.16-.12c-.022-.015-.01-.048.015-.048l.2-.001.063-.19c.009-.024.043-.024.051 0zm2.928 2.14l.063.19.2.002a.027.027 0 01.016.048l-.161.119.06.19a.026.026 0 01-.01.03.026.026 0 01-.015.006.027.027 0 01-.016-.005l-.163-.117-.162.117a.027.027 0 01-.032 0 .027.027 0 01-.01-.03l.06-.191-.16-.119a.027.027 0 01-.01-.03.027.027 0 01.025-.019h.2l.063-.19c.009-.025.044-.025.052 0zm-1.611-2.272l.051.155.164.001c.02 0 .03.027.013.04l-.132.097.05.156a.023.023 0 010 .013.022.022 0 01-.034.011l-.133-.095-.133.095a.022.022 0 01-.026 0 .022.022 0 01-.008-.01.021.021 0 010-.014l.05-.156-.132-.097a.022.022 0 01-.008-.011.022.022 0 01.02-.029l.164-.001.052-.155c.006-.02.035-.02.042 0zm4.908-3.2l.065.194.204.001c.027 0 .038.034.016.05l-.164.122.062.194a.027.027 0 01-.042.03l-.167-.118-.166.12a.027.027 0 01-.043-.032l.062-.195-.164-.12a.027.027 0 010-.044.028.028 0 01.016-.007l.204-.001.065-.194a.027.027 0 01.026-.02.027.027 0 01.026.02zm-6 2.251l.051.155.164.002c.02 0 .03.027.013.04l-.132.097.05.155a.022.022 0 01-.034.024l-.133-.094-.133.095a.022.022 0 01-.013.004.023.023 0 01-.013-.004.022.022 0 01-.008-.024l.05-.156-.132-.097a.022.022 0 010-.036.022.022 0 01.013-.004l.163-.002.052-.155a.022.022 0 01.02-.015.022.022 0 01.022.015zm.789 2.185l.078.235.247.002c.032 0 .046.041.02.06l-.2.147.075.236a.033.033 0 01-.05.037l-.202-.144-.202.144a.033.033 0 01-.05-.037l.074-.236-.2-.147a.033.033 0 01-.011-.016.034.034 0 010-.021.034.034 0 01.031-.023l.248-.002.078-.235c.01-.03.054-.03.064 0zm6.077 1.151l.05.148.155.001a.02.02 0 01.012.004.021.021 0 01.008.023.021.021 0 01-.008.011l-.125.093.047.148a.021.021 0 01-.032.023l-.127-.09-.127.09a.02.02 0 01-.032-.01.021.021 0 010-.013l.047-.148-.125-.093a.021.021 0 01-.008-.01.021.021 0 01.02-.028l.156-.001.05-.148a.021.021 0 01.04 0zm.545-1.127l.063.19.2.001a.03.03 0 01.016.005.026.026 0 01.01.014.027.027 0 01-.01.03l-.161.118.06.19a.027.027 0 01-.041.03l-.163-.115-.162.116a.027.027 0 01-.042-.03l.06-.19-.16-.12a.027.027 0 01-.01-.03.027.027 0 01.025-.019h.2l.064-.19a.027.027 0 01.05 0z" fill="#F5F5F5"/></g><defs><clipPath id="clip0_1_651"><path fill="#fff" transform="translate(.667)" d="M0 0h40v40H0z"/></clipPath></defs></svg>