<svg width="41" height="40" fill="none" xmlns="http://www.w3.org/2000/svg"><g clip-path="url(#clip0_1_915)"><path d="M39.977 33.103H1.357a.69.69 0 01-.69-.69V7.587a.69.69 0 01.69-.69h38.62a.69.69 0 01.69.69v24.828a.69.69 0 01-.69.69z" fill="#F5F5F5"/><path d="M40.667 17.93H22.736V6.897h-4.138v11.035H.667v4.138h17.93v11.034h4.139V22.07h17.93v-4.14z" fill="#FF4B55"/><path d="M12.39 11.471l-2.022.207c.07-.67.138-1.34.207-2.023a7.34 7.34 0 01-1.885 0c.068.683.137 1.353.206 2.023-.67-.07-1.34-.138-2.022-.207a7.34 7.34 0 010 1.885c.683-.068 1.352-.137 2.022-.206l-.206 2.022a7.333 7.333 0 011.885 0l-.207-2.022c.67.069 1.34.138 2.023.206a7.342 7.342 0 010-1.885zm22.07 0l-2.023.207c.07-.67.138-1.34.207-2.023a7.34 7.34 0 01-1.885 0c.068.683.137 1.353.206 2.023-.67-.07-1.34-.138-2.022-.207.08.626.08 1.26 0 1.885.683-.068 1.352-.137 2.022-.206l-.206 2.022a7.333 7.333 0 011.885 0l-.207-2.022c.67.069 1.34.138 2.023.206a7.35 7.35 0 010-1.885zM12.39 26.644c-.682.068-1.351.137-2.022.206.07-.67.138-1.34.207-2.022a7.342 7.342 0 01-1.885 0c.068.683.137 1.352.206 2.022-.67-.069-1.34-.138-2.022-.206a7.34 7.34 0 010 1.885l2.022-.207-.206 2.023a7.333 7.333 0 011.885 0l-.207-2.023c.67.07 1.34.138 2.023.207a7.342 7.342 0 010-1.885zm22.07 0c-.683.068-1.352.137-2.023.206.07-.67.138-1.34.207-2.022a7.342 7.342 0 01-1.885 0c.068.683.137 1.352.206 2.022-.67-.069-1.34-.138-2.022-.206.08.625.08 1.259 0 1.885l2.022-.207-.206 2.023a7.333 7.333 0 011.885 0l-.207-2.023c.67.07 1.34.138 2.023.207a7.35 7.35 0 010-1.885z" fill="#FF4B55"/></g><defs><clipPath id="clip0_1_915"><path fill="#fff" transform="translate(.667)" d="M0 0h40v40H0z"/></clipPath></defs></svg>