<svg width="41" height="40" fill="none" xmlns="http://www.w3.org/2000/svg"><g clip-path="url(#clip0_1_931)"><path d="M40.833 15.632h-40V7.586a.69.69 0 01.69-.69h38.62a.69.69 0 01.69.69v8.046zm-.69 17.471H1.524a.69.69 0 01-.69-.69v-8.045h40v8.046a.69.69 0 01-.69.69z" fill="#41479B"/><path d="M.833 15.632h40v8.735h-40v-8.735z" fill="#F5F5F5"/><path d="M20.817 22.934a3.019 3.019 0 01-2.308-4.96l.132.11a2.846 2.846 0 002.176 4.678v.172z" fill="#50AF69"/><path d="M19.713 22.044a.601.601 0 00-.064.242.753.753 0 00-.11-.067s-.059.21-.013.36c0 0-.157.02-.301.164 0 0 .05.035.135.072a.617.617 0 00-.188.222c.846.423 1.252-.167 1.27-.193a1.401 1.401 0 00-.729-.8zm.729.8l.001.004v-.007l-.002.003zm-1.51-1.364a.557.557 0 00-.143.18.685.685 0 00-.068-.096s-.127.155-.142.299c0 0-.14-.041-.315.028 0 0 .03.048.088.11a.556.556 0 00-.24.119c.559.666 1.117.317 1.141.3.042-.574-.321-.94-.321-.94zm.321.94v.005l.003-.006-.003.002zm-.806-1.678a.503.503 0 00-.184.096.624.624 0 00-.02-.104s-.162.08-.228.192c0 0-.1-.086-.268-.093 0 0 .006.05.03.123a.5.5 0 00-.24.009c.212.753.8.673.826.67.246-.457.084-.893.084-.893zm-.085.892l-.001.004.004-.004h-.003zm-.107-1.732a.527.527 0 00-.188.06.52.52 0 00.006-.092s-.163.05-.249.14c0 0-.07-.087-.22-.114 0 0-.006.044 0 .11-.128-.04-.219-.021-.219-.021.018.68.565.681.59.68.326-.365.28-.763.28-.763zm-.28.764l-.003.003.005-.003h-.003zm.344-1.46a.46.46 0 00-.173.003.442.442 0 00.028-.077s-.15 0-.244.053c0 0-.037-.09-.156-.152 0 0-.016.035-.029.092-.096-.067-.178-.074-.178-.074-.16.575.298.717.319.723a.923.923 0 00.433-.568zm-.433.568l-.003.002.005-.001h-.002zm.07-1.414s-.157.41.086.647c0 0 .316-.094.472-.422l-.133-.026-.068-.204-.226.1-.131-.095zm.44-.658s-.245.363-.063.65c0 0 .33-.02.556-.305l-.124-.055-.02-.214-.243.046-.106-.122zm2.454 5.232v-.172a2.846 2.846 0 002.176-4.677l.132-.111a3.02 3.02 0 01.709 1.943 3.02 3.02 0 01-3.017 3.017z" fill="#50AF69"/><path d="M21.953 22.044a.603.603 0 01.065.242.762.762 0 01.11-.067s.059.21.012.36c0 0 .157.02.302.164 0 0-.05.035-.135.072a.605.605 0 01.187.222c-.846.423-1.251-.167-1.269-.193.207-.592.728-.8.728-.8zm-.728.8l-.002.004v-.007l.002.003zm1.51-1.364c.055.04.103.108.143.18a.681.681 0 01.068-.096s.126.155.142.299c0 0 .14-.041.314.028 0 0-.029.048-.087.11.161.042.24.119.24.119-.56.666-1.117.317-1.142.3-.041-.574.322-.94.322-.94zm-.322.94v.005l-.002-.006.002.002zm.807-1.678a.51.51 0 01.184.096.631.631 0 01.02-.104s.161.08.227.192c0 0 .1-.086.27-.093 0 0-.007.05-.032.123a.5.5 0 01.24.009c-.211.753-.799.673-.825.67-.247-.457-.084-.893-.084-.893zm.084.892l.002.004-.004-.004h.002zm.108-1.732a.527.527 0 01.187.06.533.533 0 01-.006-.092s.164.05.25.14c0 0 .07-.087.22-.114a.55.55 0 000 .11c.127-.04.219-.021.219-.021-.018.68-.565.681-.59.68-.327-.365-.28-.763-.28-.763zm.28.764l.003.003-.005-.003h.002zm-.344-1.46a.46.46 0 01.173.003.441.441 0 01-.029-.077s.15 0 .245.053c0 0 .036-.09.156-.152 0 0 .016.035.028.092.097-.067.178-.074.178-.074.161.575-.297.717-.318.723-.37-.222-.433-.568-.433-.568zm.433.568l.003.002-.005-.001h.002zm-.07-1.414s.156.41-.086.647c0 0-.317-.094-.473-.422l.133-.026.069-.204.226.1.13-.095zm-.44-.658s.244.363.062.65c0 0-.329-.02-.556-.305l.124-.055.02-.214.244.046.106-.122z" fill="#50AF69"/><path d="M20.833 21.12l-.266.4a.172.172 0 00.021.218l.245.245.245-.245a.172.172 0 00.022-.218l-.267-.4z" fill="#41479B"/><path d="M20.947 21.52l-.114-.4-.113.4a.363.363 0 00.009.218l.104.245.105-.245a.362.362 0 00.009-.218z" fill="#F5F5F5"/><path d="M20.833 17.543v-1.077s-.41.589-.345 1.45m-1.491-.37a2.685 2.685 0 00.143 2.543c.003.006.845-1.357.845-1.357l-.988-1.185z" fill="#41479B"/><path d="M19.62 19.322a1.723 1.723 0 01.006-1.021l-.367-.44c-.3.812-.176 1.411.125 1.841l.237-.38z" fill="#F5F5F5"/><path d="M19.971 18.804a.086.086 0 01-.068-.034l-1.08-1.39a.085.085 0 01-.018-.063.087.087 0 01.062-.073.086.086 0 01.091.03l1.081 1.39a.086.086 0 01-.022.127.086.086 0 01-.046.013z" fill="#FFE15A"/><path d="M18.247 18.883c-.345 3.448 2.414 2.586 2.586 2.241l-1.724-.862.345-.69-1.207-.69z" fill="#41479B"/><path d="M19.08 19.28l-.48-.289c-.108 2.05.986 2.39 1.793 2.289-.654-.088-1.308-.571-1.312-2z" fill="#F5F5F5"/><path d="M19.454 19.658a.086.086 0 01-.046-.013l-1.379-.862a.087.087 0 01-.04-.087.087.087 0 01.1-.07.085.085 0 01.032.011l1.379.862a.086.086 0 01-.046.16z" fill="#FFE15A"/><path d="M22.67 17.544a2.685 2.685 0 01-.143 2.542c-.003.005-.846-1.357-.846-1.357l.989-1.185z" fill="#41479B"/><path d="M22.046 19.318c.093-.291.107-.63-.005-1.02l.366-.44c.302.811.177 1.41-.125 1.84l-.236-.38z" fill="#F5F5F5"/><path d="M21.695 18.8a.086.086 0 01-.068-.139l1.081-1.39a.086.086 0 01.136.106l-1.08 1.39a.086.086 0 01-.068.033z" fill="#FFE15A"/><path d="M23.42 18.88c.344 3.448-2.414 2.586-2.587 2.24l1.725-.861-.345-.69 1.206-.69z" fill="#41479B"/><path d="M22.586 19.276l.48-.288c.109 2.049-.986 2.39-1.793 2.288.655-.087 1.308-.57 1.313-2z" fill="#F5F5F5"/><path d="M22.213 19.655a.086.086 0 01-.046-.16l1.38-.861a.085.085 0 01.118.027.086.086 0 01-.027.119l-1.38.862a.085.085 0 01-.045.013z" fill="#FFE15A"/><path d="M20.833 19.741a.69.69 0 100-1.38.69.69 0 000 1.38z" fill="#FFE6E6"/><path d="M20.833 19.396a.345.345 0 100-.69.345.345 0 000 .69z" fill="#F5F5F5"/><path d="M20.833 20.172a.086.086 0 01-.086-.086v-1.034a.086.086 0 01.086-.086.086.086 0 01.087.086v1.034a.086.086 0 01-.087.086z" fill="#FFE15A"/><path d="M23.19 21.106h-4.62l.54-1.025h3.462l.618 1.025z" fill="#5AA0E6"/><path d="M20.974 20.273h1.201l-.374-.374a.16.16 0 00-.062-.038l-.13-.044a.16.16 0 00-.14.019l-.415.277-.08.16z" fill="#FFB750"/><path d="M20.565 20.338H22l-.446-.446a.19.19 0 00-.075-.046l-.155-.052a.192.192 0 00-.166.022l-.496.33-.096.192z" fill="#FFC455"/><path d="M20.066 20.41h1.732l-.539-.54a.231.231 0 00-.09-.055l-.187-.062a.23.23 0 00-.201.026l-.599.4-.116.23z" fill="#FFCD55"/><path d="M19.573 20.474h1.982l-.616-.616a.265.265 0 00-.104-.064l-.215-.072a.265.265 0 00-.23.03l-.685.458-.132.264z" fill="#FFD25A"/><path d="M18.764 20.604h2.587l-.805-.805a.344.344 0 00-.135-.083l-.28-.094a.344.344 0 00-.3.04l-.894.597-.173.345z" fill="#FFE15A"/><path d="M21.02 19.206h-.373l.086-.36h.13a.09.09 0 01.087.07l.07.29z" fill="#FF4B55"/><path d="M20.998 19.264h-.335a.05.05 0 01-.05-.05v-.016a.05.05 0 01.05-.05h.335a.05.05 0 01.05.05v.017a.05.05 0 01-.05.05zm-.221-.254l-.084-.02a.037.037 0 01-.027-.042c0-.006.003-.011.006-.016l.06-.086.045.164z" fill="#FF4B55"/><path d="M20.403 18.166l-.012.095a.845.845 0 01.442-.13c.16 0 .309.049.443.13l-.013-.095a.92.92 0 00-.43-.11.92.92 0 00-.43.11z" fill="#41479B"/><path d="M20.409 18.125l-.013.095a.83.83 0 01.437-.13.82.82 0 01.437.13l-.012-.095a.898.898 0 00-.425-.11.898.898 0 00-.424.11z" fill="#5AA0E6"/><path d="M20.413 18.087l-.012.095a.809.809 0 01.432-.131c.157 0 .301.049.432.13l-.012-.094a.88.88 0 00-.42-.11.88.88 0 00-.42.11z" fill="#9BC800"/><path d="M20.42 18.043l-.013.095a.792.792 0 01.427-.132c.154 0 .296.05.426.132l-.012-.095a.857.857 0 00-.415-.11.859.859 0 00-.414.11z" fill="#FFE14E"/><path d="M20.425 18l-.012.095a.773.773 0 01.42-.132c.153 0 .293.05.421.132L21.242 18a.836.836 0 00-.409-.111.836.836 0 00-.408.111z" fill="#FFB14E"/><path d="M20.427 17.982l-.008.066a.754.754 0 01.414-.132c.15 0 .289.05.415.132l-.008-.066a.827.827 0 00-.406-.112.825.825 0 00-.407.112z" fill="#FF4B55"/><path d="M23.247 21.207H18.42a.086.086 0 01-.086-.09c0-.016.005-.031.014-.044l2.414-3.62c.032-.049.111-.049.143 0l2.414 3.62a.086.086 0 01-.072.134zm-4.666-.172h4.505l-2.253-3.38-2.252 3.38zm2.252-4.31a.086.086 0 01-.086-.087v-.345a.086.086 0 11.172 0v.345a.086.086 0 01-.086.086z" fill="#FFE15A"/><path d="M21.006 16.724h-.345a.087.087 0 01-.086-.086.086.086 0 01.086-.086h.345a.086.086 0 110 .172z" fill="#FFE15A"/><path d="M20.833 22.931a.09.09 0 01-.018-.002c-.085-.019-.366-.086-.45-.169a.27.27 0 01.19-.46c.072 0 .14.027.19.078.083.083.153.363.172.448a.086.086 0 01-.084.105zm-.278-.459c-.023.008-.05.01-.069.029a.097.097 0 00.001.137c.02.02.114.056.226.087a.819.819 0 00-.09-.225l.061-.06-.06.06a.097.097 0 00-.069-.028z" fill="#41479B"/><path d="M20.833 22.931a.085.085 0 01-.067-.033.086.086 0 01-.017-.073c.02-.084.09-.365.172-.447a.276.276 0 01.294-.058.269.269 0 01.086.44c-.083.082-.365.15-.45.169a.083.083 0 01-.018.002zm.15-.492l.06.061a.822.822 0 00-.09.225.812.812 0 00.227-.087.097.097 0 00-.068-.166.1.1 0 00-.069.028l-.06-.061z" fill="#41479B"/><path d="M20.488 23.448a.086.086 0 01-.086-.086c0-.393.377-.586.393-.594a.086.086 0 01.077.154c-.003.001-.297.154-.297.44a.087.087 0 01-.025.061.089.089 0 01-.062.025z" fill="#41479B"/><path d="M21.178 23.448a.086.086 0 01-.086-.086c0-.286-.294-.439-.297-.44a.087.087 0 01.012-.159.086.086 0 01.065.005c.016.008.393.2.393.594a.087.087 0 01-.087.086z" fill="#41479B"/></g><defs><clipPath id="clip0_1_931"><path fill="#fff" transform="translate(.833)" d="M0 0h40v40H0z"/></clipPath></defs></svg>