<svg width="41" height="40" fill="none" xmlns="http://www.w3.org/2000/svg"><g clip-path="url(#clip0_1_922)"><path d="M.167 9.809h40v2.911h-40V9.81zm0 5.823h40v2.912h-40v-2.912zm0 5.824h40v2.912h-40v-2.912z" fill="#F5F5F5"/><path d="M.167 24.368h40v2.912h-40v-2.912z" fill="#41479B"/><path d="M.167 27.28h40v2.911h-40V27.28z" fill="#F5F5F5"/><path d="M.856 33.103h38.621a.69.69 0 00.69-.69v-2.222h-40v2.223a.69.69 0 00.69.69zm39.31-23.295V7.586a.69.69 0 00-.69-.69H.857a.69.69 0 00-.69.69v13.87h40v-2.912H13.96v-2.912h26.207V12.72H13.96V9.808h26.207z" fill="#41479B"/><path d="M13.96 12.72H8.52V6.896H5.606v5.824H.167v2.912h5.44v5.824H8.52v-5.824h5.44V12.72z" fill="#F5F5F5"/></g><defs><clipPath id="clip0_1_922"><path fill="#fff" transform="translate(.167)" d="M0 0h40v40H0z"/></clipPath></defs></svg>