<svg width="41" height="40" fill="none" xmlns="http://www.w3.org/2000/svg"><g clip-path="url(#clip0_1_624)"><path d="M.833 6.667h40v26.667h-40V6.666z" fill="#FCFCFC"/><path d="M28.333 18.272h-1.73a5.77 5.77 0 01-11.539 0h-1.73a7.503 7.503 0 005.451 7.217 1.92 1.92 0 00.2 2.095l1.887-1.511 1.886 1.511a1.92 1.92 0 00.19-2.115 7.503 7.503 0 005.385-7.197z" fill="#6DA544"/><path d="M16.218 17.695s0 2.885 2.885 2.885l.577.577h1.153s.577-1.731 1.731-1.731c0 0 0-1.154 1.154-1.154h1.73s-.576-2.307 2.308-4.038l-1.153-.577s-4.039 2.884-6.923 2.307v1.154h-1.154l-.577-.577-1.731 1.154z" fill="#FFDA44"/></g><defs><clipPath id="clip0_1_624"><path fill="#fff" transform="translate(.833)" d="M0 0h40v40H0z"/></clipPath></defs></svg>