<svg width="41" height="40" fill="none" xmlns="http://www.w3.org/2000/svg"><g clip-path="url(#clip0_1_865)"><path d="M40.5 26.552H.5v5.862a.69.69 0 00.69.69h38.62a.69.69 0 00.69-.69v-5.862z" fill="#FF4B55"/><path d="M40.5 20H.5V7.586a.69.69 0 01.69-.69h38.62a.69.69 0 01.69.69V20z" fill="#FFE15A"/><path d="M.5 20h40v6.552H.5V20z" fill="#41479B"/><path d="M19.78 20.387l5.038-4.318v6.25a1.907 1.907 0 01-3.183 1.416l-1.855-1.669v-1.68z" fill="#FFE15A"/><path d="M22.438 22.844l-1.458-1.312v-2.173l2.638-2.262v5.221a.708.708 0 01-1.18.526z" fill="#FF4B55"/><path d="M21.7 18.742v2.47l1.199 1.083v-4.58l.72-.618v5.221a.708.708 0 01-1.181.526l-1.458-1.312V19.36l.72-.617z" fill="#41479B"/><path d="M21.22 20.387l-5.038-4.318v6.25a1.907 1.907 0 003.183 1.416l1.855-1.669v-1.68z" fill="#FFE15A"/><path d="M18.562 22.844l1.458-1.312v-2.173l-2.638-2.262v5.221a.708.708 0 001.18.526z" fill="#FF4B55"/><path d="M19.3 18.742v2.47l-1.199 1.083v-4.58l-.72-.618v5.221a.708.708 0 001.181.526l1.458-1.312V19.36l-.72-.617zm5.344-2.651h.345v2.066h-.345V16.09zm-8.635 0h.344v2.066h-.345V16.09z" fill="#41479B"/><path d="M19.78 15.11s.48-2.28-1.2-1.98c-1.678.3-1.678.78-3.597 1.74 0 0 2.159.48 3.118.24 0 0 .72.96 1.44 1.2h.72l-.48-1.2zm1.44 0s-.48-2.28 1.199-1.98c1.68.3 1.68.78 3.598 1.74 0 0-2.159.48-3.118.24 0 0-.72.96-1.44 1.2h-.72l.48-1.2z" fill="#5A4646"/><path d="M21.22 16.309h-1.44v-1.208a.71.71 0 01.711-.711h.018a.71.71 0 01.71.71v1.209z" fill="#5A4646"/><path d="M20.5 15.59a.48.48 0 100-.96.48.48 0 000 .96z" fill="#E6E1CD"/><path d="M19.47 14.8l.902.481a.195.195 0 00.23-.31l-.582-.581h-.14a.41.41 0 00-.41.41z" fill="#FFD0AF"/><path d="M19.783 14.87h-.722l.316-.37a.313.313 0 01.238-.11h.405v.243a.236.236 0 01-.237.237z" fill="#FFAF94"/><path d="M22.546 16.31a.677.677 0 01-.118-.667.678.678 0 01.638.228.669.669 0 01.14.569c.059.101.116.205.17.31.003-.018.003-.036.008-.053a.558.558 0 01.401-.388.55.55 0 01-.19.898c.065.147.123.295.176.445.004-.009.004-.018.008-.027a.557.557 0 01.441-.341.55.55 0 01-.295.874c.083.33.139.678.139 1.03h-.24c0-.306-.047-.613-.118-.907a.546.546 0 01-.72-.536.552.552 0 01.553.013l.016.014a6.525 6.525 0 00-.162-.42.546.546 0 01-.783-.448.553.553 0 01.548-.049 6.975 6.975 0 00-.172-.313.671.671 0 01-.44-.232zm-4.092 0a.677.677 0 00.118-.667.669.669 0 00-.777.797c-.06.101-.117.205-.171.31-.004-.018-.003-.036-.008-.053a.557.557 0 00-.401-.388.55.55 0 00.19.898 6.756 6.756 0 00-.176.445c-.004-.009-.004-.018-.008-.027a.557.557 0 00-.441-.341.55.55 0 00.295.874 4.22 4.22 0 00-.139 1.03h.24c0-.306.047-.613.118-.907a.546.546 0 00.72-.536.552.552 0 00-.553.013l-.016.014c.049-.142.103-.282.162-.42a.546.546 0 00.783-.448.553.553 0 00-.548-.049c.054-.106.112-.21.172-.313a.67.67 0 00.44-.232z" fill="#8CB400"/><path d="M20.5 21.586l-5.037-4.317v6.248a1.907 1.907 0 003.182 1.418l1.855-1.67v-1.679z" fill="#FFE15A"/><path d="M17.843 24.043l1.457-1.312v-2.173l-2.638-2.261v5.22a.708.708 0 001.18.526z" fill="#FF4B55"/><path d="M18.58 19.942v2.47l-1.198 1.082v-4.58l-.72-.617v5.22a.708.708 0 001.18.526l1.459-1.312v-2.173l-.72-.616z" fill="#41479B"/><path d="M20.5 21.586l5.038-4.317v6.248a1.907 1.907 0 01-3.183 1.418l-1.855-1.67v-1.679z" fill="#FFE15A"/><path d="M23.157 24.043L21.7 22.731v-2.173l2.638-2.261v5.22a.708.708 0 01-1.18.526z" fill="#FF4B55"/><path d="M22.42 19.942v2.47l1.198 1.082v-4.58l.72-.617v5.22a.708.708 0 01-1.18.526l-1.459-1.312v-2.173l.72-.616z" fill="#41479B"/><path d="M20.5 23.506c1.325 0 2.399-1.612 2.399-3.599s-1.074-3.598-2.399-3.598-2.399 1.61-2.399 3.598c0 1.987 1.074 3.599 2.399 3.599z" fill="#69C3FF"/><path d="M18.341 20.867h4.318l.24-.96-1.093.183a.752.752 0 01-.613-.17l-1.24-1.065a.61.61 0 00-.832.032l-.78.78v1.2z" fill="#009B64"/><path d="M20.272 19.746l.413-.263-.733-.628a.612.612 0 00-.83.032l-.781.78v.24l1.2-.24.211.106a.528.528 0 00.52-.027z" fill="#F5F5F5"/><path d="M18.341 20.867l.24 1.439 1.2 1.2h.719l.96-.24.959-.96.24-1.44H18.34z" fill="#5AA0E6"/><path d="M20.5 23.745c-1.455 0-2.639-1.722-2.639-3.838s1.184-3.838 2.639-3.838c1.455 0 2.639 1.722 2.639 3.838s-1.184 3.838-2.639 3.838zm0-7.196c-1.19 0-2.159 1.507-2.159 3.358 0 1.852.969 3.359 2.159 3.359s2.159-1.507 2.159-3.359c0-1.851-.969-3.358-2.159-3.358z" fill="#FFC88C"/><path d="M18.808 23.484c-.201-.278-.5-.458-.84-.458-.339 0-.638.18-.84.458.344.095.624.373.757.74.055.154.084.317.083.48 0-.593.359-1.087.84-1.22z" fill="#E1E1E1"/><path d="M18.159 24.24s-.02.32-.183.47l-.007-.005c-.164-.15-.183-.47-.183-.47l.373.006z" fill="#E1E1E1"/><path d="M23.5 24.345h-6a.118.118 0 01-.118-.118v-.003c0-.066.053-.119.118-.119h6c.066 0 .119.053.119.119v.003a.118.118 0 01-.119.118z" fill="#966446"/><path d="M21.705 24.705h-2.41a.474.474 0 01-.474-.474v-.012a.474.474 0 01.474-.474h2.41a.474.474 0 01.474.474v.012a.474.474 0 01-.474.474z" fill="#BE915A"/><path d="M18.341 24.105h-.84a.12.12 0 00-.084.205.12.12 0 00.084.035h.84v-.24z" fill="#B9B9B9"/><path d="M20.5 24.705v2.192l-.96-.273.48-1.92h.48z" fill="#FF4B55"/><path d="M20.26 24.705l-.48 1.68-.96-.24.72-1.44h.72z" fill="#41479B"/><path d="M19.3 24.705l-.72.96.72.24.48-1.2h-.48z" fill="#FFE15A"/><path d="M20.5 24.705v2.192l.96-.273-.48-1.92h-.48z" fill="#FF4B55"/><path d="M20.74 24.705l.48 1.68.96-.24-.72-1.44h-.72z" fill="#41479B"/><path d="M21.7 24.705l.719.96-.72.24-.48-1.2h.48z" fill="#FFE15A"/><path d="M15.635 19.334l-.345-.347v-1.719h.345v2.066zm10.072-.347l-.345.348v-2.067h.345v1.719z" fill="#41479B"/></g><defs><clipPath id="clip0_1_865"><path fill="#fff" transform="translate(.5)" d="M0 0h40v40H0z"/></clipPath></defs></svg>