<svg width="40" height="40" fill="none" xmlns="http://www.w3.org/2000/svg"><path d="M40 15.632H0V7.586a.69.69 0 01.69-.69h38.62a.69.69 0 01.69.69v8.046z" fill="#FF4B55"/><path d="M39.31 33.103H.69a.69.69 0 01-.69-.69v-8.045h40v8.046a.69.69 0 01-.69.69z" fill="#464655"/><path d="M0 15.632h40v8.735H0v-8.735z" fill="#F5F5F5"/><path d="M24.067 18.244c-.072-.038-.158-.173-.131-.232.028-.062-.016-.056.132-.012.268.07.442.038.612-.107l.151-.12.177.088c.098.044.199.076.227.07.082-.02.24-.221.236-.29-.003-.095.067-.07.101.03.073.19-.06.516-.243.56-.088.026-.17.02-.31-.025-.163-.063-.188-.063-.277 0-.183.145-.444.158-.675.038zm.69-.73c-.088-.124-.194-.558-.163-.664.03-.097.062-.115.146-.088.15.053.186.15.168.505-.026.265-.062.354-.15.247zm-5.929 1.918c-.363.207-.903.242-.903.815-.792.03-1.725.065-2.567.047.228-.294 1.672-1.629 2.273-2.158a.336.336 0 00.075-.376l-.016-.032a.293.293 0 00-.465-.084c-.598.573-1.191 1.106-1.288 1.197l-1.123 1.134a.462.462 0 00-.134.328v.008a.464.464 0 00.464.462h3.389c.192 0-.044-.668.204-.668.172 0 .188.24.18.494a.358.358 0 01-.357.345c-1.466.002-2.99.016-4.426.018a.214.214 0 01-.214-.215v-.258a.273.273 0 00-.426-.226 1.276 1.276 0 01-.02.012.243.243 0 00-.107.284.811.811 0 01.037.24.213.213 0 01-.208.216c-.474.015-.99.019-1.137-.261-.082-.158-.258-.232-.418-.153l-.02.011a.33.33 0 00-.144.455c.175.31.334.671.252 1.177-.068.159-.195.258-.333.348-.153.1-.057.333.123.3.435-.08.735-.425.827-.832h6.752a.448.448 0 00.448-.448v-1.465c-.062-.437-.531-.42-.718-.715zm8.564-1.936c.1.064.2.128.31.181a.224.224 0 01.098.32.328.328 0 00-.044.106v2.906c.199.041.313.002.403-.06a.177.177 0 01.273.1c.068.255.18.504.24.731a.221.221 0 01-.117.257.223.223 0 01-.098.023h-1.139a.183.183 0 01-.182-.182v-4.242c0-.132.146-.211.256-.14zm-1.378.707c0 .803.01 1.667.011 2.527a.202.202 0 01-.202.202h-.013a.201.201 0 01-.201-.201v-2.039a.13.13 0 00-.214-.097l-.267.231a.246.246 0 00-.087.187l-.005 1.718a.202.202 0 01-.201.201h-.018a.2.2 0 01-.202-.2l-.007-1.19a.13.13 0 00-.217-.097c-.277.243-.34.298-.486.448.012.076.07 0 .106.059v.39c-1.008-.19-1.084.615-1.046 1.48a.244.244 0 00.243.232h3.166a.212.212 0 00.212-.212v-3.936a.15.15 0 00-.253-.11c-.077.07-.16.141-.23.205a.272.272 0 00-.09.202zm-2.33 2.7c-.062-.177.286-.242.327-.083.015.195-.25.2-.328.083z" fill="#73AF00"/><path d="M13.226 22.373a.22.22 0 01.155.374.216.216 0 01-.155.064.22.22 0 01-.224-.219c0-.118.1-.218.224-.218zm7.199-4.788c.06.035.12.07.185.1.117.055.163.2.091.308a.346.346 0 00-.05.116v2.9c.21.047.325.001.417-.067a.162.162 0 01.252.089c.053.197.132.392.193.576a.349.349 0 01-.331.46h-.888a.26.26 0 01-.26-.261V17.81a.26.26 0 01.39-.225z" fill="#73AF00"/></svg>