<svg width="40" height="40" fill="none" xmlns="http://www.w3.org/2000/svg"><path d="M13.333 33.103H.69a.69.69 0 01-.69-.69V7.586a.69.69 0 01.69-.69h12.643v26.207z" fill="#464655"/><path d="M13.334 6.896h13.333v26.207H13.334V6.896z" fill="#FF4B55"/><path d="M39.31 33.103H26.667V6.896H39.31a.69.69 0 01.69.69v24.827a.69.69 0 01-.69.69z" fill="#73AF00"/><path d="M21.8 21.352h-3.6l.2-.4h3.2l.2.4zm0-3.2h-3.6l.2.4h3.2l.2-.4z" fill="#F5F5F5"/><path d="M21 18.352h-2l.4-.4h1.2l.4.4zm-2.6 2h.6v.4h-.6v-.4zm0-.6h.6v.4h-.6v-.4zm0-1h.6v.4h-.6v-.4zm0 .6h.6v.2h-.6v-.2zm2.6 1h.6v.4H21v-.4zm0-.6h.6v.4H21v-.4zm0-1h.6v.4H21v-.4zm0 .6h.6v.2H21v-.2zm-2.4-2.2h.4v.8h-.4v-.8zm.4-.2h-.4v-.2a.2.2 0 01.4 0v.2zm2 .2h.4v.8H21v-.8zm.4-.2H21v-.2a.2.2 0 11.4 0v.2zm-1.4 1.8a.8.8 0 00-.8.8v1.2h1.6v-1.2a.8.8 0 00-.8-.8z" fill="#F5F5F5"/><path d="M18.676 20.012l-1.089-1.27a.198.198 0 00.013-.065.2.2 0 10-.2.2c.012 0 .023-.005.034-.007l.113.132L17 20.277l.6.6.518-1.209.406.474.152-.13zm-.973.418l-.479-.48.216-.503.479.479-.216.504zm3.778-.288l.406-.474.518 1.209.6-.6-.547-1.275.113-.132c.011.002.022.007.034.007a.2.2 0 10-.2-.2c0 .023.006.044.013.064l-1.09 1.27.153.13zm.605-.216l.478-.48.216.505-.478.479-.216-.504zm-1.86-3.139a.268.268 0 01-.154-.108 1.345 1.345 0 01-.072-.127 1.346 1.346 0 01-.072.127.267.267 0 01-.154.108.798.798 0 00-.574.765c0 .07.012.136.028.2h1.544a.792.792 0 00.028-.2.798.798 0 00-.574-.765zm-4.809 2.941a4.604 4.604 0 01.048-1.134 3 3 0 01.18.134 4.407 4.407 0 00-.023 1.062l.423.127a3.989 3.989 0 01-.045-.565c0-.096.006-.19.014-.284.22.245.395.54.395.867 0 .009.641-.95-.525-2.008l-.009.45-.672-.007a.125.125 0 00-.124.102 5.024 5.024 0 00-.072 1.133l.41.123z" fill="#F5F5F5"/><path d="M17.192 15.71a.2.2 0 10-.245-.316 4.969 4.969 0 00-1.795 2.735l.412.005c.26-.952.82-1.8 1.628-2.424z" fill="#F5F5F5"/><path d="M16.924 16.21a4.389 4.389 0 00-.989 1.471c.113.092.217.195.31.307a3.98 3.98 0 01.959-1.493.202.202 0 00.045-.217.2.2 0 00-.325-.069zm-.695 5.764a4.61 4.61 0 01-.664-1.415l.232.085c.144.463.363.899.648 1.29l.442-.08a4.03 4.03 0 01-.604-1.031l.26.095c.147.323.338.624.567.895l.46-.084a3.407 3.407 0 01-.475-.616l-.266-.532a.666.666 0 00-.405-.34l-.629-.19-.146-.044-.21-.063-.416-.125-.222-.067.137.413c.03.09.09.166.171.216.125.595.358 1.162.688 1.672l.432-.079zm7.896-3.597l-.009-.45c-1.166 1.058-.525 2.017-.525 2.008 0-.326.174-.622.395-.867.008.094.014.188.014.284 0 .192-.019.38-.045.565l.423-.127a4.42 4.42 0 00-.024-1.062c.059-.046.12-.09.18-.133a4.592 4.592 0 01.049 1.134l.41-.124a5.09 5.09 0 00-.072-1.133.125.125 0 00-.125-.102l-.671.007z" fill="#F5F5F5"/><path d="M24.436 18.134l.412-.005a4.97 4.97 0 00-1.795-2.735.2.2 0 00-.245.316 4.574 4.574 0 011.628 2.424z" fill="#F5F5F5"/><path d="M24.064 17.681a4.387 4.387 0 00-.988-1.472.199.199 0 00-.282.004.199.199 0 00.003.282c.436.428.757.937.958 1.493.093-.112.197-.215.31-.307zm.913 2.138l-.417.125-.21.063-.145.044-.63.19a.665.665 0 00-.404.34l-.266.532a3.402 3.402 0 01-.475.615l.46.084c.23-.27.42-.57.566-.894l.261-.096c-.149.372-.352.72-.603 1.031l.441.081c.285-.391.504-.827.648-1.29l.232-.086a4.59 4.59 0 01-.664 1.416l.432.079c.33-.51.563-1.077.688-1.672.08-.05.14-.126.17-.216l.138-.413-.222.067zm-2.893 2.21l-.01.01a3.391 3.391 0 01-2.074.713c-.77 0-1.492-.264-2.074-.713l-.01-.01a.32.32 0 00-.3-.097l-2.015.42.447.392c.118.102.27.154.426.145.362.36.776.664 1.229.9l-.131.242a5.07 5.07 0 002.428.616 5.07 5.07 0 002.428-.616l-.13-.242c.452-.236.866-.54 1.228-.9a.593.593 0 00.426-.145l.448-.392-2.017-.42a.32.32 0 00-.299.098zm-4.19 1.407a4.644 4.644 0 01-.993-.7l.194-.093c.271.24.57.45.893.618l-.094.175zm5.205-.7c-.299.273-.63.511-.993.7l-.095-.175c.324-.168.623-.378.894-.618l.194.092zm-3.1.616a3.97 3.97 0 01-2.511-.897l.199-.095c.649.5 1.455.792 2.313.792.857 0 1.664-.292 2.313-.792l.199.095a3.968 3.968 0 01-2.512.897z" fill="#F5F5F5"/><path d="M17.805 21.746c.086.073.175.142.268.206h3.854c.092-.064.181-.133.267-.206L22 21.552h-4l-.195.194z" fill="#F5F5F5"/></svg>