<svg width="41" height="40" fill="none" xmlns="http://www.w3.org/2000/svg"><g clip-path="url(#clip0_1_588)"><path d="M40.144 33.103H1.524a.69.69 0 01-.69-.69V7.586a.69.69 0 01.69-.69h38.62a.69.69 0 01.69.69v24.827a.69.69 0 01-.69.69z" fill="#F5F5F5"/><path d="M9.799 6.897h22.069v26.207H9.798V6.897z" fill="#F5F5F5"/><path d="M1.523 6.896a.69.69 0 00-.69.69v24.827a.69.69 0 00.69.69H9.8V6.896H1.523zm38.62 0h-8.275v26.207h8.276a.69.69 0 00.69-.69V7.586a.69.69 0 00-.69-.69zM25.019 23.028l4.093-2.339-.94-.47a.69.69 0 01-.374-.707l.305-2.291-1.732.504a.69.69 0 01-.866-.513l-.166-.75-1.627 1.904c-.226.264-.655.062-.596-.28l.694-4.04-1.063.291a.69.69 0 01-.79-.34l-1.12-2.1v-.003l-.002.002v-.002.003l-1.12 2.1a.69.69 0 01-.791.34l-1.064-.29.695 4.039c.059.342-.37.544-.596.28l-1.627-1.904-.166.75a.69.69 0 01-.866.513l-1.733-.504.306 2.29a.69.69 0 01-.375.709l-.94.47 4.093 2.338a.996.996 0 01.439 1.213l-.35.936 3.506-.3a.326.326 0 01.354.335l-.11 3.753h.69l-.111-3.753a.326.326 0 01.353-.335l3.509.3-.35-.936a.995.995 0 01.438-1.213z" fill="#FF4B55"/></g><defs><clipPath id="clip0_1_588"><path fill="#fff" transform="translate(.833)" d="M0 0h40v40H0z"/></clipPath></defs></svg>