<svg width="41" height="40" fill="none" xmlns="http://www.w3.org/2000/svg"><g clip-path="url(#clip0_1_830)"><path d="M40.667 12.138h-40V7.586a.69.69 0 01.69-.69h38.62a.69.69 0 01.69.69v4.552zm-.69 20.965H1.357a.69.69 0 01-.69-.69v-4.551h40v4.552a.69.69 0 01-.69.69z" fill="#41479B"/><path d="M.667 12.138h40v5.242h-40v-5.242z" fill="#F5F5F5"/><path d="M.667 17.38h40v5.241h-40V17.38z" fill="#41479B"/><path d="M.667 22.621h40v5.242h-40V22.62z" fill="#F5F5F5"/><path d="M.925 32.94L20.88 20.303a.358.358 0 000-.605L.925 7.06a.678.678 0 00-.258.526v24.828a.68.68 0 00.258.526z" fill="#FF4B55"/><path d="M7.583 16.675l.708 2.123 2.238.018a.18.18 0 01.106.325l-1.8 1.33.674 2.134a.18.18 0 01-.277.2l-1.82-1.3-1.821 1.3a.18.18 0 01-.277-.2l.675-2.134-1.8-1.33a.18.18 0 01.105-.325l2.238-.018.709-2.123a.18.18 0 01.342 0z" fill="#F5F5F5"/></g><defs><clipPath id="clip0_1_830"><path fill="#fff" transform="translate(.667)" d="M0 0h40v40H0z"/></clipPath></defs></svg>