<svg width="41" height="40" fill="none" xmlns="http://www.w3.org/2000/svg"><g clip-path="url(#clip0_1_1016)"><path d="M39.81 33.103H1.19a.69.69 0 01-.69-.69V7.587a.69.69 0 01.69-.69h38.62a.69.69 0 01.69.69v24.828a.69.69 0 01-.69.69z" fill="#FF4B55"/><path d="M18.037 21.01c-.87.008-1.845-.27-2.7-1.213a.157.157 0 01.016-.224.158.158 0 01.218.016c1.304 1.432 2.92 1.181 3.886.835-.357.016-.805-.01-1.093-.2-1.205-.792-.66-1.634-1.459-2.652-.795-1.011-1.51-.987-2.636-.816-1.115.169-1.47-.649-1.58-1.103-.02-.081-.134-.086-.163-.008-1.39 3.755 2.789 8.4 7.078 5.06a4.721 4.721 0 01-1.567.305zm-3.13-1.275a.074.074 0 01-.14-.003l-.16-.528-.551-.019a.074.074 0 01-.04-.135l.452-.315-.152-.53a.074.074 0 01.116-.08l.44.333.456-.308c.06-.04.136.018.112.086l-.18.52.434.34a.074.074 0 01-.047.132l-.551-.01-.189.517zm6.208-1.22c.69-.528 1.638-.89 2.888-.65a.157.157 0 01.122.19.157.157 0 01-.185.118c-1.902-.364-3.045.806-3.61 1.662.276-.227.65-.474.995-.496 1.438-.088 1.507.913 2.757 1.248 1.243.332 1.8-.116 2.6-.928.79-.804 1.565-.362 1.925-.066.065.054.159-.01.135-.09-1.14-3.838-7.269-5.05-8.698.196a4.71 4.71 0 011.07-1.184zm3.269-.858a.074.074 0 01.115-.08l.444.325.452-.315a.074.074 0 01.113.084l-.173.524.44.332a.074.074 0 01-.046.134l-.55-.003-.181.52a.074.074 0 01-.141 0l-.168-.526-.551-.01a.074.074 0 01-.042-.135l.448-.322-.16-.527z" fill="#F5F5F5"/><path d="M18.812 18.877c-.339-.8-.453-1.81.094-2.96a.157.157 0 01.213-.07.16.16 0 01.069.21c-.829 1.75.018 3.149.706 3.91-.15-.324-.296-.748-.231-1.087.274-1.415 1.26-1.231 1.897-2.358.633-1.12.338-1.772-.248-2.748-.58-.967.04-1.607.418-1.882.068-.049.03-.156-.054-.153-4 .144-6.706 5.775-1.985 8.471a4.722 4.722 0 01-.879-1.333zm-.013-3.38a.074.074 0 01-.05-.131l.427-.349-.192-.516a.074.074 0 01.11-.089l.464.298.432-.342a.074.074 0 01.118.078l-.14.533.458.305c.06.04.034.132-.037.136l-.55.03-.149.532a.074.074 0 01-.14.006l-.2-.513-.55.023zm3.13 5.197c.719.49 1.361 1.275 1.524 2.538a.157.157 0 01-.141.175.157.157 0 01-.17-.139c-.252-1.92-1.722-2.637-2.712-2.905.302.19.654.469.782.789.537 1.338-.392 1.717-.318 3.01.075 1.284.676 1.672 1.698 2.176 1.011.498.835 1.372.667 1.808-.03.078.06.147.128.1 3.285-2.288 2.51-8.488-2.918-8.197.437.113.966.308 1.46.645zm1.841 2.834a.074.074 0 01.114.083l-.17.524.44.331a.074.074 0 01-.044.134h-.55l-.179.521a.074.074 0 01-.14 0l-.171-.524-.551-.009a.074.074 0 01-.043-.134l.446-.324-.163-.527a.074.074 0 01.115-.082l.446.324.45-.317z" fill="#F5F5F5"/><path d="M20.132 22.252c-.247.833-.801 1.684-1.954 2.224a.157.157 0 01-.21-.082.158.158 0 01.08-.204c1.753-.824 1.99-2.443 1.943-3.467-.09.345-.248.766-.514.986-1.11.917-1.755.148-2.963.612-1.201.462-1.388 1.153-1.557 2.28-.167 1.114-1.053 1.213-1.52 1.185-.083-.005-.121.102-.055.152 3.179 2.434 8.849-.19 6.92-5.273.025.45 0 1.013-.17 1.587zm-2.14 2.616a.074.074 0 01-.045.133l-.55-.002-.181.52a.074.074 0 01-.141-.001l-.168-.525-.551-.011a.074.074 0 01-.042-.135l.447-.322-.16-.527a.074.074 0 01.115-.081l.445.325.452-.315a.074.074 0 01.113.085l-.173.523.44.333z" fill="#F5F5F5"/></g><defs><clipPath id="clip0_1_1016"><path fill="#fff" transform="translate(.5)" d="M0 0h40v40H0z"/></clipPath></defs></svg>