<svg width="40" height="40" fill="none" xmlns="http://www.w3.org/2000/svg"><path d="M40 20H0V7.586a.69.69 0 01.69-.69h38.62a.69.69 0 01.69.69V20z" fill="#F5F5F5"/><path d="M1.38 20v-.69H0v13.104a.69.69 0 00.69.69h38.62a.69.69 0 00.69-.69V20H1.38z" fill="#FF4B55"/><path d="M12.414 20H.69a.69.69 0 01-.69-.69V7.586a.69.69 0 01.69-.69h11.724a.69.69 0 01.69.69V19.31a.69.69 0 01-.69.69z" fill="#41479B"/><path d="M6.817 10.507l.658 1.971 2.078.016a.28.28 0 01.164.506l-1.672 1.234.627 1.981a.28.28 0 01-.43.313l-1.69-1.209-1.691 1.209a.28.28 0 01-.43-.313l.627-1.98L3.386 13a.28.28 0 01.164-.506l2.079-.016.657-1.971a.28.28 0 01.531 0z" fill="#F5F5F5"/></svg>