<svg width="41" height="40" fill="none" xmlns="http://www.w3.org/2000/svg"><g clip-path="url(#clip0_1_855)"><path d="M40.167 15.632h-40V7.586a.69.69 0 01.69-.69h38.62a.69.69 0 01.69.69v8.046z" fill="#73AF00"/><path d="M39.477 33.103H.857a.69.69 0 01-.69-.69v-8.045h40v8.046a.69.69 0 01-.69.69z" fill="#FF4B55"/><path d="M.167 15.632h40v8.735h-40v-8.735z" fill="#FFE15A"/><path d="M28.444 20.008c0 4.564-3.706 8.277-8.277 8.277s-8.277-3.713-8.277-8.277c0-4.578 3.706-8.284 8.277-8.284a8.279 8.279 0 018.277 8.284z" fill="#4173CD"/><path d="M13.871 17.927h4.81l1.088-3.35.289.9-1.58 4.867-.472-.343.493-1.513H14.63l-.76-.561zm2.403 7.405l1.486-4.571-2.848-2.075h.94l4.14 3.006-.471.344-1.29-.938-1.197 3.686-.76.548zm7.785 0l-3.892-2.827-2.847 2.067.29-.885 4.137-3.012.177.555-1.287.931 3.13 2.28.292.89zm2.403-7.405l-3.89 2.834 1.089 3.349-.76-.555-1.578-4.869h.578l.492 1.52 3.13-2.28h.939zm-6.295-4.571l1.486 4.57h3.523l-.762.562h-5.116l.18-.561h1.595l-1.197-3.68.29-.891z" fill="#F2DD30"/><path d="M20.305 26.627h-.276V23.04h.276v3.587zm6.116-4.453l-3.41-1.103.085-.258 3.412 1.104-.087.257zm-12.51 0l-.086-.257 3.413-1.104.085.258-3.412 1.103zm8.153-4.544l-.225-.159 2.11-2.9.22.159-2.105 2.9zm-3.79 0l-2.112-2.9.223-.159 2.107 2.9-.218.159z" fill="#F2DD30"/></g><defs><clipPath id="clip0_1_855"><path fill="#fff" transform="translate(.167)" d="M0 0h40v40H0z"/></clipPath></defs></svg>