<svg width="41" height="40" fill="none" xmlns="http://www.w3.org/2000/svg"><g clip-path="url(#clip0_1_1101)"><path d="M37.171 6.896H3.162A2.996 2.996 0 00.167 9.892v20.216a2.996 2.996 0 002.995 2.995h34.009a2.996 2.996 0 002.996-2.995V9.892a2.996 2.996 0 00-2.996-2.996z" fill="#41479B"/><path d="M40.125 9.397a2.996 2.996 0 00-2.954-2.5h-.78l-12.776 8.37v-8.37h-6.897v8.37L3.942 6.897h-.78a2.996 2.996 0 00-2.954 2.5l10.92 7.155H.167v6.896h10.961L.208 30.603a2.996 2.996 0 002.954 2.5h.78l12.776-8.37v8.37h6.897v-8.37l12.777 8.37h.779a2.996 2.996 0 002.954-2.5l-10.92-7.155h10.962v-6.896H29.205l10.92-7.155z" fill="#F5F5F5"/><path d="M22.236 6.896h-4.138v11.035H.167v4.138h17.93v11.034h4.139V22.07h17.93v-4.14h-17.93V6.896z" fill="#FF4B55"/><path d="M2.104 32.91l14.576-9.462h-2.533L.887 32.056a3 3 0 001.217.854zm25.124-9.462h-2.533l14.118 9.165c.396-.26.725-.61.96-1.022l-12.545-8.143zM.483 8.553l12.323 7.999h2.533L1.376 7.488c-.377.28-.683.645-.893 1.065zm25.665 7.999l13.284-8.623a3 3 0 00-1.226-.849l-14.591 9.472h2.533z" fill="#FF4B55"/></g><defs><clipPath id="clip0_1_1101"><path fill="#fff" transform="translate(.167)" d="M0 0h40v40H0z"/></clipPath></defs></svg>