<svg width="41" height="40" fill="none" xmlns="http://www.w3.org/2000/svg"><g clip-path="url(#clip0_1_729)"><path d="M40.5 15.632H.5V7.586a.69.69 0 01.69-.69h38.62a.69.69 0 01.69.69v8.046zm-.69 17.471H1.19a.69.69 0 01-.69-.69v-8.045h40v8.046a.69.69 0 01-.69.69z" fill="#82AFFF"/><path d="M.5 15.632h40v8.735H.5v-8.735z" fill="#F5F5F5"/><path d="M23.948 19.827h-2.483a1.15 1.15 0 00.116-.102.626.626 0 01.237-.159c.128-.054.196-.054.281-.056a.96.96 0 00.409-.08c.19-.08.272-.16.346-.232a.633.633 0 01.236-.16.619.619 0 01.28-.054.966.966 0 00.408-.081l-.132-.318a.62.62 0 01-.28.054c-.102.002-.218.003-.408.081a.965.965 0 00-.345.231.626.626 0 01-.237.159.627.627 0 01-.281.056.951.951 0 00-.41.081c-.189.079-.271.16-.345.231a.643.643 0 01-.231.157l1.951-1.952-.244-.243-1.756 1.756c.007-.057.01-.108.01-.155a.631.631 0 01.055-.28c.053-.13.1-.177.16-.238a.96.96 0 00.232-.346.959.959 0 00.08-.409c.002-.084.002-.152.055-.28.053-.128.1-.175.16-.236.071-.073.152-.156.23-.346l-.318-.132a.626.626 0 01-.16.237.96.96 0 00-.23.345.957.957 0 00-.081.409.634.634 0 01-.055.28.626.626 0 01-.16.237.959.959 0 00-.232.346.952.952 0 00-.08.41.652.652 0 01-.053.273v-2.76h-.345v2.484a1.233 1.233 0 00-.102-.116.633.633 0 01-.16-.237.635.635 0 01-.055-.282.957.957 0 00-.081-.409.958.958 0 00-.232-.345.632.632 0 01-.16-.236.645.645 0 01-.054-.28.952.952 0 00-.08-.408l-.319.132c.053.128.053.195.055.28a.957.957 0 00.08.407c.079.19.16.272.232.346.06.06.106.108.16.236a.637.637 0 01.054.282.957.957 0 00.081.409c.079.19.16.272.232.346.058.06.105.109.156.231l-1.951-1.951-.244.244 1.948 1.948a.672.672 0 01-.214-.147c-.074-.072-.157-.154-.347-.233a.975.975 0 00-.41-.081.63.63 0 01-.282-.056.634.634 0 01-.24-.16.97.97 0 00-.348-.233c-.19-.079-.307-.08-.41-.081a.643.643 0 01-.283-.057l-.132.32c.19.078.307.08.41.08a.645.645 0 01.283.057c.13.054.179.1.24.16a.965.965 0 00.348.232c.19.08.307.081.41.083a.628.628 0 01.282.056c.129.053.177.1.238.16.031.03.066.062.109.096h-2.49v.344h2.754a.66.66 0 01-.255.048.96.96 0 00-.41.081c-.19.079-.273.16-.347.232a.632.632 0 01-.238.16.644.644 0 01-.284.057c-.102.001-.219.002-.41.081a.97.97 0 00-.348.232.625.625 0 01-.24.16l.132.32a.97.97 0 00.348-.232c.062-.06.11-.108.24-.16a.641.641 0 01.283-.057c.104-.002.22-.003.411-.082a.964.964 0 00.347-.232.62.62 0 01.239-.16c.128-.054.196-.054.281-.056.044 0 .093-.003.146-.01l-1.762 1.762.244.244 1.948-1.948a.66.66 0 01-.147.214.966.966 0 00-.232.347.96.96 0 00-.081.41.633.633 0 01-.056.282c-.053.13-.1.178-.16.24a.968.968 0 00-.233.348.963.963 0 00-.081.41c-.002.085-.003.153-.056.283l.318.132c.08-.191.08-.308.082-.41.002-.086.002-.154.056-.283.053-.13.101-.179.16-.24a.968.968 0 00.233-.348.958.958 0 00.081-.41c.002-.085.002-.153.056-.282.053-.13.1-.177.16-.238a1.26 1.26 0 00.096-.11v2.491h.345v-2.754a.662.662 0 01.048.255.958.958 0 00.081.409.96.96 0 00.232.347c.06.061.107.11.16.24a.628.628 0 01.056.282.96.96 0 00.082.41c.079.19.16.275.232.348.06.062.107.11.16.24l.32-.132a.965.965 0 00-.233-.348.625.625 0 01-.16-.24c-.054-.13-.055-.197-.057-.283-.001-.103-.002-.22-.081-.41a.962.962 0 00-.232-.347c-.06-.062-.107-.11-.16-.24a.62.62 0 01-.056-.28 1.32 1.32 0 00-.01-.147l1.762 1.762.244-.244-1.756-1.756c.056.008.108.01.154.01a.631.631 0 01.28.055c.13.054.177.1.238.16.074.072.157.153.347.232.19.078.305.08.408.08.085.002.152.002.28.055.128.053.175.1.236.16.074.07.157.152.346.231l.132-.32c-.128-.052-.176-.099-.237-.158a.958.958 0 00-.345-.232.954.954 0 00-.409-.08c-.084-.002-.151-.002-.28-.055a.626.626 0 01-.237-.16c-.073-.071-.157-.153-.347-.231a.94.94 0 00-.408-.081.648.648 0 01-.276-.054h2.762v-.345z" fill="#F09146"/><path d="M20.5 21.724a1.724 1.724 0 100-3.448 1.724 1.724 0 000 3.448z" fill="#FFE15A"/></g><defs><clipPath id="clip0_1_729"><path fill="#fff" transform="translate(.5)" d="M0 0h40v40H0z"/></clipPath></defs></svg>