<svg width="41" height="40" fill="none" xmlns="http://www.w3.org/2000/svg"><g clip-path="url(#clip0_1_1091)"><path d="M.167 8.667a2 2 0 012-2h36a2 2 0 012 2v22.666a2 2 0 01-2 2h-36a2 2 0 01-2-2V8.668z" fill="#D80027"/><path d="M27.247 17.907c.48-.638-.19-1.344-.988-1.344h-2.06c-.498 0-.843-.703-.844-1.201 0-.96-.779-1.74-1.739-1.74h-2.899c-.96 0-1.739.78-1.739 1.74 0 .498-.346 1.2-.844 1.2h-2.059c-.798 0-1.468.707-.989 1.345.443.59 1.161.974 1.94.974a.075.075 0 00-.075.078 2.32 2.32 0 001.65 2.144c.357.107.657.407.765.765.088.291.053.622-.162.837l-.821.821a1.044 1.044 0 001.476 1.476l1.292-1.293a.146.146 0 01.147-.035c.085.027.136.121.1.203l-.761 1.718a1.64 1.64 0 00.299 1.77 1.686 1.686 0 002.461 0 1.64 1.64 0 00.3-1.771l-.761-1.717c-.036-.082.014-.176.1-.202a.147.147 0 01.146.034l1.293 1.293a1.043 1.043 0 101.476-1.476l-.822-.821c-.215-.215-.25-.546-.162-.837a1.17 1.17 0 01.766-.765 2.32 2.32 0 001.65-2.144.075.075 0 00-.076-.078 2.44 2.44 0 001.94-.974z" fill="#212D40"/></g><defs><clipPath id="clip0_1_1091"><path fill="#fff" transform="translate(.167)" d="M0 0h40v40H0z"/></clipPath></defs></svg>