<svg width="41" height="40" fill="none" xmlns="http://www.w3.org/2000/svg"><g clip-path="url(#clip0_1_1057)"><path d="M40.833 15.632h-40V7.586a.69.69 0 01.69-.69h38.62a.69.69 0 01.69.69v8.046z" fill="#FAB446"/><path d="M40.144 33.103H1.524a.69.69 0 01-.69-.69v-8.045h40v8.046a.69.69 0 01-.69.69z" fill="#73AF00"/><path d="M.833 15.632h40v8.735h-40v-8.735z" fill="#F5F5F5"/><path d="M20.833 23.707A3.71 3.71 0 0117.127 20a3.71 3.71 0 013.706-3.707A3.711 3.711 0 0124.54 20a3.71 3.71 0 01-3.707 3.707zm0-6.724A3.02 3.02 0 0017.816 20a3.02 3.02 0 003.017 3.017A3.02 3.02 0 0023.851 20a3.02 3.02 0 00-3.018-3.017z" fill="#41479B"/><path d="M20.833 20.42a.42.42 0 100-.84.42.42 0 000 .84z" fill="#41479B"/><path d="M20.833 20.063l-1.068.108-2.294-.108v-.126l2.294-.108 1.068.108v.126zm0 0l1.068.108 2.294-.108v-.126l-2.294-.108-1.068.108v.126z" fill="#41479B"/><path d="M20.77 20l-.107-1.068.107-2.294h.126l.108 2.294L20.896 20h-.126zm0 0l-.107 1.068.107 2.294h.126l.108-2.294L20.896 20h-.126z" fill="#41479B"/><path d="M20.789 20.044l-.832-.678-1.546-1.699.09-.089 1.698 1.546.679.832-.09.088zm0 .001l.679.831 1.698 1.546.09-.09-1.547-1.698-.831-.678-.09.089z" fill="#41479B"/><path d="M20.789 19.956l.679-.832 1.698-1.546.09.09-1.547 1.698-.831.678-.09-.088zm0 0l-.832.678-1.546 1.699.09.089 1.698-1.546.679-.832-.09-.088z" fill="#41479B"/><path d="M20.858 20.058l-.946.509-2.16.778-.049-.117 2.078-.977 1.028-.31.049.117z" fill="#41479B"/><path d="M20.858 20.058l1.027-.309 2.079-.977-.049-.117-2.16.778-.946.509.049.116z" fill="#41479B"/><path d="M20.775 20.024l-.508-.946-.779-2.16.117-.048.977 2.078.31 1.028-.117.048z" fill="#41479B"/><path d="M20.775 20.024l.31 1.028.977 2.078.116-.048-.778-2.16-.508-.946-.117.048z" fill="#41479B"/><path d="M20.81 20.058l-1.029-.309-2.078-.977.048-.117 2.161.778.946.509-.049.116zm0 0l.945.508 2.16.779.049-.117-2.079-.977-1.027-.31-.049.117z" fill="#41479B"/><path d="M20.775 19.976l.31-1.028.977-2.078.116.048-.778 2.16-.508.946-.117-.048z" fill="#41479B"/><path d="M20.775 19.976l-.508.945-.779 2.16.117.05.977-2.079.31-1.028-.117-.048z" fill="#41479B"/><path d="M20.833 20.567a.567.567 0 100-1.134.567.567 0 000 1.134z" fill="#F5F5F5"/><path d="M20.833 20.34a.34.34 0 100-.68.34.34 0 000 .68z" fill="#41479B"/></g><defs><clipPath id="clip0_1_1057"><path fill="#fff" transform="translate(.833)" d="M0 0h40v40H0z"/></clipPath></defs></svg>