<svg width="41" height="40" fill="none" xmlns="http://www.w3.org/2000/svg"><g clip-path="url(#clip0_1_683)"><path d="M.5 24.368h40v8.046a.69.69 0 01-.69.69H1.19a.69.69 0 01-.69-.69v-8.046z" fill="#41479B"/><path d="M1.19 6.896h38.62a.69.69 0 01.69.69v8.046H.5V7.586a.69.69 0 01.69-.69z" fill="#FF4B55"/><path d="M.5 15.632h40v8.735H.5v-8.735z" fill="#F5F5F5"/><path d="M15.673 15.862h1.93v2.207h-1.93v-2.207zm3.861 0h1.931v2.207h-1.93v-2.207zm-1.93 2.207h1.93v2.207h-1.93v-2.207zm5.792-2.207h1.931v2.207h-1.931v-2.207zm-1.93 2.207h1.93v2.207h-1.93v-2.207z" fill="#FF4B55"/><path d="M17.603 15.862h1.931v2.207h-1.93v-2.207zm3.863 0h1.93v2.207h-1.93v-2.207zm-5.793 2.207h1.93v2.207h-1.93v-2.207zm3.861 0h1.931v2.207h-1.93v-2.207zm3.862 0h1.931v2.207h-1.931v-2.207z" fill="#F5F5F5"/><path d="M19.534 20.276h1.931v2.207h-1.93v-2.207zm-1.93 2.207h1.93v2.207h-1.93v-2.207zm3.862 0h1.93v2.207h-1.93v-2.207z" fill="#FF4B55"/><path d="M17.603 20.276h1.931v2.207h-1.93v-2.207zm3.863 0h1.93v2.207h-1.93v-2.207zm-1.932 2.207h1.931v2.207h-1.93v-2.207z" fill="#F5F5F5"/><path d="M25.328 15.862v6.207a4.828 4.828 0 01-9.656 0v-6.207h9.655zm.344-.345H15.327v6.552A5.178 5.178 0 0020.5 27.24a5.178 5.178 0 005.172-5.172v-6.552z" fill="#FF4B55"/><path d="M17.603 22.483v-2.207h-1.93v1.793c0 .14.009.277.02.414h1.91z" fill="#FF4B55"/><path d="M25.307 22.483h-1.91v2.206h1.154c.43-.662.69-1.42.756-2.206zm-8.858 2.206h1.154v-2.206h-1.91c.067.786.326 1.544.756 2.206z" fill="#F5F5F5"/><path d="M23.396 22.483h1.91c.012-.137.021-.274.021-.414v-1.793h-1.93v2.207zm-5.793 3.441V24.69H16.45c.31.478.701.894 1.154 1.235zm6.948-1.235h-1.154v1.235a4.842 4.842 0 001.154-1.235z" fill="#FF4B55"/><path d="M17.603 25.924a4.8 4.8 0 001.931.875v-2.11h-1.93v1.235zm3.862.875a4.795 4.795 0 001.931-.875V24.69h-1.93v2.11z" fill="#F5F5F5"/><path d="M21.465 24.69h-1.93v2.11a4.84 4.84 0 001.93 0v-2.11z" fill="#FF4B55"/><path d="M17.006 12.21a14.132 14.132 0 00-1.289-.139c-.335.276-.658.567-.968.871l.923 2.23c.615-.254 1.248-.46 1.895-.614l-.561-2.348zm4.666-.366c-.383-.194-.774-.37-1.172-.529-.398.16-.79.335-1.172.529l.188 2.406a12.598 12.598 0 011.968 0l.188-2.406zm4.58 1.098c-.31-.304-.634-.595-.97-.87-.438.026-.867.073-1.288.138l-.56 2.348c.646.154 1.28.36 1.893.614l.924-2.23z" fill="#4173CD"/><path d="M19.328 11.844a14.292 14.292 0 00-1.242-.34c-.37.22-.73.455-1.08.706l.56 2.348a12.619 12.619 0 011.95-.307l-.188-2.407zm4.666.366c-.35-.25-.71-.486-1.08-.705-.419.094-.833.207-1.242.34l-.188 2.406c.657.051 1.308.154 1.95.307l.56-2.348z" fill="#41479B"/><path d="M19.403 12.807a14.04 14.04 0 00-2.173.342l-.112-.47a14.58 14.58 0 012.247-.354l.038.482zm.076.962c-.682.054-1.36.16-2.024.32l-.113-.47c.69-.165 1.392-.276 2.099-.33l.038.48z" fill="#FF4B55"/><path d="M22.791 13.931c-.168-.03-.337-.056-.506-.08-.279-.038-.486-.274-.462-.54.024-.265.29-.458.593-.416.182.025.363.053.544.086.301.053.496.319.438.578-.059.26-.33.421-.607.372z" fill="#FFE15A"/><path d="M25.512 14.726a13.117 13.117 0 00-1.967-.638l.113-.47a13.58 13.58 0 012.039.662l-.185.446z" fill="#FF4B55"/><path d="M25.34 13.278c-.068.188-.298.277-.516.207-.217-.071-.35-.278-.295-.47.055-.192.288-.294.519-.22.23.076.36.295.292.483zm-8.87-.263c.056.193-.078.4-.295.47-.217.07-.447-.02-.515-.207-.068-.188.062-.407.292-.482.23-.075.464.027.519.22zm3.92-.316c0 .16-.143.29-.322.296-.178.005-.33-.116-.339-.275-.01-.16.134-.298.321-.304.187-.006.339.123.34.283zm.88.02c-.009.16-.16.281-.339.276-.178-.006-.321-.136-.321-.296 0-.16.153-.289.34-.283.186.006.33.144.32.304zm-.457.725c-.004.16-.144.285-.313.285s-.309-.125-.313-.285c-.005-.16.136-.294.313-.293.177 0 .317.133.313.293z" fill="#FFE15A"/></g><defs><clipPath id="clip0_1_683"><path fill="#fff" transform="translate(.5)" d="M0 0h40v40H0z"/></clipPath></defs></svg>