<svg width="40" height="40" fill="none" xmlns="http://www.w3.org/2000/svg"><g clip-path="url(#clip0_1_785)"><path d="M39.31 33.103H.69a.69.69 0 01-.69-.69V7.587a.69.69 0 01.69-.69h38.62a.69.69 0 01.69.69v24.828a.69.69 0 01-.69.69z" fill="#41479B"/><path d="M19.31 6.896h-1.198l-6.388 4.186V6.896H8.276v4.186L1.888 6.896H.69a.69.69 0 00-.69.69v.547l5.48 3.591H0v3.448h5.48L0 18.763v.547a.69.69 0 00.69.69h1.198l6.388-4.186V20h3.448v-4.186L18.112 20h1.198a.69.69 0 00.69-.69v-.547l-5.48-3.59H20v-3.449h-5.48L20 8.134v-.548a.69.69 0 00-.69-.69z" fill="#F5F5F5"/><path d="M20 12.414h-8.966V6.896H8.966v5.518H0v2.069h8.966V20h2.068v-5.517H20v-2.07z" fill="#FF4B55"/><path d="M7.586 11.724L.33 7.013a.678.678 0 00-.33.573v.036l6.32 4.102h1.266zm5.405 0l6.904-4.482a.68.68 0 00-.585-.346h-.149l-7.437 4.828h1.267zm-6 3.448L.098 19.645A.681.681 0 00.69 20h.13l7.438-4.828H6.99zm12.998 4.192l-6.458-4.192h-1.267l7.334 4.76a.683.683 0 00.391-.568z" fill="#FF4B55"/><path d="M10.209 23.76l.52 1.719 1.668-.665c.143-.057.272.106.185.232l-1.019 1.478 1.56.89a.155.155 0 01-.066.29l-1.792.124.277 1.774a.155.155 0 01-.267.13l-1.215-1.323-1.214 1.322a.155.155 0 01-.267-.129l.276-1.774-1.791-.125a.155.155 0 01-.066-.289l1.56-.89-1.02-1.478a.155.155 0 01.185-.232l1.669.665.52-1.719a.155.155 0 01.297 0zm20.516-12.219l.254.84.815-.325c.07-.027.133.052.09.113l-.497.723.761.434a.076.076 0 01-.032.141l-.875.062.135.866c.012.074-.08.118-.13.063l-.594-.646-.593.646a.076.076 0 01-.13-.063l.135-.866-.875-.062c-.075-.005-.098-.104-.033-.14l.762-.435-.498-.723c-.042-.061.021-.14.09-.113l.815.325.255-.84c.022-.071.123-.071.145 0zm-5.67 6.444l.254.84.815-.325a.075.075 0 01.09.113l-.498.722.762.435c.065.037.043.136-.032.141l-.875.061.135.867a.076.076 0 01-.13.063l-.594-.646-.593.645a.076.076 0 01-.13-.062l.134-.867-.875-.061c-.074-.005-.097-.104-.032-.141l.762-.435-.498-.722c-.042-.062.021-.141.09-.113l.815.324.255-.84c.022-.07.123-.07.145 0zm11.034-2.759l.255.84.814-.325c.07-.028.133.052.09.113l-.497.722.762.435c.065.037.042.136-.033.141l-.875.061.136.867c.011.074-.08.118-.13.063l-.594-.646-.594.646a.076.076 0 01-.13-.063l.135-.867-.875-.06c-.075-.006-.097-.105-.032-.142l.761-.435-.497-.722a.076.076 0 01.09-.113l.815.325.254-.84a.076.076 0 01.145 0zM30.725 26.26l.254.84.815-.325c.07-.027.133.052.09.114l-.497.722.761.435a.076.076 0 01-.032.14l-.875.062.135.866c.012.074-.08.118-.13.063l-.594-.646-.593.646c-.05.055-.142.011-.13-.063l.135-.866-.875-.061c-.075-.005-.098-.104-.033-.141l.762-.435-.498-.722c-.042-.062.021-.141.09-.114l.815.325.255-.84c.022-.071.123-.071.145 0zm1.967-6.767l-.204.612-.645.005a.087.087 0 00-.051.157l.519.384-.195.615a.087.087 0 00.134.097l.525-.375.525.375a.087.087 0 00.133-.097l-.195-.615.52-.384a.087.087 0 00-.051-.157l-.646-.005-.204-.612a.087.087 0 00-.165 0z" fill="#F5F5F5"/></g><defs><clipPath id="clip0_1_785"><path fill="#fff" d="M0 0h40v40H0z"/></clipPath></defs></svg>