<svg width="41" height="40" fill="none" xmlns="http://www.w3.org/2000/svg"><g clip-path="url(#clip0_1_1115)"><path d="M39.644 33.103H1.024a.69.69 0 01-.69-.69V7.587a.69.69 0 01.69-.69h38.62a.69.69 0 01.69.69v24.828a.69.69 0 01-.69.69z" fill="#F5F5F5"/><path d="M16.885 17.241H1.023a.69.69 0 01-.69-.69V7.587a.69.69 0 01.69-.69h15.862a.69.69 0 01.69.69v8.966a.69.69 0 01-.69.69zm22.759 15.862H23.782a.69.69 0 01-.69-.69v-8.965a.69.69 0 01.69-.69h15.862a.69.69 0 01.69.69v8.966a.69.69 0 01-.69.69z" fill="#41479B"/><path d="M39.644 17.241H23.782a.69.69 0 01-.69-.69V7.587a.69.69 0 01.69-.69h15.862a.69.69 0 01.69.69v8.966a.69.69 0 01-.69.69zM16.885 33.103H1.023a.69.69 0 01-.69-.69v-8.965a.69.69 0 01.69-.69h15.862a.69.69 0 01.69.69v8.966a.69.69 0 01-.69.69z" fill="#FF4B55"/><path d="M19.937 21.966s.412.151.359.669l.166-.004s-.105-.597-.192-.669c-.087-.072-.333.005-.333.005z" fill="#64B496"/><path d="M20.35 21.887c-.174 0-.48 0-.801-.088.072-.074.17-.224.17-.486 0-.41-.282-.148-.282-.148s-.186.156-.073.574a1.62 1.62 0 01-.322-.165c.064-.08.193-.27.267-.569 0 0-.47-.093-.599.262a1.62 1.62 0 01-.203-.337c.121.001.29-.079.29-.54 0 0-.307.001-.39.268a2.62 2.62 0 01-.075-.357c.123.035.44.06.44-.628 0 0-.38 0-.469.338a4.048 4.048 0 01-.006-.267.743.743 0 00.414-.747s-.175.04-.336.175a.6.6 0 00-.236-.611s-.233.413.108.749a.69.69 0 00-.077.142.733.733 0 00-.398-.291s-.09.553.426.785c.012.323.063.609.15.857-.148-.13-.268-.31-.268-.31 0-.615-.504-.63-.504-.63-.095.701.424.73.424.73l.285.31c-.615-.102-.615.41-.615.41.41.103.615-.102.615-.102l.221.114c-.393.011-.529.398-.529.398a1.87 1.87 0 00.979-.083c.498.348 1.111.349 1.395.349v-.102z" fill="#64B496"/><path d="M20.316 21.887c.174 0 .48 0 .801-.088-.072-.074-.17-.224-.17-.486 0-.41.282-.148.282-.148s.186.156.073.574c.113-.043.221-.098.322-.165a1.502 1.502 0 01-.268-.569s.471-.093.6.262c.081-.104.15-.217.203-.337-.121.001-.29-.079-.29-.54 0 0 .307.001.39.268.032-.112.056-.231.075-.357-.123.035-.44.06-.44-.628 0 0 .38 0 .469.338.005-.086.006-.175.006-.267a.743.743 0 01-.414-.747s.176.04.337.175a.6.6 0 01.235-.611s.234.413-.108.749a.69.69 0 01.077.142.732.732 0 01.398-.291s.091.553-.426.785a2.931 2.931 0 01-.15.857c.149-.13.268-.31.268-.31 0-.615.505-.63.505-.63.094.701-.425.73-.425.73l-.285.31c.615-.102.615.41.615.41-.41.103-.615-.102-.615-.102l-.221.114c.393.011.529.398.529.398a1.87 1.87 0 01-.979-.083c-.498.348-1.111.349-1.394.349v-.102z" fill="#64B496"/><path d="M18.604 17.419a3.512 3.512 0 00-.934.872l.33.243c.225-.305.505-.566.824-.77l-.22-.345z" fill="#41479B"/><path d="M20.334 20.083h1.435v.82a.408.408 0 01-.41.41h-.615a.51.51 0 00-.41.208v-1.438z" fill="#FF6B71"/><path d="M20.642 19.16v-1.127h1.538l-.41.41v1.128h-1.128v-.41z" fill="#5F64B9"/><path d="M21.257 19.57h.512v.513h-.512v-.513z" fill="#F5F5F5"/><path d="M20.334 20.083H18.9v.82a.41.41 0 00.41.41h.614a.51.51 0 01.41.208v-1.438z" fill="#FF6B71"/><path d="M20.078 21.338c.102.032.19.095.254.18h.005a.515.515 0 01.254-.18v-.845h-.513v.845z" fill="#F5F5F5"/><path d="M20.027 19.16v-1.127h-1.538l.41.41v1.128h1.128v-.41z" fill="#5F64B9"/><path d="M18.9 19.57h.512v.513H18.9v-.513z" fill="#F5F5F5"/><path d="M19.412 18.546v.307l.308.205v-.205l-.308-.307z" fill="#41479B"/><path d="M19.72 18.853v.308l.41.205v-.103l-.41-.41z" fill="#F5F5F5"/><path d="M21.257 18.546v.307l-.308.205v-.205l.308-.307z" fill="#41479B"/><path d="M20.95 18.853v.308l-.41.205v-.103l.41-.41z" fill="#F5F5F5"/><path d="M20.953 20.8h-1.237a.51.51 0 01-.509-.512v-1.585l1.135.765 1.12-.765v1.585a.51.51 0 01-.509.513z" fill="#FF4B55"/><path d="M19.617 18.956l-.41-.308v1.128l.41.205v-1.025zm1.435 0l.41-.308v1.128l-.41.205v-1.025zm-1.333 1.025h1.23v.513h-1.23v-.513z" fill="#41479B"/><path d="M19.72 19.058l.614.308.615-.308v.923h-1.23v-.923z" fill="#FF4B55"/><path d="M20.796 19.155v1.03a.154.154 0 01-.154.155h-.615a.154.154 0 01-.154-.154v-1.027l-.307-.206v1.233a.462.462 0 00.461.461h.615a.461.461 0 00.461-.461v-1.24l-.307.21z" fill="#F5F5F5"/><path d="M20.903 19.871a2.297 2.297 0 00-.569.103 2.295 2.295 0 00-.568-.103c-.289-.026-.46-.051-.558-.225v.296c.15.098.341.116.54.133.178.016.362.033.55.104l.037.014.036-.014c.188-.071.372-.087.55-.104.2-.017.39-.035.541-.133v-.297c-.098.175-.27.2-.559.226z" fill="#F5F5F5"/><path d="M20.54 18.904h-.154v-.153h-.103v.153h-.154v.103h.154v.461h.103v-.461h.153v-.103z" fill="#FFE15A"/><path d="M19.324 18.496l.056-.057.901.901-.056.056-.9-.9z" fill="#464655"/><path d="M19.183 18.298l.113.226.112-.113-.225-.113z" fill="#FFE15A"/><path d="M19.523 18.34l.064-.046.75 1.03-.064.046-.75-1.03z" fill="#464655"/><path d="M19.414 18.123l.076.24.129-.093-.205-.146z" fill="#FFE15A"/><path d="M19.156 18.693l.045-.066 1.045.73-.046.065-1.044-.73z" fill="#464655"/><path d="M18.983 18.524l.15.202.09-.13-.24-.072z" fill="#FFE15A"/><path d="M20.444 19.395l-.056-.056.9-.9.057.056-.901.9z" fill="#464655"/><path d="M21.485 18.298l-.112.226-.113-.113.225-.113z" fill="#FFE15A"/><path d="M20.396 19.37l-.064-.048.75-1.03.064.047-.75 1.03z" fill="#464655"/><path d="M21.255 18.123l-.076.24-.13-.093.206-.146z" fill="#FFE15A"/><path d="M20.47 19.423l-.046-.065 1.044-.73.046.066-1.044.73z" fill="#464655"/><path d="M21.686 18.524l-.15.202-.091-.13.24-.072z" fill="#FFE15A"/><path d="M20.282 21.284s-.396-.426-.319-.817c.062-.314.25-.66.396-.745 0 0 .208-.012.156.168-.052.18-.116.227-.097.404.032.308.081.673-.136.99z" fill="#F5F5F5"/><path d="M20.403 19.725c-.025-.004-.044-.002-.044-.002-.147.084-.334.43-.396.745-.035.177.028.362.107.51-.05-.644.138-.872.333-1.253z" fill="#41479B"/><path d="M20.418 20.295c-.019-.178.044-.225.097-.405.036-.126-.055-.158-.112-.165 0 0-.133.304-.141.508-.008.18.038.91.02 1.051.217-.317.168-.682.136-.99z" fill="#FF4B55"/><path d="M20.149 19.877a.36.36 0 01.312-.097l-.161-.52a.361.361 0 00-.313.096l.162.52z" fill="#F5F0F0"/><path d="M20.461 19.78a.359.359 0 01.313-.097l-.162-.52a.36.36 0 00-.312.096l.161.52z" fill="#F5F5F5"/><path d="M19.866 17.528a3.106 3.106 0 00-1.591.396l-.2-.358a3.518 3.518 0 011.8-.448l-.009.41z" fill="#5F64B9"/><path d="M22.065 17.419c.362.23.679.526.934.872l-.33.243a3.106 3.106 0 00-.824-.77l.22-.345z" fill="#41479B"/><path d="M20.803 17.528a3.107 3.107 0 011.591.396l.2-.358a3.518 3.518 0 00-1.8-.448l.009.41z" fill="#5F64B9"/><path d="M21.154 17.418a3.106 3.106 0 00-1.64 0l-.108-.395a3.52 3.52 0 011.857 0l-.109.395z" fill="#41479B"/><path d="M18.96 22.012a7.44 7.44 0 00-1.29.468l.174.37c.4-.188.818-.338 1.247-.448l-.13-.39zm2.748 0A7.44 7.44 0 0123 22.48l-.175.37a7.025 7.025 0 00-1.247-.448l.13-.39z" fill="#FF6B71"/><path d="M21.983 22.33a7.022 7.022 0 00-3.28 0l-.095-.4a7.435 7.435 0 013.471 0l-.096.4z" fill="#FF4B55"/><path d="M20.334 22.44l-.282.071a.103.103 0 01-.128-.099v-.147c0-.067.063-.116.128-.1l.282.07v.206zm0-.204l.283-.071a.103.103 0 01.127.1v.147a.102.102 0 01-.127.1l-.283-.072v-.204z" fill="#FF4B55"/><path d="M20.357 22.44h-.044a.082.082 0 01-.057-.023.082.082 0 01-.024-.057v-.044a.082.082 0 01.024-.057.082.082 0 01.056-.023h.044a.082.082 0 01.057.023.078.078 0 01.024.057v.044a.08.08 0 01-.08.08z" fill="#FF6B71"/></g><defs><clipPath id="clip0_1_1115"><path fill="#fff" transform="translate(.333)" d="M0 0h40v40H0z"/></clipPath></defs></svg>