<svg width="41" height="40" fill="none" xmlns="http://www.w3.org/2000/svg"><g clip-path="url(#clip0_1_847)"><path d="M40.667 15.632h-40V7.586a.69.69 0 01.69-.69h38.62a.69.69 0 01.69.69v8.046z" fill="#FF4B55"/><path d="M39.977 33.103H1.357a.69.69 0 01-.69-.69v-8.045h40v8.046a.69.69 0 01-.69.69z" fill="#464655"/><path d="M.667 15.632h40v8.735h-40v-8.735z" fill="#F5F5F5"/><path d="M22.869 18.638a.501.501 0 00-.66-.475l-.61.203-.148-.894a1.098 1.098 0 00-1.086-.92h-.57l-.597.734h.79l-.22 1.091-.644-.214a.501.501 0 00-.66.475v3.71l.888-.888-.418 1.254h-.47v.734h4.405v-.734h-.47l-.418-1.254.888.887v-3.709zm-2.57 4.076h-.591l.407-1.086.185.236v.85zm.735 0v-.85l.184-.236.407 1.086h-.591zm-.367-1.33s-1.136-.769-1.09-2.202c0 0 .7-.115 1.09-.734.39.619 1.09.734 1.09.734.045 1.433-1.09 2.202-1.09 2.202z" fill="#F0C727"/></g><defs><clipPath id="clip0_1_847"><path fill="#fff" transform="translate(.667)" d="M0 0h40v40H0z"/></clipPath></defs></svg>