<svg width="41" height="40" fill="none" xmlns="http://www.w3.org/2000/svg"><g clip-path="url(#clip0_1_595)"><path d="M.333 15.862h40v8.275h-40v-8.275z" fill="#FF4B55"/><path d="M1.023 6.896h38.62a.69.69 0 01.69.69v3.793h-40V7.586a.69.69 0 01.69-.69z" fill="#41479B"/><path d="M.333 11.38h40v4.482h-40V11.38z" fill="#F5F5F5"/><path d="M39.644 33.103H1.024a.69.69 0 01-.69-.69v-3.792h40v3.793a.69.69 0 01-.69.69z" fill="#41479B"/><path d="M.333 24.137h40v4.483h-40v-4.483zm10.812-.689c1.782 0 3.226-1.544 3.226-3.448 0-1.905-1.444-3.448-3.226-3.448-1.781 0-3.226 1.543-3.226 3.448 0 1.904 1.445 3.448 3.226 3.448z" fill="#F5F5F5"/><path d="M9.476 18.666h3.337v1.668H9.476v-1.668z" fill="#3CC8FF"/><path d="M9.922 19.614l.038.368.15-.338-.078.361.247-.275-.185.32.32-.185-.275.247.361-.078-.338.15.368.038-.368.038.338.15-.361-.077.275.247-.32-.186.185.32-.247-.275.078.362-.15-.338-.038.368-.038-.368-.15.338.077-.362-.247.276.186-.32-.32.185.275-.247-.362.077.338-.15-.368-.038.368-.038-.338-.15.362.078-.276-.247.32.185-.185-.32.247.275-.077-.361.15.338.038-.368z" fill="#FFE15A"/><path d="M11.813 22.67h-1.335l-1.224-1.002v-1.446h3.894v1.446l-1.335 1.002z" fill="#41479B"/><path d="M12.48 19.777a.056.056 0 10-.111 0c0 .194-.112.46-.25.652a1.509 1.509 0 01-.29-.7.127.127 0 00-.067-.092.126.126 0 00-.113 0 .127.127 0 00-.068.095c-.085.545-.342.777-.509.872-.25-.24-.331-.63-.358-.861a.129.129 0 00-.068-.1.129.129 0 00-.16.03.13.13 0 00-.025.046 1.674 1.674 0 01-1.318 1.17v.335h3.893v-.556c-.445-.112-.556-.89-.556-.89z" fill="#73AF00"/><path d="M13.036 18.776c-.445-.222-.445-.445-.445-.445s-.556-.222-1-.222c0 0 .11-.223-.112-.223h-.667c-.223 0-.111.223-.111.223-.445 0-1.001.222-1.001.222s0 .223-.445.445c-.445.223-.445.723-.445.723a.167.167 0 10.333 0 .164.164 0 00-.01-.053l.01-.002 1.113-.779h1.78l1.112.779.01.002a.163.163 0 00.039.171.166.166 0 00.284-.118s0-.5-.445-.723z" fill="#F0AA00"/><path d="M13.37 20.111c-.111 0-.445 0-.445-.333 0-.334.445-.334.445-.334l-.667-.223c-.223.779.222.779.222 1.78 0 .897-1.001 1.446-1.335 1.446-.333 0-.445.223-.445.223s-.11-.223-.445-.223c-.333 0-1.334-.549-1.334-1.446 0-1 .445-1 .222-1.78l-.667.223s.445 0 .445.334c0 .333-.334.333-.445.333-.112 0-.556 0-.556.556 0 .557.556 1.224 1.334 1.669.779.445.445.89 1.446.89s.668-.445 1.446-.89c.779-.445 1.335-1.112 1.335-1.669 0-.556-.445-.556-.556-.556z" fill="#F0AA00"/><path d="M10.923 18.37l-.27-.121a.222.222 0 00-.141-.014c-.174.04-.604.172-.924.541l.334.111 1-.517zm.445 0l.269-.121a.222.222 0 01.142-.014c.173.04.603.172.924.541l-.334.111-1.001-.517z" fill="#73AF00"/><path d="M11.185 18.443l.202-.203a.028.028 0 00-.039-.04l-.203.203-.202-.202a.028.028 0 00-.04.039l.203.203-.203.202a.028.028 0 10.04.04l.203-.203.202.203a.028.028 0 00.04-.04l-.203-.202z" fill="#73AF00"/><path d="M13.37 19.444c0-.19-.179-.271-.334-.307v-.088c-.209-.02-.326-.098-.529-.237a5.957 5.957 0 00-.274-.178c-.391-.238-.692-.272-.865-.264v.184h-.445v-.184c-.174-.008-.474.026-.865.264a5.989 5.989 0 00-.274.178c-.203.139-.32.217-.53.237v.088c-.154.036-.333.117-.333.307l.333-.111v.05c.316-.023.497-.144.718-.295.075-.05.16-.109.259-.169.254-.154.451-.202.58-.213v.182h.668v-.182c.13.01.327.059.58.213.089.054.175.11.26.17.221.15.402.271.717.294v-.05l.334.11z" fill="#F5F5F5"/><path d="M12.48 17.69v-.137h-.31c.054-.047.088-.102.088-.167 0-.308-.7-.39-1.113-.39-.413 0-1.112.082-1.112.39 0 .066.033.12.087.167h-.31v.137a1.678 1.678 0 00-.506.215l.123.185c.003-.002.31-.204.606-.204v-.11h2.225v.11c.296 0 .602.202.605.204l.124-.185a1.676 1.676 0 00-.507-.215zm-.89-.168v-.085a.084.084 0 00-.104-.08l-.34.085-.342-.086a.082.082 0 00-.071.015.084.084 0 00-.033.066v.085c-.25-.037-.397-.098-.438-.136.06-.057.355-.167.883-.167s.823.11.883.167c-.04.038-.188.1-.438.136z" fill="#3CC8FF"/><path d="M11.16 18.93l.027.084h.09c.011 0 .016.016.007.022l-.072.053.027.085v.008a.012.012 0 01-.011.008c-.003 0-.006 0-.008-.002l-.072-.052-.073.052c-.009.006-.021-.003-.018-.014l.027-.085-.072-.053c-.01-.006-.004-.021.007-.021l.09-.001.027-.084a.01.01 0 01.005-.006.012.012 0 01.014 0 .011.011 0 01.004.006zm-.437.028l.037.081.089-.008a.012.012 0 01.012.007.012.012 0 01-.003.013l-.066.06.036.082a.011.011 0 010 .008.012.012 0 01-.01.01.01.01 0 01-.007-.003l-.077-.043-.067.059a.012.012 0 01-.02-.012l.018-.087-.077-.045a.012.012 0 01-.002-.02.012.012 0 01.007-.002l.088-.01.02-.087a.01.01 0 01.003-.007.012.012 0 01.007-.003c.002 0 .005 0 .007.002a.011.011 0 01.005.005zm-.448.12l.054.07.085-.027h.007c.003 0 .005.002.006.004a.012.012 0 01.002.007c0 .003 0 .005-.002.007l-.05.073.052.072a.012.012 0 01.002.007c0 .003 0 .005-.002.007a.012.012 0 01-.006.005h-.008l-.085-.027-.052.073c-.007.009-.022.004-.022-.007l-.001-.09-.085-.027c-.011-.003-.011-.019 0-.022l.084-.03v-.088c0-.012.014-.017.021-.008zm-.448.189l.062.063.08-.039a.012.012 0 01.008 0l.006.003a.012.012 0 01.002.014l-.04.079.06.064a.012.012 0 01.002.014.012.012 0 01-.013.006l-.087-.014-.042.078a.011.011 0 01-.005.005.011.011 0 01-.008.001.012.012 0 01-.006-.003.012.012 0 01-.004-.007l-.013-.088-.087-.016c-.012-.002-.014-.017-.004-.022l.08-.04-.012-.088.001-.008a.012.012 0 01.006-.005.012.012 0 01.007 0c.003 0 .005 0 .007.003zm1.746-.309l-.037.081-.089-.008-.007.001a.013.013 0 00-.005.006.012.012 0 00.003.013l.065.06-.035.082a.012.012 0 00-.001.008c0 .002.002.004.004.006a.011.011 0 00.006.003c.003 0 .005 0 .008-.002l.077-.043.067.059c.008.007.022 0 .02-.012l-.018-.087.077-.045a.012.012 0 00.004-.006.011.011 0 00.001-.007.012.012 0 00-.003-.006.012.012 0 00-.007-.003l-.089-.01-.019-.087a.012.012 0 00-.022-.003zm.447.12l-.053.07-.085-.027h-.007a.011.011 0 00-.006.004.012.012 0 00-.003.007l.002.007.052.073-.053.072a.013.013 0 00-.002.007c0 .003 0 .005.002.007a.011.011 0 00.006.005h.007l.085-.027.053.073c.006.009.021.004.021-.007l.002-.09.085-.027c.01-.003.01-.019 0-.022l-.084-.03v-.088c0-.012-.015-.017-.022-.008zm.45.189l-.063.063-.08-.039a.012.012 0 00-.008 0 .012.012 0 00-.01.01c0 .002 0 .005.002.007l.04.079-.061.064a.012.012 0 00-.002.014.013.013 0 00.005.005.012.012 0 00.008.001l.088-.014.042.078c.005.01.02.008.022-.004l.014-.088.087-.016c.012-.002.014-.017.003-.022l-.08-.04.013-.088a.012.012 0 00-.02-.01z" fill="#F5F5F5"/><path d="M10.377 21.599l.567.379h.684l.317-.271-.244.097h-.806l-.518-.205z" fill="#8C5A28"/><path d="M10.763 21.11l-.055.552-.249-.095s.115-.266.304-.457z" fill="#F5F5F5"/><path d="M11.254 20.891h.037v.94h-.037v-.94zm.34.08h.037v.86h-.037v-.86zm-.679 0h.037v.86h-.037v-.86z" fill="#8C5A28"/><path d="M11.385 21.741h-.225a.042.042 0 01-.042-.042v-.114c0-.023.019-.042.042-.042h.225c.024 0 .043.02.043.043v.113a.042.042 0 01-.013.03.042.042 0 01-.03.012zm0-.264h-.225a.042.042 0 01-.042-.042v-.114c0-.023.019-.042.042-.042h.225c.024 0 .043.019.043.042v.114a.042.042 0 01-.043.042zm0-.243h-.225a.042.042 0 01-.042-.043v-.113c0-.023.019-.042.042-.042h.225c.024 0 .043.019.043.042v.114a.042.042 0 01-.013.03.042.042 0 01-.03.012zm.32.507h-.184a.042.042 0 01-.042-.042v-.114c0-.023.02-.042.043-.042h.183c.023 0 .042.02.042.043v.113a.042.042 0 01-.042.042zm0-.243h-.184a.042.042 0 01-.042-.042v-.083c0-.023.02-.042.043-.042h.183c.023 0 .042.019.042.042v.083a.042.042 0 01-.042.042zm0-.241h-.184a.042.042 0 01-.042-.042v-.056c0-.023.02-.042.043-.042h.183c.023 0 .042.019.042.042v.056a.042.042 0 01-.042.042zm-.68.484h-.183a.042.042 0 01-.042-.042v-.114c0-.023.018-.042.042-.042h.183c.023 0 .042.02.042.043v.113a.042.042 0 01-.042.042zm0-.243h-.183a.042.042 0 01-.042-.042v-.083c0-.023.018-.042.042-.042h.183c.023 0 .042.019.042.042v.083a.042.042 0 01-.042.042zm0-.241h-.183a.042.042 0 01-.042-.042v-.056c0-.023.018-.042.042-.042h.183c.023 0 .042.019.042.042v.056a.042.042 0 01-.042.042zm-.073-.286v.111l.163-.057-.163-.054zm.679 0v.111l.163-.057-.163-.054zm-.34-.08v.111l.163-.056-.163-.055z" fill="#F5F5F5"/><path d="M10.856 20.14l.197.132h.238l.11-.094-.085.034h-.28l-.18-.071z" fill="#8C5A28"/><path d="M10.99 19.97l-.019.192-.086-.033s.04-.092.105-.158z" fill="#F5F5F5"/><path d="M11.16 19.895h.013v.326h-.012v-.326zm.119.028h.012v.298h-.012v-.298zm-.236 0h.013v.298h-.013v-.298z" fill="#8C5A28"/><path d="M11.206 20.19h-.078a.015.015 0 01-.01-.004.014.014 0 01-.005-.01v-.04c0-.008.007-.015.015-.015h.078c.008 0 .015.007.015.015v.04l-.001.005a.014.014 0 01-.003.005.018.018 0 01-.005.003.016.016 0 01-.006.001zm0-.091h-.078a.015.015 0 01-.01-.005.014.014 0 01-.005-.01v-.04c0-.008.007-.015.015-.015h.078c.008 0 .015.007.015.015v.04a.015.015 0 01-.015.015zm0-.085h-.078a.015.015 0 01-.015-.015v-.04c0-.007.007-.014.015-.014h.078c.008 0 .015.007.015.015V20l-.001.005a.014.014 0 01-.003.005.014.014 0 01-.005.003.014.014 0 01-.006 0zm.111.176h-.063a.015.015 0 01-.01-.004.014.014 0 01-.005-.01v-.04c0-.008.007-.015.015-.015h.063c.009 0 .015.007.015.015v.04a.015.015 0 01-.015.014zm0-.084h-.063a.015.015 0 01-.015-.015v-.029c0-.008.007-.014.015-.014h.063c.009 0 .015.006.015.014v.029a.015.015 0 01-.004.01.015.015 0 01-.01.005zm0-.084h-.063a.015.015 0 01-.01-.004.015.015 0 01-.005-.01v-.02c0-.008.007-.015.015-.015h.063c.009 0 .015.007.015.015v.02a.015.015 0 01-.015.014zm-.236.168h-.063a.015.015 0 01-.015-.015v-.039c0-.008.006-.015.015-.015h.063c.008 0 .015.007.015.015v.04a.015.015 0 01-.015.014zm0-.084h-.063a.015.015 0 01-.01-.005.015.015 0 01-.005-.01v-.029c0-.008.006-.014.015-.014h.063c.008 0 .015.006.015.014v.029a.015.015 0 01-.015.015zm0-.084h-.063a.015.015 0 01-.01-.004.015.015 0 01-.005-.01v-.02c0-.008.006-.015.015-.015h.063c.008 0 .015.007.015.015v.02a.015.015 0 01-.004.01.015.015 0 01-.01.004zm-.025-.1v.04l.057-.02-.057-.02zm.236 0v.04l.057-.02-.057-.02zm-.118-.027v.038l.056-.02-.056-.018zm-.457-.34h-.144a.095.095 0 01-.095-.095c0-.052.043-.094.095-.094h.144a.095.095 0 01.067.161.095.095 0 01-.067.028zm1.098 0h-.095a.095.095 0 01-.095-.095.095.095 0 01.095-.094h.095a.095.095 0 010 .19zm.676.143h-.084a.054.054 0 01-.054-.055v-.009c0-.03.024-.054.054-.054h.084c.03 0 .054.025.054.055v.008c0 .03-.024.055-.054.055z" fill="#F5F5F5"/></g><defs><clipPath id="clip0_1_595"><path fill="#fff" transform="translate(.333)" d="M0 0h40v40H0z"/></clipPath></defs></svg>