<svg width="41" height="40" fill="none" xmlns="http://www.w3.org/2000/svg"><g clip-path="url(#clip0_1_1176)"><path d="M40.5 15.632H.5V7.586a.69.69 0 01.69-.69h38.62a.69.69 0 01.69.69v8.046zm-.69 17.471H1.19a.69.69 0 01-.69-.69v-8.045h40v8.046a.69.69 0 01-.69.69z" fill="#82AFFF"/><path d="M.5 15.632h40v8.735H.5v-8.735z" fill="#FFE15A"/><path d="M.754 32.937l15.847-12.58a.456.456 0 000-.715L.754 7.063a.678.678 0 00-.254.523v24.828a.68.68 0 00.254.523z" fill="#464655"/></g><defs><clipPath id="clip0_1_1176"><path fill="#fff" transform="translate(.5)" d="M0 0h40v40H0z"/></clipPath></defs></svg>