<svg width="41" height="40" fill="none" xmlns="http://www.w3.org/2000/svg"><g clip-path="url(#clip0_1_811)"><path d="M37.848 6.896H3.826A2.993 2.993 0 00.833 9.889V30.11a2.993 2.993 0 002.993 2.993h34.015a2.993 2.993 0 002.992-2.992V9.889a2.981 2.981 0 00-2.985-2.993z" fill="#FF4B55"/><path d="M21.158 12.186l1.844 5.532 5.83.047c.327 0 .46.422.194.61l-4.688 3.461 1.758 5.556c.102.313-.258.57-.523.375l-4.736-3.383-4.743 3.391c-.266.188-.617-.07-.523-.375l1.758-5.556-4.689-3.461c-.265-.196-.125-.61.196-.61l5.829-.047 1.844-5.532c.11-.32.547-.32.649-.008z" fill="#FFE15A"/></g><defs><clipPath id="clip0_1_811"><path fill="#fff" transform="translate(.833)" d="M0 0h40v40H0z"/></clipPath></defs></svg>