<svg width="41" height="40" fill="none" xmlns="http://www.w3.org/2000/svg"><g clip-path="url(#clip0_1_978)"><path d="M13.667 33.103H1.023a.69.69 0 01-.69-.69V7.586a.69.69 0 01.69-.69h12.644v26.207z" fill="#82AFFF"/><path d="M13.667 6.897h13.334v26.207H13.667V6.897z" fill="#F5F5F5"/><path d="M39.644 33.103H27V6.896h12.644a.69.69 0 01.69.69v24.827a.69.69 0 01-.69.69z" fill="#82AFFF"/><path d="M20.16 16.57l-.396.199.364.15.031-.348z" fill="#FFC855"/><path d="M20.333 23.879a3.99 3.99 0 01-3.986-3.986c0-1.366.687-2.621 1.838-3.359l.103.16a3.784 3.784 0 00-1.751 3.199 3.8 3.8 0 003.796 3.796v.19z" fill="#73AF00"/><path d="M18.052 24.128c.152.03.386-.01.627-.122.24-.112.422-.265.496-.401-.152-.031-.386.009-.627.12-.24.113-.422.266-.496.403zm1.123-.523c.03-.152-.01-.387-.121-.627-.112-.24-.266-.422-.402-.496-.031.152.009.386.121.627.112.24.266.421.402.496zm-1.917.035c.146.053.383.048.638-.028.254-.075.456-.2.55-.324-.146-.053-.384-.048-.639.027-.254.076-.456.201-.55.325zm1.187-.352c.053-.146.048-.384-.027-.638-.076-.255-.201-.457-.325-.55-.053.146-.048.383.028.638.075.254.2.456.324.55zm-1.922-.312c.134.078.369.115.633.087.264-.029.485-.116.599-.221-.134-.078-.369-.116-.633-.087-.264.028-.485.116-.599.22zm1.232-.134c.078-.134.116-.369.087-.633-.029-.264-.116-.485-.22-.599-.079.134-.116.369-.088.633.029.264.116.485.22.599zm-1.839-.784c.118.1.342.179.607.197.265.019.498-.028.629-.11-.118-.102-.343-.18-.607-.199-.265-.018-.498.028-.629.112zm1.236.086c.1-.118.179-.342.197-.607.019-.265-.027-.498-.11-.629-.101.118-.18.343-.198.607-.019.265.027.498.11.63zm-1.592-1.097c.095.123.297.247.552.32.256.074.493.078.639.024-.095-.123-.297-.247-.552-.32-.256-.075-.493-.078-.639-.024z" fill="#73AF00"/><path d="M16.75 21.391c.124-.094.247-.297.321-.552.074-.255.078-.493.024-.638-.123.094-.247.297-.321.552-.074.255-.078.493-.024.638zm-1.34-1.525c.06.143.223.315.45.452.228.137.457.201.611.187-.059-.143-.223-.315-.45-.452-.228-.137-.457-.202-.611-.187zm1.061.639c.144-.06.316-.223.453-.451.137-.227.201-.456.186-.61-.143.059-.315.223-.452.45-.137.228-.201.457-.187.61zm-.918-1.754c.027.153.152.355.345.537.194.181.404.293.558.31-.027-.152-.152-.354-.346-.536-.193-.182-.403-.293-.557-.31zm.903.848c.153-.028.355-.153.537-.346.182-.194.293-.404.31-.558-.152.028-.354.152-.536.346-.181.194-.293.404-.31.558zm-.343-2.054c-.032.152.006.386.117.628.11.241.263.423.399.498.032-.151-.007-.386-.118-.627-.11-.242-.263-.424-.398-.499zm.516 1.126c.151.032.386-.006.627-.117.242-.11.424-.263.499-.399-.152-.032-.386.007-.628.117-.241.111-.424.264-.498.4zm.153-2.02c-.071.138-.097.375-.055.637.041.262.139.479.25.587.071-.137.097-.373.055-.636-.041-.262-.14-.479-.25-.587zm.195 1.224c.137.072.373.098.636.056.262-.041.479-.14.587-.25-.137-.071-.374-.097-.636-.056-.262.042-.479.14-.587.25zm.462-1.845c-.091.126-.151.356-.149.621.003.266.068.494.16.618.092-.126.152-.355.15-.62-.003-.266-.068-.495-.161-.619zm.012 1.239c.125.09.355.151.62.149.266-.003.495-.068.619-.161-.126-.091-.356-.152-.621-.149-.266.003-.494.068-.618.16zm.319-.326c.154.013.382-.055.607-.195.226-.14.388-.315.445-.459-.155-.012-.383.056-.608.196-.226.14-.387.314-.444.458zm2.563 6.936v-.19a3.8 3.8 0 003.797-3.797c0-1.3-.655-2.496-1.751-3.198l.102-.16a3.973 3.973 0 011.839 3.358 3.99 3.99 0 01-3.987 3.987z" fill="#73AF00"/><path d="M22.615 24.128c-.152.03-.386-.01-.627-.122-.24-.112-.422-.265-.496-.401.152-.031.386.009.627.12.24.113.422.266.496.403zm-1.123-.523c-.031-.152.009-.387.121-.627s.266-.422.402-.496c.03.152-.01.386-.121.627-.112.24-.266.421-.402.496zm1.917.035c-.146.053-.383.048-.638-.028-.254-.075-.456-.2-.55-.324.146-.053.384-.048.638.027.255.076.457.201.55.325zm-1.188-.352c-.053-.146-.047-.384.028-.638.076-.255.201-.457.325-.55.053.146.047.383-.028.638-.075.254-.2.456-.325.55zm1.922-.312c-.133.078-.368.115-.632.087-.264-.029-.485-.116-.6-.221.135-.078.37-.116.633-.087.264.028.485.116.6.22zm-1.231-.134c-.078-.134-.116-.369-.087-.633.028-.264.115-.485.22-.599.079.134.116.369.088.633-.029.264-.116.485-.221.599zm1.839-.784c-.118.1-.343.179-.607.197-.265.019-.498-.028-.629-.11.118-.102.342-.18.607-.199.265-.018.498.028.629.112zm-1.236.086c-.1-.118-.18-.342-.198-.607-.018-.265.028-.498.111-.629.101.118.18.343.198.607.019.265-.028.498-.111.63zm1.591-1.097c-.094.123-.297.247-.552.32-.255.075-.492.078-.638.024.094-.123.297-.247.552-.32.255-.075.493-.078.638-.024z" fill="#73AF00"/><path d="M23.916 21.391c-.123-.094-.247-.297-.32-.552-.075-.255-.078-.493-.024-.638.123.094.247.297.32.552.075.255.078.493.024.638zm1.34-1.525c-.058.143-.223.315-.45.452-.228.137-.456.201-.61.187.059-.143.223-.315.45-.452.228-.137.456-.202.61-.187zm-1.061.639c-.143-.06-.315-.223-.452-.451-.137-.227-.201-.456-.187-.61.144.059.316.223.453.45.137.228.201.457.186.61zm.92-1.754c-.029.153-.153.355-.347.537-.194.181-.404.293-.558.31.028-.152.153-.354.346-.536.194-.182.404-.293.558-.31zm-.905.848c-.152-.028-.355-.153-.536-.346-.182-.194-.293-.404-.311-.558.152.028.355.152.537.346.181.194.292.404.31.558zm.344-2.054c.032.152-.007.386-.117.628-.11.241-.263.423-.399.498-.032-.151.007-.386.117-.627.11-.242.263-.424.4-.499zm-.516 1.126c-.152.032-.386-.006-.628-.117-.24-.11-.423-.263-.498-.399.152-.032.386.007.628.117.24.111.423.264.498.4zm-.154-2.02c.072.138.098.375.056.637-.041.262-.14.479-.25.587-.071-.137-.097-.373-.056-.636.042-.262.14-.479.25-.587zm-.194 1.224c-.137.072-.374.098-.636.056-.262-.041-.479-.14-.587-.25.137-.071.373-.097.636-.056.262.042.479.14.587.25zm-.462-1.845c.09.126.151.356.149.621-.003.266-.068.494-.161.618-.091-.126-.152-.355-.149-.62.003-.266.067-.495.16-.619zm-.012 1.24c-.126.09-.356.15-.621.148-.266-.003-.494-.068-.618-.16.126-.092.355-.152.62-.15.266.003.495.068.619.161zm-.319-.326c-.154.012-.382-.056-.608-.196-.225-.14-.387-.314-.444-.458.154-.013.382.055.608.195.225.14.387.314.444.459z" fill="#73AF00"/><path d="M18.157 22.996l-.69.69-.341-.68 1.022-1.023.34.34-.098.296a.963.963 0 01-.233.377z" fill="#966446"/><path d="M21.896 17.895l-3.748 3.748a.24.24 0 000 .34l.17.17.682-.68 2.725-3.067.341-.341-.17-.17z" fill="#B9B9B9"/><path d="M19.07 21.061a.242.242 0 00-.07.17v.241l2.725-3.066-2.655 2.655z" fill="#966446"/><path d="M22.066 18.065l-.17-.17-.17.17.17.17.17.171 1.874-2.215-1.874 1.874z" fill="#A0A0A0"/><path d="M22.7 22.996l.69.69.34-.68-1.021-1.023-.341.34.099.296a.963.963 0 00.232.377z" fill="#966446"/><path d="M18.96 17.895l3.749 3.748a.24.24 0 010 .34l-.17.17-.682-.68-2.726-3.067-.34-.341.17-.17z" fill="#B9B9B9"/><path d="M21.787 21.061c.045.045.07.107.07.17v.241l-2.726-3.066 2.655 2.655z" fill="#966446"/><path d="M18.79 18.065l.17-.17.171.17-.17.17-.17.171-1.874-2.215 1.874 1.874z" fill="#A0A0A0"/><path d="M19.03 22.854l.17.155a44.773 44.773 0 013.411-3.401s-1.42.876-3.581 3.246z" fill="#B9B9B9"/><path d="M18.55 23.55a.149.149 0 01-.009-.211l.363-.398a.149.149 0 01.22.2l-.363.399a.149.149 0 01-.21.01z" fill="#FFE15A"/><path d="M18.892 22.729l-.098.044c-.087.043-.317.173-.357.359-.019.088.008.173.076.254a.145.145 0 01.028-.047l.046-.05c-.03-.045-.047-.089-.038-.133.025-.116.18-.22.277-.27l.434.396.108-.119-.476-.434z" fill="#FFC855"/><path d="M21.825 23.042l-.17.154a45.116 45.116 0 00-3.411-3.4s1.42.876 3.581 3.246z" fill="#B9B9B9"/><path d="M22.304 23.737a.15.15 0 00.01-.21l-.363-.399a.149.149 0 00-.22.201l.363.398c.055.061.15.065.21.01z" fill="#FFE15A"/><path d="M21.962 22.916l.099.044c.087.044.317.174.357.36.019.087-.008.172-.076.253a.147.147 0 00-.028-.047l-.046-.05c.03-.044.047-.089.038-.133-.025-.116-.18-.22-.277-.27l-.434.396-.109-.119.476-.434z" fill="#FFC855"/><path d="M20.502 16.772a.285.285 0 00-.062-.307.285.285 0 10-.37.429c-.104.827.712.89 1.023 1.006.471.175 1.062.53 1.025 1.522-.036.964-.646 1.895-.646 1.895l.506-.689c-.185.783-.617 1.78-1.645 2.966 0 0 .703-.687 1.29-1.574-.432 1.015-.91 1.954-.91 1.954s.846-1.1 1.53-3.002c.83-2.306-.915-3.691-1.74-4.2z" fill="#69B469"/><path d="M19.005 20.177h.76v.38h-.76v-.38z" fill="#F4E08F"/><path d="M19.005 20.937a.38.38 0 100-.76.38.38 0 000 .76zm0-2.467a.38.38 0 100-.76.38.38 0 000 .76z" fill="#ECD077"/><path d="M21.282 18.47a.38.38 0 100-.76h-2.277a.38.38 0 11-.38.38c0 .637.533 1.407.705 2.087 0 0 .054.17.054.38s-.17.38-.38.38h2.278a.38.38 0 00.38-.38c0-.637-.533-1.408-.705-2.088h.325z" fill="#FCF0A8"/><path d="M19.384 18.09a.38.38 0 01-.38.38h2.278a.38.38 0 00.38-.38h-2.278zm0 2.467a.38.38 0 01-.38.38h2.278a.38.38 0 00.38-.38h-2.278z" fill="#F4E08F"/></g><defs><clipPath id="clip0_1_978"><path fill="#fff" transform="translate(.333)" d="M0 0h40v40H0z"/></clipPath></defs></svg>