<svg width="40" height="40" fill="none" xmlns="http://www.w3.org/2000/svg"><path d="M37.004 6.896H2.996A2.996 2.996 0 000 9.892v20.216a2.996 2.996 0 002.996 2.995h34.008A2.996 2.996 0 0040 30.108V9.892a2.996 2.996 0 00-2.996-2.996z" fill="#F5F5F5"/><path d="M.165 8.912h39.67a2.996 2.996 0 00-2.83-2.016H2.994a2.996 2.996 0 00-2.83 2.016zM0 14.96h40v2.016H0V14.96zm0-4.032h40v2.016H0v-2.016zm0 9.39a.69.69 0 00.69.69H40v-2.016H0v1.326zm0 6.738h40v2.016H0v-2.016zm39.835 4.031H.165a2.996 2.996 0 002.83 2.016h34.01a2.996 2.996 0 002.83-2.016zM0 23.024h40v2.016H0v-2.016z" fill="#FF4B55"/><path d="M.69 21.008h17.24a.69.69 0 00.69-.69V7.586a.69.69 0 00-.69-.69H2.996A2.996 2.996 0 000 9.892v10.426a.69.69 0 00.69.69z" fill="#41479B"/><path d="M1.937 8.48l.152.457.483.004c.062 0 .088.08.038.117l-.388.287.145.46a.065.065 0 01-.1.073l-.392-.281-.393.28a.065.065 0 01-.1-.072l.146-.46-.388-.287a.065.065 0 01.038-.117l.483-.004.152-.457c.02-.06.104-.06.124 0zm0 2.394l.152.458.483.004c.062 0 .088.08.038.117l-.388.287.145.46a.065.065 0 01-.1.073l-.392-.281-.393.28a.065.065 0 01-.1-.072l.146-.46-.388-.287a.065.065 0 01.038-.117l.483-.004.152-.458a.066.066 0 01.124 0zm0 2.395l.152.458.483.004c.062 0 .088.08.038.117l-.388.287.145.46a.065.065 0 01-.1.072l-.392-.28-.393.28a.065.065 0 01-.1-.072l.146-.46-.388-.287a.065.065 0 01.038-.117l.483-.004.152-.458a.066.066 0 01.124 0zm0 2.395l.152.458.483.004c.062 0 .088.08.038.117l-.388.287.145.46a.065.065 0 01-.1.072l-.392-.28-.393.28a.065.065 0 01-.1-.072l.146-.46-.388-.287a.065.065 0 01.038-.117l.483-.004.152-.458c.02-.06.104-.06.124 0zm0 2.395l.152.458.483.003c.062.001.088.08.038.118l-.388.286.145.46a.065.065 0 01-.1.073l-.392-.28-.393.28a.065.065 0 01-.1-.072l.146-.46-.388-.287a.065.065 0 01.038-.118l.483-.003.152-.458c.02-.06.104-.06.124 0zm1.858-8.405l.153.457.483.004c.062 0 .088.08.038.117l-.388.287.145.46a.065.065 0 01-.1.073l-.392-.28-.393.28a.065.065 0 01-.1-.073l.146-.46-.388-.287a.065.065 0 01.038-.117l.483-.004.152-.457c.02-.06.104-.06.123 0zm0 2.395l.153.457.483.004c.062 0 .088.08.038.117l-.388.287.145.46a.065.065 0 01-.1.073l-.392-.28-.393.28a.065.065 0 01-.1-.073l.146-.46-.388-.287a.065.065 0 01.038-.117l.483-.004.152-.457c.02-.06.104-.06.123 0zm0 2.394l.153.458.483.004c.062 0 .088.08.038.117l-.388.287.145.46a.065.065 0 01-.1.073l-.392-.281-.393.28a.065.065 0 01-.1-.072l.146-.46-.388-.287a.065.065 0 01.038-.117l.483-.004.152-.458c.02-.059.104-.059.123 0zm0 2.395l.153.458.483.004c.062 0 .088.08.038.117l-.388.287.145.46a.065.065 0 01-.1.072l-.392-.28-.393.28a.065.065 0 01-.1-.072l.146-.46-.388-.287a.065.065 0 01.038-.117l.483-.004.152-.458c.02-.059.104-.059.123 0zm1.86-8.358l.152.457.483.004c.062 0 .088.08.038.117l-.389.287.146.46a.065.065 0 01-.1.073l-.392-.281-.393.28a.065.065 0 01-.1-.072l.146-.46-.388-.287a.065.065 0 01.038-.117l.482-.004.153-.457c.02-.06.104-.06.123 0zm0 2.394l.152.458.483.004c.062 0 .088.08.038.117l-.389.287.146.46a.065.065 0 01-.1.073l-.392-.281-.393.28a.065.065 0 01-.1-.072l.146-.46-.388-.287a.065.065 0 01.038-.117l.482-.004.153-.458c.02-.059.104-.059.123 0zm0 2.395l.152.458.483.004c.062 0 .088.08.038.117l-.389.287.146.46a.065.065 0 01-.1.072l-.392-.28-.393.28a.065.065 0 01-.1-.072l.146-.46-.388-.287a.065.065 0 01.038-.117l.482-.004.153-.458c.02-.059.104-.059.123 0zm0 2.395l.152.458.483.004c.062 0 .088.08.038.117l-.389.287.146.46a.065.065 0 01-.1.072l-.392-.28-.393.28a.065.065 0 01-.1-.072l.146-.46-.388-.287a.065.065 0 01.038-.117l.482-.004.153-.458c.02-.06.104-.06.123 0zm0 2.395l.152.458.483.003c.062.001.088.08.038.118l-.389.286.146.46a.065.065 0 01-.1.073l-.392-.28-.393.28a.065.065 0 01-.1-.072l.146-.46-.388-.287a.065.065 0 01.038-.118l.482-.003.153-.458c.02-.06.104-.06.123 0zm1.858-8.405l.153.457.482.004c.063 0 .089.08.039.117l-.389.287.146.46a.065.065 0 01-.1.073l-.392-.28-.393.28a.065.065 0 01-.1-.073l.146-.46-.388-.287a.065.065 0 01.038-.117l.482-.004.153-.457c.02-.06.103-.06.123 0zm0 2.395l.153.457.482.004c.063 0 .089.08.039.117l-.389.287.146.46a.065.065 0 01-.1.073l-.392-.28-.393.28a.065.065 0 01-.1-.073l.146-.46-.388-.287a.065.065 0 01.038-.117l.482-.004.153-.457c.02-.06.103-.06.123 0zm0 2.394l.153.458.482.004c.063 0 .089.08.039.117l-.389.287.146.46a.065.065 0 01-.1.073l-.392-.281-.393.28a.065.065 0 01-.1-.072l.146-.46-.388-.287a.065.065 0 01.038-.117l.482-.004.153-.458a.065.065 0 01.123 0zm0 2.395l.153.458.482.004c.063 0 .089.08.039.117l-.389.287.146.46a.065.065 0 01-.1.072l-.392-.28-.393.28a.065.065 0 01-.1-.072l.146-.46-.388-.287a.065.065 0 01.038-.117l.482-.004.153-.458a.065.065 0 01.123 0zM9.372 8.48l.153.457.482.004c.063 0 .089.08.038.117l-.388.287.146.46a.065.065 0 01-.1.073l-.393-.281-.392.28a.065.065 0 01-.1-.072l.145-.46-.388-.287a.065.065 0 01.038-.117l.483-.004.153-.457c.02-.06.103-.06.123 0zm0 2.394l.153.458.482.004c.063 0 .089.08.038.117l-.388.287.146.46a.065.065 0 01-.1.073l-.393-.281-.392.28a.065.065 0 01-.1-.072l.145-.46-.388-.287a.065.065 0 01.038-.117l.483-.004.153-.458a.065.065 0 01.123 0zm0 2.395l.153.458.482.004c.063 0 .089.08.038.117l-.388.287.146.46a.065.065 0 01-.1.072l-.393-.28-.392.28a.065.065 0 01-.1-.072l.145-.46-.388-.287a.065.065 0 01.038-.117l.483-.004.153-.458a.065.065 0 01.123 0zm0 2.395l.153.458.482.004c.063 0 .089.08.038.117l-.388.287.146.46a.065.065 0 01-.1.072l-.393-.28-.392.28a.065.065 0 01-.1-.072l.145-.46-.388-.287a.065.065 0 01.038-.117l.483-.004.153-.458c.02-.06.103-.06.123 0zm0 2.395l.153.458.482.003c.063.001.089.08.038.118l-.388.286.146.46a.065.065 0 01-.1.073l-.393-.28-.392.28a.065.065 0 01-.1-.072l.145-.46-.388-.287a.065.065 0 01.038-.118l.483-.003.153-.458c.02-.06.103-.06.123 0zm1.859-8.405l.152.457.483.004c.063 0 .088.08.038.117l-.388.287.146.46a.065.065 0 01-.1.073l-.393-.28-.392.28a.065.065 0 01-.1-.073l.145-.46-.388-.287a.065.065 0 01.038-.117l.483-.004.153-.457c.02-.06.103-.06.123 0zm0 2.395l.152.457.483.004c.063 0 .088.08.038.117l-.388.287.146.46a.065.065 0 01-.1.073l-.393-.28-.392.28a.065.065 0 01-.1-.073l.145-.46-.388-.287a.065.065 0 01.038-.117l.483-.004.153-.457c.02-.06.103-.06.123 0zm0 2.394l.152.458.483.004c.063 0 .088.08.038.117l-.388.287.146.46a.065.065 0 01-.1.073l-.393-.281-.392.28a.065.065 0 01-.1-.072l.145-.46-.388-.287a.065.065 0 01.038-.117l.483-.004.153-.458a.065.065 0 01.123 0zm0 2.395l.152.458.483.004c.063 0 .088.08.038.117l-.388.287.146.46a.065.065 0 01-.1.072l-.393-.28-.392.28a.065.065 0 01-.1-.072l.145-.46-.388-.287a.065.065 0 01.038-.117l.483-.004.153-.458a.065.065 0 01.123 0zM13.09 8.48l.152.457.483.004c.063 0 .088.08.038.117l-.388.287.146.46a.065.065 0 01-.1.073l-.393-.281-.393.28a.065.065 0 01-.1-.072l.146-.46-.388-.287a.065.065 0 01.038-.117l.483-.004.152-.457c.02-.06.104-.06.124 0zm0 2.394l.152.458.483.004c.063 0 .088.08.038.117l-.388.287.146.46a.065.065 0 01-.1.073l-.393-.281-.393.28a.065.065 0 01-.1-.072l.146-.46-.388-.287a.065.065 0 01.038-.117l.483-.004.152-.458a.066.066 0 01.124 0zm0 2.395l.152.458.483.004c.063 0 .088.08.038.117l-.388.287.146.46a.065.065 0 01-.1.072l-.393-.28-.393.28a.065.065 0 01-.1-.072l.146-.46-.388-.287a.065.065 0 01.038-.117l.483-.004.152-.458a.066.066 0 01.124 0zm0 2.395l.152.458.483.004c.063 0 .088.08.038.117l-.388.287.146.46a.065.065 0 01-.1.072l-.393-.28-.393.28a.065.065 0 01-.1-.072l.146-.46-.388-.287a.065.065 0 01.038-.117l.483-.004.152-.458c.02-.06.104-.06.124 0zm0 2.395l.152.458.483.003c.063.001.088.08.038.118l-.388.286.146.46a.065.065 0 01-.1.073l-.393-.28-.393.28a.065.065 0 01-.1-.072l.146-.46-.388-.287a.065.065 0 01.038-.118l.483-.003.152-.458c.02-.06.104-.06.124 0zm1.859-8.405l.152.457.483.004c.062 0 .088.08.038.117l-.388.287.145.46a.065.065 0 01-.1.073l-.392-.28-.393.28a.065.065 0 01-.1-.073l.146-.46-.388-.287a.065.065 0 01.038-.117l.483-.004.152-.457c.02-.06.104-.06.124 0zm0 2.395l.152.457.483.004c.062 0 .088.08.038.117l-.388.287.145.46a.065.065 0 01-.1.073l-.392-.28-.393.28a.065.065 0 01-.1-.073l.146-.46-.388-.287a.065.065 0 01.038-.117l.483-.004.152-.457c.02-.06.104-.06.124 0zm0 2.394l.152.458.483.004c.062 0 .088.08.038.117l-.388.287.145.46a.065.065 0 01-.1.073l-.392-.281-.393.28a.065.065 0 01-.1-.072l.146-.46-.388-.287a.065.065 0 01.038-.117l.483-.004.152-.458a.066.066 0 01.124 0zm0 2.395l.152.458.483.004c.062 0 .088.08.038.117l-.388.287.145.46a.065.065 0 01-.1.072l-.392-.28-.393.28a.065.065 0 01-.1-.072l.146-.46-.388-.287a.065.065 0 01.038-.117l.483-.004.152-.458a.066.066 0 01.124 0zm1.859-8.358l.152.457.483.004c.062 0 .088.08.038.117l-.388.287.145.46a.065.065 0 01-.1.073l-.392-.281-.393.28a.065.065 0 01-.1-.072l.146-.46-.388-.287a.065.065 0 01.038-.117l.483-.004.152-.457c.02-.06.104-.06.123 0zm0 2.394l.152.458.483.004c.062 0 .088.08.038.117l-.388.287.145.46a.065.065 0 01-.1.073l-.392-.281-.393.28a.065.065 0 01-.1-.072l.146-.46-.388-.287a.065.065 0 01.038-.117l.483-.004.152-.458c.02-.059.104-.059.123 0zm0 2.395l.152.458.483.004c.062 0 .088.08.038.117l-.388.287.145.46a.065.065 0 01-.1.072l-.392-.28-.393.28a.065.065 0 01-.1-.072l.146-.46-.388-.287a.065.065 0 01.038-.117l.483-.004.152-.458c.02-.059.104-.059.123 0zm0 2.395l.152.458.483.004c.062 0 .088.08.038.117l-.388.287.145.46a.065.065 0 01-.1.072l-.392-.28-.393.28a.065.065 0 01-.1-.072l.146-.46-.388-.287a.065.065 0 01.038-.117l.483-.004.152-.458c.02-.06.104-.06.123 0zm0 2.395l.152.458.483.003c.062.001.088.08.038.118l-.388.286.145.46a.065.065 0 01-.1.073l-.392-.28-.393.28a.065.065 0 01-.1-.072l.146-.46-.388-.287a.065.065 0 01.038-.118l.483-.003.152-.458c.02-.06.104-.06.123 0z" fill="#F5F5F5"/></svg>