<svg width="41" height="40" fill="none" xmlns="http://www.w3.org/2000/svg"><g clip-path="url(#clip0_1_824)"><path d="M17.218 33.103H1.356a.69.69 0 01-.69-.69V7.587a.69.69 0 01.69-.69h15.862v26.207z" fill="#F5F5F5"/><path d="M11.701 6.897l5.517 1.637-5.517 1.638 5.517 1.638-5.517 1.638 5.517 1.638-5.517 1.638 5.517 1.638L11.701 20l5.517 1.638-5.517 1.637 5.517 1.638-5.517 1.638 5.517 1.638-5.517 1.638 5.517 1.638-5.517 1.638h28.276a.69.69 0 00.69-.69V7.586a.69.69 0 00-.69-.69H11.701z" fill="#FF4B55"/></g><defs><clipPath id="clip0_1_824"><path fill="#fff" transform="translate(.667)" d="M0 0h40v40H0z"/></clipPath></defs></svg>