<svg width="41" height="40" fill="none" xmlns="http://www.w3.org/2000/svg"><g clip-path="url(#clip0_1_1038)"><path d="M40.833 15.632h-40V7.586a.69.69 0 01.69-.69h38.62a.69.69 0 01.69.69v8.046z" fill="#73AF00"/><path d="M40.144 33.103H1.524a.69.69 0 01-.69-.69v-8.045h40v8.046a.69.69 0 01-.69.69z" fill="#FF4B55"/><path d="M.833 15.632h40v8.735h-40v-8.735zm.109-.462h.006c.06 0 .108-.049.108-.109v-.235c0-.06.049-.108.109-.108h.455c.06 0 .109.048.109.108v.235c0 .06.048.109.108.109h.899c.06 0 .108-.049.108-.109v-.463a.108.108 0 00-.108-.109h-.453a.108.108 0 00-.108.108v.012c0 .06.048.109.108.109h.23c.06 0 .108.048.108.108v.012c0 .06-.048.109-.108.109H2.06a.108.108 0 01-.108-.109v-.24a.108.108 0 00-.109-.109H.942a.108.108 0 00-.109.108v.464a.108.108 0 00.109.109zm.449 0h.006a.11.11 0 00.109-.109v-.006a.108.108 0 00-.109-.108h-.006a.108.108 0 00-.109.108v.006a.108.108 0 00.109.109zm-.45-.91h2.69c.06 0 .109-.048.109-.108v-.012a.109.109 0 00-.109-.109H.941a.109.109 0 00-.108.109v.012c0 .06.049.108.109.108zm2.69.91H3.18a.108.108 0 01-.109-.109v-.463a.11.11 0 01.109-.109h.675a.11.11 0 00.109-.109v-.24c0-.06.048-.109.108-.109h.006a.11.11 0 01.109.109v.698c0 .06.048.109.108.109h.007c.06 0 .108-.049.108-.109v-.698a.11.11 0 01.109-.109h.006c.06 0 .108.049.108.109v.698c0 .06.049.109.109.109h.009c.06 0 .108-.049.108-.109v-.698a.11.11 0 01.109-.109h.003a.11.11 0 01.109.109v.921a.11.11 0 01-.109.109h-.899a.108.108 0 01-.108-.109v-.235a.108.108 0 00-.109-.108h-.452a.108.108 0 00-.108.108v.012c0 .06.048.109.108.109h.23c.06 0 .108.048.108.108v.006a.108.108 0 01-.109.109zm1.782 0h.009c.06 0 .108-.049.108-.109v-.235c0-.06.049-.108.109-.108h.45c.06 0 .108.048.108.108v.235c0 .06.048.109.108.109h.9a.109.109 0 00.108-.109v-.463a.108.108 0 00-.109-.109h-.452a.108.108 0 00-.109.108v.012c0 .06.049.109.109.109h.229c.06 0 .109.048.109.108v.012a.11.11 0 01-.109.109h-.452a.108.108 0 01-.109-.109v-.24a.108.108 0 00-.108-.109h-.9a.108.108 0 00-.108.108v.464a.109.109 0 00.109.109zm.446 0h.006a.11.11 0 00.109-.109v-.006a.108.108 0 00-.109-.108H5.86a.108.108 0 00-.108.108v.006a.108.108 0 00.108.109zm-.446-.91h2.686c.06 0 .109-.048.109-.108v-.012a.109.109 0 00-.109-.109H5.413a.109.109 0 00-.109.109v.012a.109.109 0 00.109.108zm2.686.91h-.455a.108.108 0 01-.108-.109v-.463c0-.06.048-.109.108-.109h.676c.06 0 .108-.049.108-.109v-.24a.11.11 0 01.109-.109h.009c.06 0 .108.049.108.109v.698c0 .06.049.109.109.109h.009c.06 0 .108-.049.108-.109v-.698a.11.11 0 01.109-.109h.003a.11.11 0 01.109.109v.698c0 .06.048.109.108.109h.01c.06 0 .108-.049.108-.109v-.698c0-.06.048-.109.108-.109h.006a.11.11 0 01.109.109v.921a.11.11 0 01-.109.109h-.904a.108.108 0 01-.108-.109v-.235a.108.108 0 00-.109-.108h-.45a.108.108 0 00-.108.108v.012c0 .06.048.109.108.109h.23c.06 0 .108.048.108.108v.006a.109.109 0 01-.109.109zm1.782 0h.006a.11.11 0 00.109-.109v-.235c0-.06.048-.108.108-.108h.453c.06 0 .108.048.108.108v.235c0 .06.049.109.109.109h.901a.11.11 0 00.109-.109v-.463a.108.108 0 00-.109-.109h-.452a.108.108 0 00-.109.108v.012c0 .06.049.109.109.109h.23c.06 0 .108.048.108.108v.012a.11.11 0 01-.109.109h-.455a.11.11 0 01-.077-.032.106.106 0 01-.031-.077v-.24a.108.108 0 00-.109-.109h-.899a.108.108 0 00-.108.108v.464a.108.108 0 00.108.109zm.447 0h.006c.06 0 .108-.049.108-.109v-.006a.108.108 0 00-.108-.108h-.006a.108.108 0 00-.109.108v.006a.108.108 0 00.109.109zm-.447-.91h2.69c.06 0 .108-.048.108-.108v-.012a.108.108 0 00-.108-.109H9.88a.109.109 0 00-.108.109v.012a.109.109 0 00.108.108zm2.69.91h-.455a.109.109 0 01-.11-.109v-.463c0-.06.05-.109.11-.109h.675c.06 0 .108-.049.108-.109v-.24a.11.11 0 01.109-.109h.006a.11.11 0 01.109.109v.698c0 .06.048.109.108.109h.01c.06 0 .108-.049.108-.109v-.698c0-.06.048-.109.108-.109h.01c.06 0 .108.049.108.109v.698c0 .06.048.109.108.109h.004c.06 0 .108-.049.108-.109v-.698c0-.06.049-.109.108-.109h.006a.11.11 0 01.109.109v.921a.11.11 0 01-.109.109h-.901a.109.109 0 01-.109-.109v-.235a.108.108 0 00-.108-.108h-.452a.108.108 0 00-.109.108v.012c0 .06.049.109.109.109h.232c.06 0 .108.048.108.108v.006a.109.109 0 01-.108.109zm1.779 0h.005a.11.11 0 00.11-.109v-.235c0-.06.048-.108.108-.108h.452c.06 0 .108.048.108.108v.235c0 .06.049.109.109.109h.901a.11.11 0 00.109-.109v-.463a.108.108 0 00-.108-.109h-.456a.108.108 0 00-.108.108v.012c0 .06.048.109.108.109h.23c.06 0 .108.048.108.108v.012c0 .06-.048.109-.108.109h-.453a.108.108 0 01-.108-.109v-.24a.108.108 0 00-.109-.109h-.898a.108.108 0 00-.109.108v.464a.108.108 0 00.109.109zm.446 0h.006c.06 0 .108-.049.108-.109v-.006a.108.108 0 00-.108-.108h-.006a.108.108 0 00-.109.108v.006a.109.109 0 00.109.109zm-.446-.91h2.686c.06 0 .109-.048.109-.108v-.012a.108.108 0 00-.109-.109H14.35a.109.109 0 00-.108.109v.012a.109.109 0 00.109.108zm2.686.91h-.455a.108.108 0 01-.109-.109v-.463a.11.11 0 01.109-.109h.681a.11.11 0 00.109-.109v-.24c0-.06.048-.109.108-.109h.006a.11.11 0 01.109.109v.698c0 .06.048.109.108.109h.003a.11.11 0 00.109-.109v-.698a.11.11 0 01.109-.109h.009c.06 0 .108.049.108.109v.698c0 .06.049.109.109.109h.006c.06 0 .108-.049.108-.109v-.698a.11.11 0 01.109-.109h.006c.06 0 .108.049.108.109v.921c0 .06-.048.109-.108.109h-.9a.108.108 0 01-.108-.109v-.235a.108.108 0 00-.108-.108h-.456a.108.108 0 00-.108.108v.012c0 .06.049.109.108.109h.23c.06 0 .108.048.108.108v.006a.11.11 0 01-.066.1.11.11 0 01-.042.009zm1.782 0h.006c.06 0 .108-.049.108-.109v-.235c0-.06.049-.108.109-.108h.452c.06 0 .109.048.109.108v.235c0 .06.048.109.108.109h.902c.06 0 .108-.049.108-.109v-.463a.108.108 0 00-.108-.109h-.455a.108.108 0 00-.109.108v.012c0 .06.049.109.109.109h.232c.06 0 .108.048.108.108v.012c0 .06-.048.109-.108.109h-.453a.108.108 0 01-.108-.109v-.24a.108.108 0 00-.109-.109h-.901a.108.108 0 00-.109.108v.464a.109.109 0 00.109.109zm.449 0h.003a.11.11 0 00.109-.109v-.006a.108.108 0 00-.109-.108h-.003a.108.108 0 00-.109.108v.006a.109.109 0 00.109.109zm-.45-.91h2.69c.06 0 .109-.048.109-.108v-.012a.108.108 0 00-.109-.109h-2.69a.109.109 0 00-.108.109v.012a.109.109 0 00.109.108zm2.69.91h-.455a.108.108 0 01-.108-.109v-.463c0-.06.048-.109.108-.109h.678a.11.11 0 00.109-.109v-.24a.11.11 0 01.109-.109h.005a.11.11 0 01.109.109v.698c0 .06.048.109.108.109h.007c.06 0 .108-.049.108-.109v-.698a.11.11 0 01.109-.109h.006c.06 0 .108.049.108.109v.698c0 .06.049.109.109.109h.006c.06 0 .108-.049.108-.109v-.698a.11.11 0 01.109-.109h.006c.06 0 .108.049.108.109v.921c0 .06-.048.109-.108.109h-.899a.108.108 0 01-.108-.109v-.235a.108.108 0 00-.109-.108h-.455a.108.108 0 00-.108.108v.012c0 .06.048.109.108.109h.232c.06 0 .109.048.109.108v.006a.11.11 0 01-.109.109zm1.78 0h.005a.11.11 0 00.109-.109v-.235c0-.06.048-.108.108-.108h.453c.06 0 .108.048.108.108v.235c0 .06.049.109.109.109h.901a.11.11 0 00.109-.109v-.463a.108.108 0 00-.109-.109h-.452a.108.108 0 00-.109.108v.012c0 .06.049.109.109.109h.226c.06 0 .109.048.109.108v.012a.11.11 0 01-.109.109h-.45a.109.109 0 01-.108-.109v-.24a.108.108 0 00-.108-.109h-.902a.108.108 0 00-.108.108v.464a.108.108 0 00.108.109zm.448 0h.003a.11.11 0 00.109-.109v-.006a.108.108 0 00-.109-.108h-.003a.108.108 0 00-.108.108v.006a.108.108 0 00.108.109zm-.449-.91h2.69c.06 0 .108-.048.108-.108v-.012a.109.109 0 00-.109-.109h-2.689a.108.108 0 00-.108.109v.012c0 .06.048.108.108.108zm2.69.91h-.453a.109.109 0 01-.108-.109v-.463c0-.06.048-.109.108-.109h.676c.06 0 .108-.049.108-.109v-.24a.11.11 0 01.109-.109h.006c.06 0 .108.049.108.109v.698c0 .06.049.109.109.109h.006c.06 0 .108-.049.108-.109v-.698a.11.11 0 01.109-.109h.006a.11.11 0 01.109.109v.698c0 .06.048.109.108.109h.006a.11.11 0 00.109-.109v-.698c0-.06.048-.109.108-.109h.006a.11.11 0 01.109.109v.921a.11.11 0 01-.109.109h-.898a.108.108 0 01-.109-.109v-.235a.108.108 0 00-.108-.108h-.456a.108.108 0 00-.108.108v.012c0 .06.048.109.108.109h.232c.06 0 .109.048.109.108v.006a.11.11 0 01-.067.1.109.109 0 01-.041.009zm1.778 0h.006a.11.11 0 00.109-.109v-.235c0-.06.049-.108.108-.108h.456c.06 0 .108.048.108.108v.235c0 .06.049.109.109.109h.899c.06 0 .108-.049.108-.109v-.463a.108.108 0 00-.108-.109h-.453a.108.108 0 00-.108.108v.012c0 .06.048.109.108.109h.232c.06 0 .109.048.109.108v.012a.11.11 0 01-.109.109h-.458a.108.108 0 01-.108-.109v-.24a.108.108 0 00-.109-.109h-.898a.108.108 0 00-.109.108v.464a.107.107 0 00.067.1.11.11 0 00.041.009zm.447 0h.009c.06 0 .108-.049.108-.109v-.006a.109.109 0 00-.108-.108h-.01a.108.108 0 00-.108.108v.006a.109.109 0 00.109.109zm-.447-.91h2.69c.06 0 .108-.048.108-.108v-.012a.108.108 0 00-.108-.109h-2.69a.109.109 0 00-.108.109v.012a.109.109 0 00.108.108zm2.69.91h-.453a.108.108 0 01-.108-.109v-.463c0-.06.049-.109.108-.109h.676c.06 0 .108-.049.108-.109v-.24a.11.11 0 01.109-.109h.006a.11.11 0 01.109.109v.698c0 .06.048.109.108.109h.006a.11.11 0 00.109-.109v-.698c0-.06.048-.109.108-.109h.006a.11.11 0 01.109.109v.698c0 .06.049.109.108.109h.01c.06 0 .108-.049.108-.109v-.698c0-.06.049-.109.108-.109h.004c.06 0 .108.049.108.109v.921c0 .06-.048.109-.108.109h-.899a.108.108 0 01-.108-.109v-.235a.108.108 0 00-.109-.108h-.45a.108.108 0 00-.108.108v.012c0 .06.048.109.108.109h.227c.06 0 .108.048.108.108v.006a.11.11 0 01-.108.109zm1.781 0h.004c.06 0 .108-.049.108-.109v-.235c0-.06.049-.108.109-.108h.452c.06 0 .109.048.109.108v.235c0 .06.048.109.108.109h.902c.06 0 .108-.049.108-.109v-.463a.109.109 0 00-.108-.109h-.45a.108.108 0 00-.108.108v.012c0 .06.048.109.108.109h.23c.06 0 .108.048.108.108v.012c0 .06-.049.109-.108.109h-.456a.109.109 0 01-.108-.109v-.24a.108.108 0 00-.109-.109h-.899a.108.108 0 00-.108.108v.464a.108.108 0 00.108.109zm.447 0h.006c.06 0 .108-.049.108-.109v-.006a.108.108 0 00-.108-.108h-.006a.108.108 0 00-.109.108v.006a.109.109 0 00.109.109zm-.447-.91h2.693c.06 0 .108-.048.108-.108v-.012a.109.109 0 00-.108-.109h-2.693a.109.109 0 00-.108.109v.012a.11.11 0 00.032.076.108.108 0 00.076.032zm2.693.91h-.458a.109.109 0 01-.109-.109v-.463a.11.11 0 01.109-.109h.675a.11.11 0 00.109-.109v-.24c0-.06.048-.109.108-.109h.01c.06 0 .108.049.108.109v.698c0 .06.048.109.108.109h.006a.11.11 0 00.109-.109v-.698c0-.06.048-.109.108-.109h.004c.06 0 .108.049.108.109v.698c0 .06.049.109.109.109h.009c.06 0 .108-.049.108-.109v-.698a.11.11 0 01.109-.109h.006c.06 0 .108.049.108.109v.921c0 .06-.048.109-.108.109h-.902a.108.108 0 01-.108-.109v-.235a.108.108 0 00-.109-.108h-.452a.108.108 0 00-.109.108v.012c0 .06.049.109.109.109h.235c.06 0 .108.048.108.108v.006a.109.109 0 01-.108.109zm1.776 0h.006c.06 0 .108-.049.108-.109v-.235c0-.06.049-.108.109-.108h.452c.06 0 .109.048.109.108v.235c0 .06.048.109.108.109h.902c.06 0 .108-.049.108-.109v-.463a.108.108 0 00-.108-.109h-.45a.108.108 0 00-.108.108v.012c0 .06.048.109.108.109h.23c.06 0 .108.048.108.108v.012c0 .06-.048.109-.108.109h-.459a.108.108 0 01-.108-.109v-.24a.108.108 0 00-.109-.109h-.898a.108.108 0 00-.109.108v.464a.109.109 0 00.109.109zm.446 0h.006a.11.11 0 00.109-.109v-.006a.108.108 0 00-.109-.108h-.006a.108.108 0 00-.108.108v.006a.109.109 0 00.108.109zm-.446-.91h2.686c.06 0 .109-.048.109-.108v-.012a.108.108 0 00-.109-.109h-2.686a.109.109 0 00-.109.109v.012a.109.109 0 00.109.108zm2.686.91h-.452a.108.108 0 01-.109-.109v-.463a.11.11 0 01.109-.109h.681a.11.11 0 00.109-.109v-.24c0-.06.048-.109.108-.109s.11.049.11.109v.698c0 .06.048.109.108.109h.012c.06 0 .108-.049.108-.109v-.698a.108.108 0 11.217 0v.698c0 .06.049.109.109.109h.006c.06 0 .108-.049.108-.109v-.698c0-.06.05-.109.11-.109h.01c.06 0 .11.049.11.109v.921a.11.11 0 01-.11.109h-.898a.109.109 0 01-.108-.109v-.235a.109.109 0 00-.109-.108h-.458a.108.108 0 00-.108.108v.012c0 .06.048.109.108.109h.23c.06 0 .108.048.108.108v.006a.109.109 0 01-.109.109z" fill="#F5F5F5"/><path d="M.942 15.862h1.794c.06 0 .108-.049.108-.108v-.241a.108.108 0 00-.108-.109H.942a.108.108 0 00-.109.109v.24c0 .06.049.109.109.109zm2.237 0H4.97c.06 0 .109-.049.109-.108v-.241a.108.108 0 00-.109-.109H3.179a.108.108 0 00-.109.109v.24c0 .06.049.109.109.109zm2.234 0h1.791c.06 0 .109-.049.109-.108v-.241a.108.108 0 00-.109-.109H5.413a.108.108 0 00-.109.109v.24a.108.108 0 00.109.109zm2.231 0h1.797c.06 0 .109-.049.109-.108v-.241a.108.108 0 00-.109-.109H7.644a.108.108 0 00-.108.109v.24c0 .06.048.109.108.109zm2.237 0h1.794c.06 0 .109-.049.109-.108v-.241a.108.108 0 00-.109-.109H9.881a.108.108 0 00-.108.109v.24a.109.109 0 00.108.109zm2.234 0h1.794c.06 0 .109-.049.109-.108v-.241a.108.108 0 00-.109-.109h-1.794a.108.108 0 00-.108.109v.24a.108.108 0 00.108.109zm2.235 0h1.793c.06 0 .109-.049.109-.108v-.241a.108.108 0 00-.108-.109H14.35a.108.108 0 00-.109.109v.24a.109.109 0 00.109.109zm2.23 0h1.798c.06 0 .108-.049.108-.108v-.241a.108.108 0 00-.108-.109H16.58a.108.108 0 00-.109.109v.24c0 .06.049.109.109.109zm2.238 0h1.794c.06 0 .108-.049.108-.108v-.241a.108.108 0 00-.108-.109h-1.794a.108.108 0 00-.109.109v.24a.109.109 0 00.109.109zm2.234 0h1.794c.06 0 .108-.049.108-.108v-.241a.108.108 0 00-.108-.109h-1.794a.108.108 0 00-.109.109v.24a.109.109 0 00.109.109zm2.234 0h1.794c.06 0 .109-.049.109-.108v-.241a.108.108 0 00-.109-.109h-1.794a.108.108 0 00-.108.109v.24c0 .06.048.109.108.109zm2.237 0h1.791c.06 0 .109-.049.109-.108v-.241a.109.109 0 00-.109-.109h-1.79a.108.108 0 00-.11.109v.24c0 .06.05.109.11.109zm2.231 0h1.794c.06 0 .109-.049.109-.108v-.241a.108.108 0 00-.108-.109h-1.795a.108.108 0 00-.108.109v.24a.109.109 0 00.108.109zm2.237 0h1.791c.06 0 .109-.049.109-.108v-.241a.108.108 0 00-.108-.109H29.99a.108.108 0 00-.108.109v.24a.109.109 0 00.108.109zm2.234 0h1.792c.06 0 .108-.049.108-.108v-.241a.108.108 0 00-.108-.109h-1.792a.108.108 0 00-.108.109v.24a.11.11 0 00.032.077.11.11 0 00.076.032zm2.235 0h1.794c.06 0 .108-.049.108-.108v-.241a.108.108 0 00-.108-.109H34.46a.108.108 0 00-.109.109v.24c0 .06.049.109.109.109zm2.234 0h1.794c.06 0 .108-.049.108-.108v-.241a.108.108 0 00-.108-.109h-1.794a.108.108 0 00-.109.109v.24a.108.108 0 00.109.109zm2.234 0h1.797c.06 0 .108-.049.108-.108v-.241a.108.108 0 00-.108-.109h-1.797a.108.108 0 00-.108.109v.24a.108.108 0 00.108.109zm1.797 8.968h-.006a.108.108 0 00-.109.109v.235c0 .06-.048.108-.108.108h-.456a.108.108 0 01-.108-.108v-.235a.108.108 0 00-.108-.109h-.9a.108.108 0 00-.108.109v.464c0 .06.049.108.109.108h.452c.06 0 .109-.048.109-.108v-.012a.108.108 0 00-.109-.109h-.23a.109.109 0 01-.108-.108v-.012a.11.11 0 01.109-.109h.452a.11.11 0 01.109.109v.24c0 .06.048.11.108.11h.902a.11.11 0 00.108-.11v-.463a.109.109 0 00-.108-.109zm-.45 0h-.005a.108.108 0 00-.109.109v.006c0 .06.048.108.109.108h.006c.06 0 .108-.048.108-.108v-.006a.108.108 0 00-.108-.109zm.45.91h-2.69a.108.108 0 00-.108.108v.012c0 .06.048.109.108.109h2.69c.06 0 .108-.049.108-.109v-.012a.108.108 0 00-.108-.108zm-2.69-.91h.453c.06 0 .108.049.108.109v.464c0 .06-.048.108-.108.108h-.676a.108.108 0 00-.108.109v.24a.11.11 0 01-.109.109h-.006a.108.108 0 01-.108-.109v-.698a.108.108 0 00-.109-.109h-.006a.109.109 0 00-.108.109v.698a.11.11 0 01-.109.109h-.006a.108.108 0 01-.108-.109v-.698a.108.108 0 00-.109-.109h-.009a.109.109 0 00-.108.109v.698a.11.11 0 01-.11.109h-.002a.109.109 0 01-.109-.109v-.921a.11.11 0 01.109-.109h.898a.11.11 0 01.109.109v.235c0 .06.048.108.108.108h.453c.06 0 .108-.048.108-.108v-.012a.108.108 0 00-.108-.109h-.23a.108.108 0 01-.108-.108v-.006a.11.11 0 01.109-.109zm-1.781 0h-.01a.108.108 0 00-.108.109v.235c0 .06-.048.108-.108.108h-.45a.108.108 0 01-.108-.108v-.235a.108.108 0 00-.109-.109h-.898a.108.108 0 00-.109.109v.464c0 .06.049.108.109.108h.452c.06 0 .108-.048.108-.108v-.012a.109.109 0 00-.108-.109h-.23a.109.109 0 01-.108-.108v-.012a.11.11 0 01.109-.109h.452a.11.11 0 01.109.109v.24c0 .06.048.11.108.11h.899a.11.11 0 00.108-.11v-.463a.109.109 0 00-.108-.109zm-.447 0h-.006a.108.108 0 00-.108.109v.006c0 .06.048.108.108.108h.006c.06 0 .109-.048.109-.108v-.006a.109.109 0 00-.109-.109zm.447.91h-2.687a.108.108 0 00-.108.108v.012c0 .06.048.109.108.109h2.687c.06 0 .108-.049.108-.109v-.012a.109.109 0 00-.108-.108zm-2.687-.91h.456c.06 0 .108.049.108.109v.464c0 .06-.048.108-.108.108h-.676a.108.108 0 00-.109.109v.24c0 .06-.048.109-.108.109h-.01a.108.108 0 01-.108-.109v-.698a.108.108 0 00-.108-.109h-.01a.109.109 0 00-.108.109v.698c0 .06-.048.109-.108.109h-.003a.108.108 0 01-.109-.109v-.698a.108.108 0 00-.108-.109h-.01a.108.108 0 00-.108.109v.698a.11.11 0 01-.109.109h-.006a.108.108 0 01-.108-.109v-.921c0-.06.048-.109.108-.109h.905c.06 0 .108.049.108.109v.235c0 .06.049.108.109.108h.45c.06 0 .108-.048.108-.108v-.012a.108.108 0 00-.109-.109h-.229a.109.109 0 01-.108-.108v-.006a.109.109 0 01.108-.109zm-1.782 0h-.006a.108.108 0 00-.108.109v.235c0 .06-.049.108-.109.108h-.452a.108.108 0 01-.109-.108v-.235a.108.108 0 00-.108-.109h-.902a.108.108 0 00-.108.109v.464c0 .06.048.108.108.108h.453c.06 0 .108-.048.108-.108v-.012a.108.108 0 00-.108-.109h-.23a.109.109 0 01-.108-.108v-.012c0-.06.048-.109.108-.109h.456c.06 0 .108.049.108.109v.24c0 .06.049.11.109.11h.898a.11.11 0 00.109-.11v-.463a.11.11 0 00-.032-.077.11.11 0 00-.077-.032zm-.446 0h-.006a.108.108 0 00-.108.109v.006c0 .06.048.108.108.108h.006c.06 0 .109-.048.109-.108v-.006a.108.108 0 00-.109-.109zm.446.91h-2.69a.108.108 0 00-.108.108v.012c0 .06.049.109.109.109h2.69c.06 0 .108-.049.108-.109v-.012a.108.108 0 00-.067-.1.108.108 0 00-.042-.008zm-2.689-.91h.455a.11.11 0 01.109.109v.464c0 .06-.049.108-.109.108h-.675a.108.108 0 00-.109.109v.24c0 .06-.048.109-.108.109h-.006a.108.108 0 01-.109-.109v-.698a.108.108 0 00-.108-.109h-.01a.109.109 0 00-.108.109v.698a.11.11 0 01-.109.109h-.008a.108.108 0 01-.109-.109v-.698a.108.108 0 00-.108-.109h-.004a.109.109 0 00-.108.109v.698a.11.11 0 01-.109.109h-.006a.109.109 0 01-.108-.109v-.921c0-.06.048-.109.108-.109h.902c.06 0 .108.049.108.109v.235c0 .06.049.108.109.108h.452c.06 0 .109-.048.109-.108v-.012a.108.108 0 00-.109-.109h-.232a.108.108 0 01-.109-.108v-.006a.108.108 0 01.109-.109zm-1.779 0h-.006a.108.108 0 00-.108.109v.235c0 .06-.049.108-.109.108h-.452a.109.109 0 01-.109-.108v-.235a.108.108 0 00-.108-.109h-.902a.108.108 0 00-.108.109v.464c0 .06.048.108.108.108h.455c.06 0 .109-.048.109-.108v-.012a.108.108 0 00-.109-.109h-.229a.109.109 0 01-.108-.108v-.012c0-.06.048-.109.108-.109h.453c.06 0 .108.049.108.109v.24c0 .06.049.11.109.11h.898a.11.11 0 00.109-.11v-.463a.109.109 0 00-.109-.109zm-.446 0h-.006a.108.108 0 00-.109.109v.006c0 .06.049.108.109.108h.006c.06 0 .108-.048.108-.108v-.006a.108.108 0 00-.108-.109zm.446.91h-2.686a.108.108 0 00-.109.108v.012c0 .06.049.109.109.109h2.686a.11.11 0 00.109-.109v-.012a.11.11 0 00-.109-.108zm-2.686-.91h.455c.06 0 .108.049.108.109v.464c0 .06-.048.108-.108.108h-.681a.108.108 0 00-.109.109v.24c0 .06-.049.109-.108.109h-.006a.109.109 0 01-.11-.109v-.698a.108.108 0 00-.108-.109h-.003a.109.109 0 00-.108.109v.698a.11.11 0 01-.109.109h-.009a.108.108 0 01-.1-.067.107.107 0 01-.008-.042v-.698a.108.108 0 00-.109-.109h-.006a.109.109 0 00-.109.109v.698c0 .06-.048.109-.108.109h-.006a.109.109 0 01-.109-.109v-.921a.11.11 0 01.109-.109h.898a.11.11 0 01.109.109v.235c0 .06.049.108.108.108h.456c.06 0 .108-.048.108-.108v-.012a.109.109 0 00-.108-.109h-.23a.109.109 0 01-.108-.108v-.006a.11.11 0 01.109-.109zm-1.782 0h-.006a.108.108 0 00-.109.109v.235c0 .06-.048.108-.108.108h-.453a.108.108 0 01-.108-.108v-.235a.108.108 0 00-.109-.109h-.901a.108.108 0 00-.109.109v.464c0 .06.049.108.109.108h.455c.06 0 .109-.048.109-.108v-.012a.108.108 0 00-.109-.109h-.232a.109.109 0 01-.108-.108v-.012c0-.06.048-.109.108-.109h.452a.11.11 0 01.109.109v.24c0 .06.048.11.108.11h.902a.11.11 0 00.108-.11v-.463a.109.109 0 00-.108-.109zm-.45 0h-.003a.108.108 0 00-.108.109v.006c0 .06.049.108.108.108h.004c.06 0 .108-.048.108-.108v-.006a.109.109 0 00-.108-.109zm.45.91h-2.69a.108.108 0 00-.108.108v.012c0 .06.049.109.109.109h2.689c.06 0 .108-.049.108-.109v-.012a.109.109 0 00-.108-.108zm-2.69-.91h.456c.06 0 .108.049.108.109v.464c0 .06-.048.108-.108.108h-.679a.108.108 0 00-.108.109v.24a.11.11 0 01-.109.109h-.006a.109.109 0 01-.108-.109v-.698a.108.108 0 00-.109-.109h-.006a.109.109 0 00-.108.109v.698a.11.11 0 01-.11.109h-.005a.108.108 0 01-.109-.109v-.698a.108.108 0 00-.108-.109h-.006a.109.109 0 00-.109.109v.698c0 .06-.048.109-.108.109h-.006a.108.108 0 01-.109-.109v-.921a.11.11 0 01.109-.109h.898a.11.11 0 01.109.109v.235c0 .06.048.108.108.108h.456c.06 0 .108-.048.108-.108v-.012a.109.109 0 00-.108-.109h-.232a.108.108 0 01-.109-.108v-.006c0-.06.049-.109.108-.109zm-1.778 0h-.007a.108.108 0 00-.108.109v.235c0 .06-.049.108-.109.108h-.452a.109.109 0 01-.108-.108v-.235a.108.108 0 00-.109-.109h-.901a.108.108 0 00-.109.109v.464c0 .06.048.108.108.108h.453c.06 0 .108-.048.108-.108v-.012a.108.108 0 00-.108-.109h-.227a.109.109 0 01-.108-.108v-.012c0-.06.049-.109.108-.109h.45c.06 0 .108.049.108.109v.24c0 .06.049.11.109.11h.902a.11.11 0 00.108-.11v-.463a.108.108 0 00-.108-.109zm-.45 0h-.003a.108.108 0 00-.108.109v.006c0 .06.048.108.108.108h.003c.06 0 .109-.048.109-.108v-.006a.109.109 0 00-.108-.109zm.45.91h-2.69a.108.108 0 00-.108.108v.012c0 .06.048.109.108.109h2.69c.06 0 .108-.049.108-.109v-.012a.106.106 0 00-.032-.076.106.106 0 00-.076-.032zm-2.69-.91h.452a.11.11 0 01.109.109v.464c0 .06-.049.108-.108.108h-.676a.108.108 0 00-.108.109v.24a.11.11 0 01-.109.109h-.006a.108.108 0 01-.109-.109v-.698a.108.108 0 00-.108-.109h-.006a.109.109 0 00-.109.109v.698c0 .06-.048.109-.108.109h-.006a.109.109 0 01-.109-.109v-.698a.108.108 0 00-.108-.109h-.007a.109.109 0 00-.108.109v.698a.11.11 0 01-.109.109h-.006a.108.108 0 01-.108-.109v-.921c0-.06.048-.109.108-.109h.9c.06 0 .108.049.108.109v.235c0 .06.048.108.108.108h.455c.06 0 .109-.048.109-.108v-.012a.109.109 0 00-.109-.109h-.232a.108.108 0 01-.108-.108v-.006a.108.108 0 01.108-.109zm-1.779 0h-.006a.108.108 0 00-.108.109v.235c0 .06-.049.108-.109.108h-.455a.108.108 0 01-.108-.108v-.235a.109.109 0 00-.11-.109h-.898a.108.108 0 00-.108.109v.464c0 .06.048.108.108.108h.453c.06 0 .108-.048.108-.108v-.012a.108.108 0 00-.108-.109h-.233a.109.109 0 01-.108-.108v-.012c0-.06.048-.109.108-.109h.459c.06 0 .108.049.108.109v.24c0 .06.049.11.109.11h.898a.11.11 0 00.109-.11v-.463a.109.109 0 00-.109-.109zm-.446 0h-.009a.108.108 0 00-.109.109v.006c0 .06.049.108.109.108h.009c.06 0 .109-.048.109-.108v-.006a.108.108 0 00-.109-.109zm.446.91h-2.689a.108.108 0 00-.109.108v.012c0 .06.049.109.109.109h2.69c.06 0 .108-.049.108-.109v-.012a.108.108 0 00-.109-.108zm-2.69-.91h.453a.11.11 0 01.109.109v.464c0 .06-.049.108-.109.108H11a.108.108 0 00-.109.109v.24c0 .06-.048.109-.108.109h-.006a.109.109 0 01-.109-.109v-.698a.109.109 0 00-.109-.109h-.006a.109.109 0 00-.108.109v.698a.11.11 0 01-.109.109h-.006a.108.108 0 01-.108-.109v-.698a.108.108 0 00-.109-.109h-.009a.109.109 0 00-.108.109v.698a.11.11 0 01-.109.109h-.003a.108.108 0 01-.109-.109v-.921a.11.11 0 01.109-.109h.899c.06 0 .108.049.108.109v.235c0 .06.049.108.109.108h.45c.06 0 .108-.048.108-.108v-.012a.109.109 0 00-.109-.109h-.226a.109.109 0 01-.109-.108v-.006a.11.11 0 01.109-.109zm-1.78 0h-.004a.108.108 0 00-.109.109v.235c0 .06-.048.108-.108.108h-.453a.108.108 0 01-.108-.108v-.235a.108.108 0 00-.109-.109h-.9a.108.108 0 00-.11.109v.464c0 .06.05.108.11.108h.448c.06 0 .109-.048.109-.108v-.012a.108.108 0 00-.109-.109H7.87a.109.109 0 01-.108-.108v-.012c0-.06.048-.109.108-.109h.456c.06 0 .108.049.108.109v.24c0 .06.049.11.109.11h.898a.11.11 0 00.109-.11v-.463a.109.109 0 00-.109-.109zm-.447 0h-.006a.108.108 0 00-.109.109v.006c0 .06.049.108.109.108h.006c.06 0 .108-.048.108-.108v-.006a.108.108 0 00-.108-.109zm.446.91H6.75a.108.108 0 00-.109.108v.012c0 .06.049.109.109.109h2.69a.11.11 0 00.109-.109v-.012a.109.109 0 00-.109-.108zm-2.692-.91h.458a.11.11 0 01.109.109v.464c0 .06-.049.108-.109.108h-.676a.108.108 0 00-.108.109v.24a.11.11 0 01-.109.109h-.009a.108.108 0 01-.108-.109v-.698a.109.109 0 00-.109-.109h-.006a.109.109 0 00-.108.109v.698a.11.11 0 01-.109.109h-.003a.108.108 0 01-.108-.109v-.698a.109.109 0 00-.109-.109h-.009a.109.109 0 00-.108.109v.698a.11.11 0 01-.109.109h-.006a.108.108 0 01-.1-.067.108.108 0 01-.009-.042v-.921a.11.11 0 01.109-.109h.901a.11.11 0 01.109.109v.235c0 .06.048.108.108.108h.453c.06 0 .108-.048.108-.108v-.012a.109.109 0 00-.108-.109h-.235a.109.109 0 01-.108-.108v-.006a.108.108 0 01.108-.109zm-1.776 0h-.006a.108.108 0 00-.109.109v.235c0 .06-.048.108-.108.108h-.453a.108.108 0 01-.108-.108v-.235a.108.108 0 00-.109-.109h-.9a.108.108 0 00-.109.109v.464c0 .06.049.108.109.108h.45c.06 0 .108-.048.108-.108v-.012a.108.108 0 00-.109-.109H3.4a.109.109 0 01-.108-.108v-.012c0-.06.048-.109.108-.109h.458a.11.11 0 01.109.109v.24c0 .06.048.11.108.11h.899a.11.11 0 00.108-.11v-.463a.108.108 0 00-.108-.109zm-.446 0H4.52a.108.108 0 00-.108.109v.006c0 .06.048.108.108.108h.007c.06 0 .108-.048.108-.108v-.006a.108.108 0 00-.108-.109zm.446.91H2.286a.108.108 0 00-.108.108v.012c0 .06.048.109.108.109h2.687c.06 0 .108-.049.108-.109v-.012a.109.109 0 00-.108-.108zm-2.687-.91h.453c.06 0 .108.049.108.109v.464c0 .06-.048.108-.108.108h-.681a.108.108 0 00-.109.109v.24a.108.108 0 11-.217 0v-.698a.108.108 0 00-.109-.109h-.012a.109.109 0 00-.108.109v.698a.11.11 0 01-.109.109.108.108 0 01-.109-.109v-.698a.108.108 0 00-.108-.109H1.17a.109.109 0 00-.109.109v.698c0 .06-.048.109-.108.109H.942a.108.108 0 01-.1-.067.108.108 0 01-.009-.042v-.921a.11.11 0 01.109-.109h.898a.11.11 0 01.109.109v.235c0 .06.049.108.109.108h.458c.06 0 .108-.048.108-.108v-.012a.108.108 0 00-.108-.109h-.23a.109.109 0 01-.108-.108v-.006a.109.109 0 01.108-.109zm38.439-.692H38.93a.108.108 0 00-.109.108v.241c0 .06.049.109.109.109h1.794c.06 0 .108-.049.108-.109v-.24a.108.108 0 00-.108-.11zm-2.237 0h-1.791a.108.108 0 00-.109.108v.241c0 .06.049.109.109.109h1.79a.11.11 0 00.11-.109v-.24a.108.108 0 00-.11-.11zm-2.234 0h-1.791a.108.108 0 00-.109.108v.241c0 .06.049.109.109.109h1.79a.11.11 0 00.11-.109v-.24a.109.109 0 00-.11-.11zm-2.231 0h-1.797a.108.108 0 00-.109.108v.241c0 .06.049.109.109.109h1.797c.06 0 .108-.049.108-.109v-.24a.108.108 0 00-.108-.11zm-2.238 0h-1.794a.108.108 0 00-.108.108v.241c0 .06.048.109.108.109h1.794a.11.11 0 00.109-.109v-.24a.107.107 0 00-.032-.077.11.11 0 00-.077-.032zm-2.234 0h-1.794a.108.108 0 00-.108.108v.241c0 .06.048.109.108.109h1.794a.11.11 0 00.109-.109v-.24a.109.109 0 00-.109-.11zm-2.234 0h-1.794a.108.108 0 00-.108.108v.241c0 .06.048.109.108.109h1.794a.11.11 0 00.109-.109v-.24a.109.109 0 00-.109-.11zm-2.231 0h-1.797a.108.108 0 00-.109.108v.241c0 .06.049.109.109.109h1.797c.06 0 .108-.049.108-.109v-.24a.108.108 0 00-.108-.11zm-2.237 0h-1.794a.108.108 0 00-.109.108v.241c0 .06.049.109.109.109h1.794c.06 0 .108-.049.108-.109v-.24a.109.109 0 00-.108-.11zm-2.234 0H18.82a.108.108 0 00-.109.108v.241c0 .06.049.109.109.109h1.794c.06 0 .108-.049.108-.109v-.24a.108.108 0 00-.108-.11zm-2.234 0h-1.794a.108.108 0 00-.109.108v.241c0 .06.048.109.108.109h1.795c.06 0 .108-.049.108-.109v-.24a.108.108 0 00-.108-.11zm-2.238 0h-1.79a.108.108 0 00-.11.108v.241c0 .06.05.109.11.109h1.79a.11.11 0 00.109-.109v-.24a.108.108 0 00-.108-.11zm-2.23 0h-1.795a.108.108 0 00-.108.108v.241c0 .06.048.109.108.109h1.794a.11.11 0 00.109-.109v-.24a.108.108 0 00-.109-.11zm-2.238 0h-1.79a.108.108 0 00-.11.108v.241c0 .06.05.109.11.109h1.79a.11.11 0 00.109-.109v-.24a.108.108 0 00-.109-.11zm-2.234 0h-1.79a.108.108 0 00-.11.108v.241c0 .06.05.109.11.109h1.79a.11.11 0 00.109-.109v-.24a.108.108 0 00-.109-.11zm-2.234 0H5.413a.108.108 0 00-.109.108v.241c0 .06.049.109.109.109h1.794a.11.11 0 00.109-.109v-.24a.108.108 0 00-.109-.11zm-2.234 0H3.179a.108.108 0 00-.109.108v.241c0 .06.049.109.109.109h1.794c.06 0 .108-.049.108-.109v-.24a.108.108 0 00-.108-.11zm-2.234 0H.942a.108.108 0 00-.109.108v.241c0 .06.049.109.109.109h1.797c.06 0 .108-.049.108-.109v-.24a.108.108 0 00-.108-.11z" fill="#F5F5F5"/><path d="M20.263 16.74a.59.59 0 00.573-.158.59.59 0 00.993-.562.68.68 0 01-.941.223c-.017-.01-.038-.021-.052-.032a.692.692 0 01-.96-.137c-.009-.016-.025-.038-.036-.054a.589.589 0 00.423.72zm1.27 6.373a3.716 3.716 0 001.682-1.872 3.748 3.748 0 00-.882-4.097c-.037-.036-.095.013-.067.057a4.046 4.046 0 01-1.015 5.334l.08-5.107a.226.226 0 00-.084-.179l-.271-.219a.225.225 0 00-.285 0l-.267.22a.225.225 0 00-.083.177l.078 5.11a4.051 4.051 0 01-1.018-5.336c.027-.044-.03-.093-.068-.056a3.751 3.751 0 00-.881 4.096c.335.835.947 1.47 1.68 1.872a4.12 4.12 0 01-1.453.231c-.052-.001-.063.072-.013.087a3.7 3.7 0 001.889.068l.239.465a.045.045 0 00.04.024.045.045 0 00.039-.024l.24-.464c.61.136 1.259.123 1.89-.069.05-.015.04-.089-.013-.087a4.13 4.13 0 01-1.456-.23z" fill="#FF4B55"/><path d="M24.518 18.366a3.165 3.165 0 00-1.74-1.493c-.046-.017-.083.045-.045.076a4.036 4.036 0 01.495 5.749 3.192 3.192 0 001.29-4.332zm-6.282 4.076a4.036 4.036 0 01.697-5.493c.038-.031.002-.092-.045-.076-.741.26-1.36.792-1.738 1.493a3.186 3.186 0 001.293 4.332 2.358 2.358 0 01-.207-.256z" fill="#FF4B55"/></g><defs><clipPath id="clip0_1_1038"><path fill="#fff" transform="translate(.833)" d="M0 0h40v40H0z"/></clipPath></defs></svg>