<svg width="41" height="40" fill="none" xmlns="http://www.w3.org/2000/svg"><g clip-path="url(#clip0_1_643)"><path d="M.833 6.667h40v26.666h-40V6.667z" fill="#338AF3"/><path d="M4.625 13.047l-2.605-1.15 2.605-1.149 1.15-2.605 1.149 2.605 2.605 1.15-2.605 1.15-1.15 2.604-1.15-2.604z" fill="#F0F0F0"/><path d="M5.774 9.579l.71 1.609 1.61.71-1.61.71-.71 1.609-.71-1.61-1.608-.71 1.609-.71.71-1.608z" fill="#D80027"/><path d="M.833 23.479h40v1.739h-40v-1.74zm0 3.477h40v1.74h-40v-1.74z" fill="#FFDA44"/></g><defs><clipPath id="clip0_1_643"><path fill="#fff" transform="translate(.833)" d="M0 0h40v40H0z"/></clipPath></defs></svg>