<svg width="40" height="40" fill="none" xmlns="http://www.w3.org/2000/svg"><g clip-path="url(#clip0_1_803)"><path d="M39.31 33.103H.69a.69.69 0 01-.69-.69v-6.206h40v6.207a.69.69 0 01-.69.69z" fill="#73AF00"/><path d="M39.31 6.896H.69a.69.69 0 00-.69.69v18.62h40V7.587a.69.69 0 00-.69-.69z" fill="#FF4B55"/><path d="M5.517 33.103H.69a.69.69 0 01-.69-.69V7.587a.69.69 0 01.69-.69h4.827v26.207z" fill="#F5F5F5"/><path d="M.69 31.958h.244v-.684H.69v.684zm1.947 0h.244v-.684h-.244v.684zm1.948 0h.243v-.684h-.243v.684zm-2.92-1.833h.241v-.57h-.241v.57zm1.948 0h.242v-.57h-.242v.57zM.69 28.64h.244v-.683H.69v.683zm1.947 0h.244v-.683h-.244v.683zm1.948 0h.243v-.683h-.243v.683zm-3.406.916h.242v-.574h.244v-.57h.241v.57h.245v.574h.242v.57H2.15v.575h-.245v.574h-.241V30.7H1.42v-.575h-.242v-.57zm1.947 0h.244v-.574h.243v-.57h.242v.57h.243v.574h.244v.57h-.244v.575h-.243v.574h-.242V30.7H3.37v-.575h-.244v-.57zm.487-2.288v.57h-.246v.574h-.241v.57h-.245v.575h-.244v-.575h-.244v-.57H2.15v-.574h-.245v-.57h-.241v.57H1.42v.574h-.242v.57H.934v.575H.69v.57h.244v.574h.245v.574h.242v.57h.244v.57h.244v-.57h.242v-.57h.242V30.7h.244v-.575h.244v.575h.245v.574h.244v.57h.243v.57h.243v-.57h.242v-.57h.244V30.7h.244v-.575h.242v-.57h-.243v-.574h-.243v-.57h-.244v-.574h-.242v-.57h-.243zm.603-.57h.121v-.227h.123v.227h.122v.228H4.46v.233h-.123v-.233h-.121v-.228zm0-.797v.337h-.12v.346h-.123v.456h.123v.342h.12v.342h.366v-.342h.122v-.342h.12v-.456h-.12v-.346h-.122V25.9h-.366zm-3.282.792h.123v-.227h.122v.227h.119v.233h-.119v.228h-.122v-.228H.934v-.233zm0-.797v.342H.813v.341H.69v.461h.123v.342h.121v.341h.364v-.341h.123v-.342h.119v-.46h-.12v-.342h-.122v-.342H.934zm1.339.797h.12v-.227h.124v.227h.12v.233h-.12v.228h-.124v-.228h-.12v-.233zm.608 0h.122v-.227h.123v.227h.12v.233h-.12v.228h-.123v-.228h-.122v-.233zm0-.797v.342h-.244v-.342h-.364v.342H2.15v.341h-.12v.461h.122v.342h.122v.341h.364v-.341h.244v.341h.365v-.341h.124v-.342h.119v-.46h-.12v-.342h-.123v-.342h-.365zm-2.19-.233h.243v-.684H.69v.684zm1.946 0h.244v-.684h-.244v.684zm1.948 0h.243v-.684h-.243v.684zM.69 22.804h.244v-.456H.69v.456zm3.895 0h.243v-.456h-.243v.456zm-1.948-1.6h.244v-.57h-.244v.57zM.69 19.658v.689h.244v-.689H.69zm1.339 0v.689h.244v-.689h-.244zm1.217 0v.689h.243v-.689h-.243zm1.339 0v.689h.243v-.689h-.243zm-1.582-.401v.228h-.122v.173h-.244v-.173h-.12v-.228h-.244v.342h.12v.173h.124v.456h-.124v.173h-.12v.342h.244v-.228h.12v-.168h.244v.168h.122v.228h.243V20.4h-.12v-.173h-.123v-.456h.123V19.6h.12v-.342h-.243zm-.366.114h.244v-.57h-.244v.57zM.69 17.657h.244V17.2H.69v.456zm3.895 0h.243V17.2h-.243v.456zM.69 15.027h.244v-.689H.69v.689zm1.947 0h.244v-.689h-.244v.689zm1.948 0h.243v-.689h-.243v.689zm-2.92 4.983v-.238h.241v-.396h.245v-.461h.366v-.54h.12v-.262h.244v.257h.122v.545h.367v.46h.243v.397h.242v.456h-.242v.406H3.37v.456h-.367v.54h-.122v.257h-.244v-.258h-.12v-.54H2.15v-.455h-.245v-.406h-.241v-.218zm1.948-6.36v.574h-.246v.57h-.241v.574h-.245v.57h-.244v-.57h-.244v-.574H2.15v-.57h-.245v-.575h-.241v.575H1.42v.57h-.244v.574H.934v.57H.69v.574h.244v.575h.243v.57h.244v.57h.244v-.57h.241v-.57h.245v-.575h-.245v-.688h.245v.46h.242v.917h.124v.565l-.366.005v.456h-.245v.341h-.241v.575H1.42v-.575h-.244v-.341H.934v-.342H.69v1.03h.244v.46h.243v.397h.244v.456h-.244v.406H.934v.456H.69v1.03h.244v-.347h.243v-.341h.244v-.57h.244v.57h.241v.341h.245v.461l.366.005v.565h-.124v.916H2.15v.46h-.245v-.693h.245v-.57h-.245v-.57h-.241v-.574H1.42v.575h-.244v.57H.934v.57H.69v.574h.244v.57h.245v.574h.242v.575h.244v.57h.241v-.57h.245v-.575h.242v-.575h.244v-.57h.244v.57h.245v.575h.244v.575h.243v.57h.243v-.57h.242v-.575h.244v-.575h.243v-.57h.243v-.574h-.243v-.57h-.243v-.57h-.244v-.574h-.243v.575h-.242v.57h-.245v.57h.245v.693h-.245v-.46h-.242v-.917h-.123v-.57h.367v-.46h.243v-.343h.243v-.57h.242v.57h.244v.342h.244v.347h.242v-1.03h-.242v-.456h-.244v-.406h-.244v-.456h.244v-.396h.244v-.46h.242v-1.031h-.242v.342h-.244v.341h-.244v.575h-.243v-.575h-.242v-.341H3.37v-.456h-.367v-.57h.123v-.916h.241v-.461h.246v.688h-.246v.575h.246v.57h.242v.57h.243v-.57h.244v-.57h.243v-.575h.243v-.574h-.243v-.57h-.243v-.575h-.244v-.57h-.242v-.574h-.243zm-2.679-.57h.12v-.228h.125v.228h.119v.228h-.119v.232h-.125v-.232h-.12v-.228zm0-.46H.813v.346H.69v.456h.123v.346h.121v.342h.364v-.342h.123v-.346h.119v-.456h-.12v-.347h-.122v-.337H.934v.337zm1.339.46h.12v-.228h.124v.228h.12v.228h-.12v.232h-.124v-.232h-.12v-.228zm.608 0h.122v-.228h.123v.228h.12v.228h-.12v.232h-.123v-.232h-.122v-.228zm-.608-.46H2.15v.346h-.12v.456h.122v.346h.122v.342h.364v-.342h.244v.342h.365v-.342h.124v-.346h.119v-.456h-.12v-.347h-.123v-.337h-.365v.337h-.244v-.337h-.364v.337zm1.943.455h.121v-.223h.123v.223h.122v.233H4.46v.227h-.123v-.227h-.121v-.233zm0-.798v.342h-.12v.347h-.123v.456h.123v.341h.12v.342h.366v-.342h.122v-.341h.12v-.456h-.12v-.347h-.122v-.342h-.366zM.69 12.05h.244v-.684H.69v.684zm1.947 0h.244v-.684h-.244v.684zm1.948 0h.243v-.684h-.243v.684zm-2.92-1.6h.241v-.575h-.241v.575zm1.948 0h.242v-.575h-.242v.575zM.69 8.73h.244v-.683H.69v.684zm1.947 0h.244v-.683h-.244v.684zm1.948 0h.243v-.683h-.243v.684zM1.179 9.876h.242v-.57h.244v-.574h.241v.574h.245v.57h.242v.575H2.15v.57h-.245v.574h-.241v-.575H1.42v-.57h-.242v-.574zm1.947 0h.244v-.57h.243v-.574h.242v.574h.243v.57h.244v.575h-.244v.57h-.243v.574h-.242v-.575H3.37v-.57h-.244v-.574zm.487-2.289v.575H3.37v.57h-.244v.574H2.88v.57h-.244v-.57h-.244v-.574H2.15v-.57h-.24v-.575h-.244v.575H1.42v.57h-.242v.574H.934v.57H.69v.575h.244v.57h.245v.574h.242v.574h.244v.57h.241v-.57h.245v-.574h.242v-.575h.244v-.57h.244v.57h.245v.575h.242v.574h.245v.57h.242v-.57h.243v-.574h.244v-.575h.243v-.57h.243v-.574h-.242v-.57h-.244v-.574h-.244v-.57h-.243v-.575h-.242z" fill="#FF4B55"/></g><defs><clipPath id="clip0_1_803"><path fill="#fff" d="M0 0h40v40H0z"/></clipPath></defs></svg>