<svg width="41" height="40" fill="none" xmlns="http://www.w3.org/2000/svg"><g clip-path="url(#clip0_1_794)"><path d="M.333 24.368h40v8.046a.69.69 0 01-.69.69H1.024a.69.69 0 01-.69-.69v-8.046z" fill="#73AF00"/><path d="M1.023 6.896h38.62a.69.69 0 01.69.69v8.046h-40V7.586a.69.69 0 01.69-.69z" fill="#82AFFF"/><path d="M.333 15.632h40v8.735h-40v-8.735z" fill="#FF4B55"/><path d="M21.274 22.86a2.804 2.804 0 010-5.61 2.75 2.75 0 011.55.478c.067.046.144-.044.088-.102a3.476 3.476 0 00-2.636-1.072 3.52 3.52 0 00-3.373 3.27 3.503 3.503 0 003.495 3.735c.99 0 1.88-.414 2.516-1.076.056-.059-.021-.146-.088-.1-.443.3-.975.477-1.552.477z" fill="#F5F5F5"/><path d="M23.728 18.329l.29.818.785-.373a.07.07 0 01.092.093l-.372.784.817.29a.07.07 0 010 .131l-.817.291.372.784a.07.07 0 01-.092.093l-.784-.373-.291.818a.07.07 0 01-.13 0l-.292-.818-.784.373a.07.07 0 01-.092-.093l.372-.784-.817-.29a.07.07 0 010-.132l.817-.29-.372-.784a.07.07 0 01.092-.093l.784.373.291-.818a.07.07 0 01.131 0z" fill="#F5F5F5"/></g><defs><clipPath id="clip0_1_794"><path fill="#fff" transform="translate(.333)" d="M0 0h40v40H0z"/></clipPath></defs></svg>