<svg width="536" height="652" fill="none" xmlns="http://www.w3.org/2000/svg"><path opacity=".3" d="M307.27 257.381L512.3 375.932v106.965L325.389 374.76l-18.05 5.931-.069-123.31z" fill="url(#paint0_linear_37_1458)"/><path d="M348.951 317.312c0 8.827-5.236 12.965-11.643 9.241-6.407-3.724-11.643-13.862-11.643-22.69 0-8.827 5.236-12.965 11.643-9.241 6.407 3.655 11.643 13.862 11.643 22.69z" fill="#634ECA"/><path opacity=".15" d="M359.975 313.863l44.919 26v9.379l-44.919-25.999v-9.38zm0 18.828l134.137 77.586v9.379L359.975 342.07v-9.379zm0 18.758l104.926 60.69v9.379l-104.926-60.689v-9.38z" fill="#fff"/><path opacity=".3" d="M158.32 114.692l115.467 66.689v214.137L158.32 328.829V114.692z" fill="url(#paint1_linear_37_1458)"/><path opacity=".15" d="M169.688 241.795l92.732 53.586v9.379l-92.732-53.586v-9.379zm6.475 21.999l79.711 46.069v9.379l-79.711-46.068v-9.38z" fill="#fff"/><path d="M209.853 302.139l-80.331-46.413v23.931l80.331 46.413v-23.931zm19.359-103.31c0 10.345-5.994 15.242-13.365 10.966-7.372-4.276-13.366-16.207-13.366-26.621 0-10.345 5.994-15.241 13.366-10.965 7.371 4.413 13.365 16.275 13.365 26.62zm-13.366 19.31c-11.918-6.965-21.77-.413-23.493 14.552-.275 2.621 1.654 6.069 4.065 7.448l38.857 22.759c2.411 1.379 4.34.276 4.065-2.69-1.723-17.034-11.575-35.103-23.494-42.069z" fill="#634ECA"/><path opacity=".3" d="M238.444 371.173l115.467 66.69V652l-115.467-66.689V371.173z" fill="url(#paint2_linear_37_1458)"/><path opacity=".15" d="M249.743 498.276l92.732 53.586v9.38l-92.732-53.586v-9.38zm6.476 22l79.711 46.069v9.379l-79.711-46.068v-9.38z" fill="#fff"/><path d="M382.503 612.069l-80.332-46.413v23.93L382.503 636v-23.931zm-73.235-156.758c0 10.345-5.994 15.241-13.366 10.966-7.372-4.345-13.365-16.207-13.365-26.621 0-10.345 5.993-15.241 13.365-10.965 7.372 4.344 13.366 16.275 13.366 26.62zm-13.366 19.31c-11.919-6.965-21.771-.413-23.493 14.552-.275 2.621 1.654 6.069 4.065 7.448l38.856 22.759c2.412 1.379 4.341.276 4.065-2.69-1.722-17.034-11.574-35.103-23.493-42.069z" fill="#634ECA"/><path opacity=".3" d="M205.03 352.484L0 233.933v106.965l186.98 108.068 18.119 26.828-.069-123.31z" fill="url(#paint3_linear_37_1458)"/><path d="M163.349 364.208c0 8.828 5.236 18.965 11.643 22.69 6.408 3.724 11.643-.414 11.643-9.242 0-8.827-5.235-18.965-11.643-22.689-6.407-3.724-11.643.413-11.643 9.241z" fill="#634ECA"/><path opacity=".15" d="M152.326 348.001l-44.92-25.931v9.379l44.92 26v-9.448zm-.001 18.828L18.188 289.243v9.379l134.137 77.586v-9.379zm.001 18.827L47.399 324.967v9.379l104.927 60.689v-9.379z" fill="#fff"/><path opacity=".4" d="M508.442 88.485C392.148 21.244 297.073 100.898 297.073 268.07l-29.693-17.172c.069-188.827 107.613-280.689 241.062-203.585v41.172z" fill="url(#paint4_linear_37_1458)"/><path opacity=".4" d="M411.439 334.277c0-74.207 43.403-109.31 96.934-78.414v-41.172c-69.928-40.413-126.628 5.448-126.628 102.414l29.694 17.172z" fill="url(#paint5_linear_37_1458)"/><path opacity=".4" d="M353.567 300.07c0-118.482 69.308-174.482 154.669-125.103v-41.172c-101.758-58.827-184.362 7.931-184.362 149.103l29.693 17.172z" fill="url(#paint6_linear_37_1458)"/><path opacity=".4" d="M480.196 373.932c15.57 9.035 28.177-1.241 28.177-22.827 0-21.587-12.607-46.414-28.177-55.448-15.571-9.035-28.178 1.241-28.178 22.827 0 21.655 12.607 46.414 28.178 55.448z" fill="url(#paint7_linear_37_1458)"/><path opacity=".07" d="M536 68.485C419.637 1.244 324.631 80.899 324.631 248.07l-29.693-17.172C295.006 42.071 402.551-49.791 536 27.313v41.172z" fill="url(#paint8_linear_37_1458)"/><path opacity=".07" d="M438.996 314.277c0-74.207 43.404-109.31 96.935-78.413v-41.173c-69.928-40.413-126.628 5.449-126.628 102.414l29.693 17.172z" fill="url(#paint9_linear_37_1458)"/><path opacity=".07" d="M381.125 280.07c0-118.482 69.308-174.482 154.668-125.103v-41.172c-101.757-58.827-184.362 7.931-184.362 149.103l29.694 17.172z" fill="url(#paint10_linear_37_1458)"/><path opacity=".07" d="M507.753 353.932c15.57 9.035 28.178-1.241 28.178-22.827 0-21.587-12.608-46.414-28.178-55.448-15.57-9.035-28.178 1.241-28.178 22.827 0 21.655 12.608 46.414 28.178 55.448z" fill="url(#paint11_linear_37_1458)"/><path opacity=".2" d="M417.501 461.035c4.134 2.345 7.441 8.138 7.441 12.897v21.034l13.916 8c4.134 2.345 7.441 8.138 7.441 12.965 0 4.759-3.307 6.69-7.441 4.345l-13.916-8v21.035c0 4.758-3.307 6.689-7.441 4.345-4.134-2.345-7.441-8.138-7.441-12.966v-21.034l-13.916-8c-4.134-2.345-7.441-8.138-7.441-12.897 0-4.758 3.307-6.689 7.441-4.345l13.916 8V465.38c0-4.759 3.307-6.69 7.441-4.345z" fill="url(#paint12_linear_37_1458)"/><path opacity=".2" d="M89.218 160.622l19.153 37.655c2.618 5.173 2.205 10.345-.964 11.587-3.17 1.241-7.854-2-10.472-7.173l-.207-.482v41.792c0 4.759-3.307 6.69-7.44 4.345-4.134-2.414-7.441-8.138-7.441-12.896v-41.793l-.207.207c-2.618 2.138-7.372-.069-10.472-4.966-3.17-4.896-3.583-10.551-.965-12.689l19.015-15.587z" fill="url(#paint13_linear_37_1458)"/><defs><linearGradient id="paint0_linear_37_1458" x1="395.408" y1="260.862" x2="421.83" y2="476.043" gradientUnits="userSpaceOnUse"><stop stop-color="#fff"/><stop offset="1" stop-color="#fff" stop-opacity="0"/></linearGradient><linearGradient id="paint1_linear_37_1458" x1="286.153" y1="133.535" x2="183.502" y2="311.195" gradientUnits="userSpaceOnUse"><stop stop-color="#fff"/><stop offset="1" stop-color="#fff" stop-opacity="0"/></linearGradient><linearGradient id="paint2_linear_37_1458" x1="366.214" y1="390" x2="263.563" y2="567.661" gradientUnits="userSpaceOnUse"><stop stop-color="#fff"/><stop offset="1" stop-color="#fff" stop-opacity="0"/></linearGradient><linearGradient id="paint3_linear_37_1458" x1="160.3" y1="309.587" x2="54.354" y2="392.414" gradientUnits="userSpaceOnUse"><stop stop-color="#fff"/><stop offset="1" stop-color="#fff" stop-opacity="0"/></linearGradient><linearGradient id="paint4_linear_37_1458" x1="467.476" y1="15.798" x2="295.966" y2="215.718" gradientUnits="userSpaceOnUse"><stop stop-color="#fff"/><stop offset="1" stop-color="#fff" stop-opacity="0"/></linearGradient><linearGradient id="paint5_linear_37_1458" x1="572.997" y1="106.404" x2="401.487" y2="306.324" gradientUnits="userSpaceOnUse"><stop stop-color="#fff"/><stop offset="1" stop-color="#fff" stop-opacity="0"/></linearGradient><linearGradient id="paint6_linear_37_1458" x1="521.331" y1="61.401" x2="349.822" y2="261.321" gradientUnits="userSpaceOnUse"><stop stop-color="#fff"/><stop offset="1" stop-color="#fff" stop-opacity="0"/></linearGradient><linearGradient id="paint7_linear_37_1458" x1="632.295" y1="157.172" x2="460.784" y2="357.092" gradientUnits="userSpaceOnUse"><stop stop-color="#fff"/><stop offset="1" stop-color="#fff" stop-opacity="0"/></linearGradient><linearGradient id="paint8_linear_37_1458" x1="495.032" y1="-4.202" x2="323.522" y2="195.719" gradientUnits="userSpaceOnUse"><stop stop-color="#fff"/><stop offset="1" stop-color="#fff" stop-opacity="0"/></linearGradient><linearGradient id="paint9_linear_37_1458" x1="600.553" y1="86.404" x2="429.044" y2="286.324" gradientUnits="userSpaceOnUse"><stop stop-color="#fff"/><stop offset="1" stop-color="#fff" stop-opacity="0"/></linearGradient><linearGradient id="paint10_linear_37_1458" x1="548.888" y1="41.401" x2="377.379" y2="241.321" gradientUnits="userSpaceOnUse"><stop stop-color="#fff"/><stop offset="1" stop-color="#fff" stop-opacity="0"/></linearGradient><linearGradient id="paint11_linear_37_1458" x1="659.852" y1="137.171" x2="488.342" y2="337.091" gradientUnits="userSpaceOnUse"><stop stop-color="#fff"/><stop offset="1" stop-color="#fff" stop-opacity="0"/></linearGradient><linearGradient id="paint12_linear_37_1458" x1="431.905" y1="487.945" x2="395.804" y2="516.406" gradientUnits="userSpaceOnUse"><stop stop-color="#fff"/><stop offset="1" stop-color="#fff" stop-opacity="0"/></linearGradient><linearGradient id="paint13_linear_37_1458" x1="102.869" y1="198.584" x2="67.908" y2="218.053" gradientUnits="userSpaceOnUse"><stop stop-color="#fff"/><stop offset="1" stop-color="#fff" stop-opacity="0"/></linearGradient></defs></svg>