<svg width="525" height="551" fill="none" xmlns="http://www.w3.org/2000/svg"><path opacity=".07" d="M176.745 406.588S91.092 271.286 91.092 178.207c0-65.747 38.34-141.08 85.653-168.345 47.313-27.264 85.653 3.943 85.653 69.69 0 92.264-85.653 327.036-85.653 327.036zm0-330.64c-20.87 12.035-37.796 45.147-37.796 74.043 0 28.828 16.926 42.494 37.796 30.46 20.869-12.035 37.796-45.146 37.796-74.042 0-28.828-16.927-42.495-37.796-30.46z" fill="url(#paint0_linear_37_1528)"/><path opacity=".4" d="M203.936 426.985s-85.653-135.302-85.653-228.381c0-65.747 38.34-141.08 85.653-168.345 47.313-27.264 85.653 3.944 85.653 69.69 0 92.264-85.653 327.036-85.653 327.036zm0-330.639c-20.869 12.034-37.796 45.146-37.796 74.042 0 28.828 16.927 42.494 37.796 30.46 20.87-12.035 37.796-45.146 37.796-74.042 0-28.828-16.926-42.494-37.796-30.46z" fill="url(#paint1_linear_37_1528)"/><path opacity=".3" d="M378.302 239.535l-127.053 73.362v235.452l127.053-73.362V239.535z" fill="url(#paint2_linear_37_1528)"/><path opacity=".15" d="M358.112 389.25l-75.729 43.718v9.247l75.729-43.718v-9.247zm-7.817 22.913l-60.026 34.608v9.246l60.026-34.675v-9.179z" fill="#fff"/><path d="M329.765 454.046l88.372-51.061v26.312l-88.372 51.061v-26.312z" fill="#634ECA"/><path opacity=".15" d="M315.761 316.84l26.444-15.297v-8.907l-26.444 15.298c-2.175 1.223-5.302 3.807-7.953 7.683-2.856 4.147-4.963 9.382-4.963 15.094 0 6.255 1.632 9.858 4.623 10.878 2.855.952 6.254-.68 8.293-1.904l10.877-6.255.068-.068c.951-.544 2.447-1.088 3.602-.748.952.272 2.04 1.224 2.04 4.76 0 3.467-1.088 5.643-1.972 6.935-1.155 1.563-2.583 2.719-3.534 3.195l-.136.068-33.31 19.242v8.906l33.038-19.105c2.243-1.156 5.574-3.671 8.361-7.683 3.127-4.351 5.234-9.859 5.234-16.046 0-6.119-2.107-9.246-5.166-10.13-2.855-.816-6.118.34-8.361 1.767l-10.741 6.188c-1.563.883-2.719 1.291-3.535 1.019-.612-.204-1.699-1.019-1.699-5.575 0-2.923.951-4.827 1.835-6.119 1.088-1.496 2.515-2.652 3.399-3.196z" fill="#fff"/><path d="M332.756 304.058c0 8.771 5.166 12.918 11.489 9.315 6.322-3.672 11.488-13.734 11.488-22.573 0-8.771-5.166-12.918-11.488-9.315-6.323 3.672-11.489 13.802-11.489 22.573zm-56.422 77.51c0 8.77 5.166 12.918 11.488 9.314 6.322-3.671 11.489-13.734 11.489-22.573 0-8.77-5.167-12.918-11.489-9.314-6.322 3.671-11.488 13.802-11.488 22.573z" fill="#634ECA"/><path opacity=".3" d="M301.146 141.832L503.45 25.024l-.068 105.453-184.426 106.474-17.878 26.448.068-121.567z" fill="url(#paint3_linear_37_1528)"/><path d="M525 66.159V37.534l-76.34 44.058v28.625L525 66.159z" fill="#634ECA"/><path opacity=".15" d="M353.15 137.48l44.322-25.564v9.247l-44.322 25.564v-9.247zm0 18.494l85.449-49.293v9.247l-85.449 49.293v-9.247zm0 18.561l103.531-59.764v9.247L353.15 183.782v-9.247z" fill="#fff"/><path d="M342.273 153.39c0 8.703-5.166 18.698-11.488 22.369-6.322 3.672-11.489-.408-11.489-9.11 0-8.703 5.167-18.698 11.489-22.369 6.322-3.604 11.488.476 11.488 9.11z" fill="#634ECA"/><path opacity=".3" d="M219.776 328.806L17.539 445.546 17.47 551l184.426-106.474 17.811 5.848.068-121.568z" fill="url(#paint4_linear_37_1528)"/><path d="M76.34 464.176v-28.624L0 479.61v28.624l76.34-44.058z" fill="#634ECA"/><path opacity=".15" d="M167.771 384.491l-44.322 25.564v9.247l44.322-25.564v-9.247zm0 18.561l-80.01 46.166v9.247l80.01-46.166v-9.247zm.001 18.494L64.24 481.31v9.246l103.532-59.695v-9.315z" fill="#fff"/><path d="M178.648 387.822c0 8.703 5.166 12.783 11.488 9.111 6.322-3.671 11.489-13.666 11.489-22.369s-5.167-12.782-11.489-9.111c-6.322 3.672-11.42 13.735-11.488 22.369z" fill="#634ECA"/><path opacity=".2" d="M441.658 313.101c45.953-59.016 12.712-80.229 0-45.69-12.712-19.785-45.954 39.775 0 45.69z" fill="url(#paint5_linear_37_1528)"/><path opacity=".2" d="M25.356 355.323l24.132 19.513c2.584 2.108 7.274-.068 10.333-4.895 3.127-4.827 3.535-10.403.952-12.51l-10.129-8.159 38.612-22.301c4.079-2.38 7.342-8.023 7.342-12.714 0-4.692-3.263-6.595-7.342-4.284l-38.612 22.301 10.129-19.921c2.583-5.099 2.175-10.199-.952-11.423-3.127-1.223-7.75 1.972-10.333 7.072l-24.132 47.321z" fill="url(#paint6_linear_37_1528)"/><defs><linearGradient id="paint0_linear_37_1528" x1="25.494" y1="133.418" x2="263.274" y2="229.926" gradientUnits="userSpaceOnUse"><stop stop-color="#fff"/><stop offset="1" stop-color="#fff" stop-opacity="0"/></linearGradient><linearGradient id="paint1_linear_37_1528" x1="52.688" y1="153.816" x2="290.468" y2="250.323" gradientUnits="userSpaceOnUse"><stop stop-color="#fff"/><stop offset="1" stop-color="#fff" stop-opacity="0"/></linearGradient><linearGradient id="paint2_linear_37_1528" x1="237.648" y1="260.284" x2="350.461" y2="455.699" gradientUnits="userSpaceOnUse"><stop stop-color="#fff"/><stop offset="1" stop-color="#fff" stop-opacity="0"/></linearGradient><linearGradient id="paint3_linear_37_1528" x1="345.277" y1="99.59" x2="449.741" y2="181.368" gradientUnits="userSpaceOnUse"><stop stop-color="#fff"/><stop offset="1" stop-color="#fff" stop-opacity="0"/></linearGradient><linearGradient id="paint4_linear_37_1528" x1="132.899" y1="332.208" x2="106.738" y2="544.359" gradientUnits="userSpaceOnUse"><stop stop-color="#fff"/><stop offset="1" stop-color="#fff" stop-opacity="0"/></linearGradient><linearGradient id="paint5_linear_37_1528" x1="431.974" y1="269.667" x2="465.858" y2="299" gradientUnits="userSpaceOnUse"><stop stop-color="#fff"/><stop offset="1" stop-color="#fff" stop-opacity="0"/></linearGradient><linearGradient id="paint6_linear_37_1528" x1="35.835" y1="351.109" x2="100.956" y2="307.392" gradientUnits="userSpaceOnUse"><stop stop-color="#fff"/><stop offset="1" stop-color="#fff" stop-opacity="0"/></linearGradient></defs></svg>