<svg width="243" height="32" fill="none" xmlns="http://www.w3.org/2000/svg"><path d="M64.326 22.346c.586 0 1.115-.12 1.588-.362.471-.24.883-.569 1.233-.986a4.41 4.41 0 00.793-1.418 5.1 5.1 0 00.27-1.655c0-.611-.1-1.177-.298-1.696a4.116 4.116 0 00-2.183-2.307 3.973 3.973 0 00-1.63-.334 3.5 3.5 0 00-1.09.18 4.487 4.487 0 00-1.956 1.284 2.78 2.78 0 00-.553.967v3.447c.227.536.533 1.025.921 1.468.387.443.836.79 1.346 1.038.51.25 1.03.374 1.56.374zm1.276 3.231c-1.153 0-2.169-.258-3.047-.77a5.475 5.475 0 01-2.055-2.09v8.614h-3.798V10.584h3.316v2.548a6.272 6.272 0 012.154-2.032c.87-.495 1.861-.743 2.976-.743 1.001 0 1.923.196 2.764.588a6.71 6.71 0 012.196 1.64c.624.7 1.11 1.505 1.46 2.41a8.07 8.07 0 01.525 2.93c0 1.42-.28 2.71-.837 3.868-.557 1.159-1.323 2.08-2.295 2.761-.974.682-2.093 1.023-3.36 1.023zM83.514 13.73c-1.153 0-2.182.222-3.09.666-.906.444-1.558 1.082-1.955 1.913v8.985h-3.798v-14.71h3.486v3.032c.53-1.02 1.2-1.823 2.013-2.409.812-.585 1.672-.907 2.579-.963h.482c.113 0 .208.009.283.028v3.458zm4.904 4.25c0 .854.17 1.608.51 2.267a3.9 3.9 0 001.389 1.543c.585.37 1.247.556 1.984.556.718 0 1.37-.19 1.956-.57a4.124 4.124 0 001.402-1.557c.35-.658.525-1.413.525-2.266 0-.834-.175-1.585-.525-2.252-.35-.667-.817-1.186-1.403-1.557a3.58 3.58 0 00-1.955-.556c-.737 0-1.399.19-1.984.57a4.007 4.007 0 00-1.389 1.557c-.34.658-.51 1.413-.51 2.265zm3.883 7.597c-1.21 0-2.296-.201-3.26-.603a7.05 7.05 0 01-2.451-1.668 7.495 7.495 0 01-1.545-2.438 7.834 7.834 0 01-.538-2.887c0-1.028.179-1.999.538-2.915a7.504 7.504 0 011.545-2.439 7.065 7.065 0 012.452-1.668c.963-.401 2.05-.602 3.259-.602s2.29.2 3.245.603a7.25 7.25 0 012.452 1.667 7.22 7.22 0 011.545 2.44c.349.915.524 1.886.524 2.914a8.035 8.035 0 01-.524 2.887 7.325 7.325 0 01-1.531 2.439 7.054 7.054 0 01-2.452 1.667c-.963.402-2.05.603-3.26.603zm12.074-14.993l3.118 4.604.226.505.284-.505 3.089-4.604h3.997l-5.159 7.326 5.244 7.384h-3.997l-3.202-4.576-.256-.477-.226.477-3.175 4.576h-3.996l5.244-7.3-5.159-7.41h3.968zm12.612 14.71V10.442h3.798v14.852h-3.798zm0-16.921v-3.77h3.798v3.77h-3.798zm10.232 8.389h7.766c-.076-.738-.288-1.38-.638-1.925a3.672 3.672 0 00-1.374-1.274 3.945 3.945 0 00-1.899-.457c-.68 0-1.3.152-1.857.457a3.709 3.709 0 00-1.36 1.274c-.35.545-.563 1.187-.638 1.925zm3.883 8.815c-1.19 0-2.268-.201-3.231-.602a7.303 7.303 0 01-2.466-1.654 7.464 7.464 0 01-1.573-2.41 7.563 7.563 0 01-.553-2.873c0-1.402.317-2.682.95-3.841.633-1.158 1.54-2.088 2.721-2.789 1.181-.7 2.574-1.051 4.181-1.051 1.625 0 3.013.35 4.166 1.052 1.152.702 2.036 1.629 2.65 2.78a7.782 7.782 0 01.921 3.72c0 .224-.01.453-.028.687a13.27 13.27 0 01-.057.575h-11.479c.075.74.298 1.386.666 1.94.369.553.841.973 1.417 1.26a4.13 4.13 0 001.857.428c.755 0 1.469-.184 2.14-.552.67-.369 1.128-.855 1.375-1.46l3.259.907a6.168 6.168 0 01-1.545 2.012 7.414 7.414 0 01-2.367 1.375c-.906.33-1.908.496-3.004.496zm15.56 0c-1.266 0-2.475-.208-3.628-.624a8.161 8.161 0 01-2.976-1.842l1.361-2.466c.888.719 1.762 1.247 2.622 1.588.859.34 1.686.51 2.48.51.737 0 1.327-.128 1.771-.383.444-.255.666-.638.666-1.148 0-.354-.123-.63-.368-.825-.246-.196-.6-.368-1.063-.518a48.784 48.784 0 00-1.686-.503c-1.096-.354-2.013-.7-2.75-1.035-.737-.336-1.289-.76-1.658-1.273-.368-.513-.552-1.17-.552-1.973 0-.97.25-1.804.75-2.504.501-.7 1.2-1.245 2.098-1.636.897-.392 1.951-.588 3.16-.588 1.058 0 2.059.166 3.004.496.945.33 1.805.864 2.58 1.601l-1.531 2.41c-.756-.586-1.474-1.016-2.154-1.29a5.506 5.506 0 00-2.069-.411c-.397 0-.77.046-1.119.14-.35.092-.634.246-.851.46-.217.214-.326.516-.326.906 0 .354.099.628.298.823.198.195.5.367.907.516.406.149.902.316 1.488.502 1.19.335 2.197.68 3.018 1.032.823.354 1.441.787 1.857 1.298.415.511.624 1.213.624 2.106 0 1.45-.539 2.586-1.616 3.404-1.077.818-2.522 1.227-4.337 1.227zm8.446-.283v-4.082h3.118v4.082h-3.118zm13.067.283c-1.21 0-2.296-.201-3.26-.603a7.12 7.12 0 01-2.466-1.681 7.739 7.739 0 01-2.125-5.34c0-1.383.316-2.649.949-3.798.633-1.15 1.535-2.07 2.707-2.761 1.171-.691 2.56-1.037 4.166-1.037 1.606 0 2.986.35 4.139 1.049 1.152.699 2.012 1.615 2.579 2.749l-3.713 1.133a3.349 3.349 0 00-1.276-1.261 3.57 3.57 0 00-1.757-.44 3.721 3.721 0 00-3.373 2.072c-.34.658-.51 1.423-.51 2.294 0 .853.175 1.608.524 2.266.35.658.818 1.177 1.403 1.557a3.52 3.52 0 001.956.57 3.754 3.754 0 002.381-.85c.321-.265.557-.567.708-.907l3.713 1.133a6.08 6.08 0 01-1.488 1.984 7.166 7.166 0 01-2.296 1.375c-.878.33-1.866.496-2.961.496zm22.873-.283h-3.798V17.08c0-1.136-.223-1.983-.666-2.542-.445-.558-1.054-.838-1.829-.838-.453 0-.935.13-1.445.388a4.71 4.71 0 00-1.375 1.065 4.243 4.243 0 00-.893 1.564v8.576h-3.797V4.604h3.797v8.724a5.818 5.818 0 012.24-2.186 6.27 6.27 0 013.089-.785c.964 0 1.748.164 2.352.49a3.696 3.696 0 011.418 1.317c.34.552.576 1.168.708 1.85.132.682.199 1.387.199 2.116v9.164zm6.32-8.532h7.766c-.076-.738-.289-1.38-.638-1.925a3.687 3.687 0 00-1.374-1.274 3.948 3.948 0 00-1.899-.457c-.681 0-1.3.152-1.857.457a3.72 3.72 0 00-1.361 1.274c-.349.545-.562 1.187-.637 1.925zm3.883 8.815c-1.191 0-2.268-.201-3.231-.602a7.303 7.303 0 01-2.466-1.654 7.464 7.464 0 01-1.573-2.41 7.544 7.544 0 01-.553-2.873c0-1.402.316-2.682.95-3.841.633-1.158 1.539-2.088 2.72-2.789 1.181-.7 2.575-1.051 4.181-1.051 1.625 0 3.014.35 4.167 1.052 1.152.702 2.035 1.629 2.65 2.78a7.794 7.794 0 01.921 3.72c0 .224-.01.453-.028.687-.02.234-.039.426-.057.575h-11.479c.075.74.297 1.386.666 1.94.368.553.84.973 1.417 1.26a4.13 4.13 0 001.857.428c.755 0 1.468-.184 2.139-.552.671-.369 1.129-.855 1.375-1.46l3.259.907a6.179 6.179 0 01-1.544 2.012 7.414 7.414 0 01-2.367 1.375c-.907.33-1.909.496-3.004.496zm18.309-3.883a3.94 3.94 0 00.511-.663c.131-.22.198-.424.198-.608v-1.465a7.827 7.827 0 00-1.474-.428 8.019 8.019 0 00-1.502-.152c-.983 0-1.79.207-2.423.622-.634.414-.95.962-.95 1.644 0 .368.104.719.312 1.05.208.332.51.599.907.802.397.202.869.303 1.417.303.567 0 1.124-.105 1.672-.317.548-.212.992-.475 1.332-.788zm-9.24-.738c0-.952.27-1.787.808-2.506.539-.719 1.29-1.274 2.254-1.667.963-.391 2.069-.588 3.316-.588.623 0 1.256.048 1.899.142.642.095 1.2.246 1.672.454V16c0-.928-.279-1.642-.836-2.144-.557-.5-1.384-.751-2.48-.751-.813 0-1.587.142-2.324.425-.737.284-1.512.7-2.324 1.247l-1.219-2.494a12.094 12.094 0 013.018-1.445 10.847 10.847 0 013.246-.482c2.115 0 3.764.522 4.945 1.565 1.181 1.043 1.772 2.533 1.772 4.47v4.667c0 .39.071.67.213.838.141.168.373.27.694.307v3.09c-.34.056-.648.103-.921.141a5.21 5.21 0 01-.695.057c-.756 0-1.328-.17-1.714-.51a2.159 2.159 0 01-.723-1.247l-.085-.765a6.5 6.5 0 01-2.409 1.927 6.86 6.86 0 01-2.948.68c-.983 0-1.866-.201-2.65-.602a4.624 4.624 0 01-1.843-1.652c-.444-.7-.666-1.49-.666-2.367zm24.914 1.39a3.43 3.43 0 001.587-.362c.472-.24.883-.569 1.233-.986.349-.418.614-.89.794-1.418a5.12 5.12 0 00.269-1.655 4.7 4.7 0 00-.298-1.696 4.11 4.11 0 00-.864-1.376 4.107 4.107 0 00-1.318-.931 3.974 3.974 0 00-1.63-.334c-.359 0-.723.06-1.091.18a4.479 4.479 0 00-1.956 1.284 2.791 2.791 0 00-.553.967v3.447c.227.536.534 1.025.922 1.468.387.443.836.79 1.346 1.038.51.25 1.03.374 1.559.374zm1.275 3.231c-1.152 0-2.168-.258-3.047-.77a5.486 5.486 0 01-2.055-2.09v8.614h-3.798V10.584h3.317v2.548a6.267 6.267 0 012.154-2.032c.869-.495 1.86-.743 2.976-.743 1.001 0 1.922.196 2.763.588.841.393 1.573.94 2.197 1.64.623.7 1.11 1.505 1.46 2.41a8.09 8.09 0 01.524 2.93c0 1.42-.279 2.71-.836 3.868-.558 1.159-1.323 2.08-2.296 2.761-.973.682-2.093 1.023-3.359 1.023zm-198.094-2.02c-2.548 2.796-6.028 4.382-9.8 4.468-.108.003-.216.003-.325.003a13.7 13.7 0 01-3.9-.56 1.514 1.514 0 01-1.073-1.712l.398-2.259a1.503 1.503 0 011.948-1.17 8.472 8.472 0 002.83.417 8.338 8.338 0 006.019-2.747c2.926-3.207 2.89-8.204-.078-11.376a8.35 8.35 0 00-5.832-2.658 7.292 7.292 0 00-2.27.281 8.025 8.025 0 00-2.8 1.432l-12.75 9.998c-1.087.852-2.653-.087-2.413-1.447l.59-3.348c.065-.366.262-.695.555-.924l10.758-8.438C22.742 1.581 25.77.574 28.79.683c3.636.13 7.01 1.666 9.502 4.327 4.838 5.17 4.894 13.317.123 18.547zM.562 29.323c1.082-.876 2.673.06 2.43 1.432A1.506 1.506 0 011.51 32C.09 32-.54 30.216.562 29.323zm6.852-5.546l2.845-2.303c1.083-.877 2.673.06 2.431 1.432l-1.383 7.85A1.506 1.506 0 019.824 32H7.383a1.506 1.506 0 01-1.484-1.768l.98-5.546c.062-.358.253-.68.535-.91z" fill="#fff"/><path d="M22.39 15.056l-2.768 15.7A1.506 1.506 0 0118.138 32h-2.44a1.506 1.506 0 01-1.484-1.768l2.362-13.395a1.51 1.51 0 01.535-.909l2.847-2.304c1.083-.877 2.673.06 2.431 1.432z" fill="#fff"/></svg>