<svg width="130" height="130" fill="none" xmlns="http://www.w3.org/2000/svg"><path d="M61.953 114.255l22.195-12.897 10.006 5.777-22.193 12.899-10.008-5.779zm33.981-1.145L73.74 126.008c.453-.262.734-.822.736-1.621.004-1.598-1.117-3.546-2.514-4.353l22.193-12.899c1.396.807 2.518 2.757 2.514 4.355-.002.797-.28 1.358-.734 1.62z" fill="#fff"/><path d="M84.192 85.328l-.046 16.036-22.195 12.885.047-16.024c0-1.603-1.118-3.554-2.517-4.355-.7-.408-1.33-.44-1.794-.182l22.194-12.885c.463-.272 1.096-.237 1.795.168 1.4.812 2.516 2.753 2.516 4.357z" fill="#fff"/><path d="M59.485 93.873c1.39.803 2.517 2.748 2.514 4.353l-.046 16.029 10.008 5.779c1.397.807 2.518 2.755 2.514 4.353-.006 1.606-1.134 2.25-2.531 1.442l-12.53-7.235c-.662-.382-1.317-1.066-1.784-1.873-.466-.811-.732-1.709-.73-2.48l.055-18.926c.004-1.606 1.132-2.248 2.53-1.442z" fill="url(#paint0_linear_1_374)"/><path d="M71.959 120.799a.778.778 0 01-.383-.104l-10.006-5.777a.763.763 0 01-.002-1.323l22.196-12.899a.776.776 0 01.765 0l10.008 5.778a.763.763 0 01.002 1.323l-22.196 12.896a.775.775 0 01-.384.106zm-8.48-6.546l8.48 4.898 20.67-12.014-8.479-4.896-20.672 12.012z" fill="#212D40"/><path d="M73.74 126.775a.761.761 0 01-.738-.566.763.763 0 01.354-.86c.218-.128.352-.49.354-.966.004-1.327-.975-3.017-2.133-3.688a.764.764 0 01-.002-1.323l22.195-12.896a.759.759 0 01.383-.103.76.76 0 01.384.101c1.629.938 2.902 3.143 2.898 5.018-.006 1.055-.401 1.862-1.114 2.279L74.125 126.67a.767.767 0 01-.382.105h-.002zm-.416-6.649c1.097 1.074 1.871 2.688 1.914 4.129L95.55 112.45c.22-.128.352-.488.354-.964.004-1.191-.78-2.674-1.778-3.448l-20.802 12.088zm-11.371-5.109a.77.77 0 01-.765-.766l.044-16.028c0-1.337-.975-3.029-2.132-3.69-.42-.249-.799-.31-1.04-.178a.765.765 0 01-.757-1.327L79.497 80.14c.73-.422 1.636-.365 2.562.168 1.625.943 2.898 3.15 2.898 5.019l-.044 16.04a.762.762 0 01-.382.659L62.337 114.91a.758.758 0 01-.382.107h-.002zM59.949 93.26c1.585.956 2.814 3.116 2.814 4.965l-.04 14.695 20.66-11.998.045-15.598c0-1.33-.98-3.02-2.138-3.692-.42-.243-.795-.306-1.023-.172L59.95 93.26z" fill="#212D40"/><path d="M73.083 126.945c-.482 0-.998-.153-1.52-.453l-12.532-7.234c-.78-.451-1.535-1.237-2.064-2.157-.53-.919-.834-1.961-.832-2.862l.056-18.926c.003-1.057.401-1.87 1.12-2.283.722-.415 1.633-.352 2.556.18 1.63.94 2.902 3.147 2.896 5.018l-.044 15.587 9.624 5.556c1.627.942 2.9 3.144 2.896 5.018-.003 1.061-.401 1.87-1.122 2.284a2.04 2.04 0 01-1.034.272zM58.347 94.288a.547.547 0 00-.273.065c-.22.126-.354.488-.354.962l-.053 18.926c0 .639.225 1.404.625 2.094.393.682.956 1.281 1.504 1.596l12.532 7.234c.418.245.803.308 1.026.182.22-.128.356-.488.356-.964.004-1.328-.975-3.02-2.133-3.69l-10.007-5.777a.776.776 0 01-.382-.665l.044-16.028c.006-1.331-.971-3.021-2.13-3.69a1.58 1.58 0 00-.755-.245z" fill="#212D40"/><path d="M105.447 10.088c4.631-2.672 8.399-.525 8.412 4.795l.145 50.647c.016 5.32-3.728 11.803-8.358 14.475l-72.297 41.742c-4.63 2.673-8.397.526-8.412-4.795l-.143-50.646c-.015-5.32 3.728-11.803 8.358-14.476l72.295-41.742z" fill="#fff"/><path d="M15.996 61.19l.147 50.664c.02 2.638.956 4.488 2.45 5.362l8.791 5.112c-1.516-.874-2.432-2.722-2.45-5.383l-.148-50.643c0-2.621.918-5.523 2.39-8.114l-8.789-5.11c-1.476 2.59-2.39 5.49-2.39 8.112h-.001z" fill="url(#paint1_linear_1_374)"/><path d="M102.631 4.397c-1.537-.895-3.636-.77-5.963.581l-72.297 41.75c-2.351 1.349-4.466 3.683-5.983 6.35l8.788 5.11c1.516-2.665 3.625-5 5.965-6.349l72.297-41.749c2.347-1.351 4.447-1.476 5.984-.58l-8.791-5.113z" fill="url(#paint2_linear_1_374)"/><path d="M33.106 66.28c-.008-2.343 2.15-6.07 4.2-7.252l62.003-35.8c2.783-1.606 6.264.398 6.272 3.611l.111 38.712c.008 2.343-2.153 6.071-4.202 7.255l-62.004 35.798c-2.784 1.605-6.263-.396-6.27-3.61l-.11-38.713z" fill="#fff"/><path d="M105.688 65.558c.021 2.342-2.156 6.074-4.206 7.255L39.48 108.611c-2.778 1.596-6.261-.394-6.261-3.607l-.061-16.19c9.14 2.073 19.609 1.74 30.056-1.471 25.599-7.877 41.457-30.181 35.425-49.79a29.396 29.396 0 00-5.888-10.551l6.55-3.772c2.799-1.596 6.261.394 6.282 3.607l.105 38.721z" fill="#E9EDF4"/><path d="M29.587 123.666c-.933 0-1.797-.219-2.57-.665-1.826-1.051-2.837-3.198-2.845-6.047l-.145-50.646c-.013-5.558 3.906-12.35 8.743-15.142l72.295-41.741c2.493-1.438 4.879-1.65 6.716-.593 1.826 1.052 2.835 3.199 2.845 6.05l.143 50.646c.015 5.557-3.906 12.35-8.741 15.14L33.733 122.41c-1.447.834-2.858 1.256-4.146 1.256zM109.206 9.7c-1.017 0-2.168.352-3.376 1.052L33.534 52.489c-4.414 2.547-7.99 8.745-7.976 13.813l.144 50.646c.006 2.281.743 3.958 2.078 4.726 1.34.773 3.183.566 5.187-.592l72.297-41.742c4.412-2.546 7.991-8.742 7.974-13.81l-.144-50.647c-.005-2.28-.741-3.957-2.078-4.726a3.58 3.58 0 00-1.81-.457z" fill="#212D40"/><path d="M27.384 123.093a.76.76 0 01-.38-.103H27l-.038-.023-8.752-5.09c-1.805-1.053-2.81-3.192-2.834-6.018l-.145-50.667c0-2.658.885-5.676 2.491-8.492a.769.769 0 011.052-.283l8.786 5.11a.765.765 0 01.28 1.038c-1.475 2.598-2.287 5.343-2.287 7.737l.145 50.643c.02 2.267.74 3.936 2.036 4.702l.034.02a.763.763 0 01-.384 1.426zM16.762 61.19l.146 50.662c.017 2.261.753 3.934 2.072 4.703l5.611 3.263a9.685 9.685 0 01-.422-2.868l-.148-50.646c0-2.447.754-5.2 2.128-7.829l-7.467-4.34c-1.243 2.386-1.92 4.866-1.92 7.055z" fill="#212D40"/><path d="M27.176 58.953a.76.76 0 01-.384-.103l-8.789-5.11a.765.765 0 01-.28-1.04c1.657-2.91 3.884-5.267 6.268-6.634L96.286 4.313c2.493-1.45 4.883-1.656 6.73-.58l8.782 5.107.008.006a.764.764 0 11-.769 1.323l-.007-.004c-1.346-.778-3.193-.574-5.21.585L33.523 52.5c-2.141 1.238-4.162 3.392-5.684 6.067a.761.761 0 01-.663.386zm-7.737-6.146l7.465 4.34c1.606-2.602 3.663-4.707 5.854-5.971l72.297-41.75a9.64 9.64 0 012.797-1.108l-5.605-3.261c-1.354-.78-3.195-.58-5.192.583L24.754 47.389c-1.975 1.133-3.843 3.041-5.315 5.418zm17.955 57.129a4.947 4.947 0 01-2.466-.665 4.902 4.902 0 01-2.48-4.275l-.107-38.713c-.01-2.606 2.304-6.602 4.583-7.919l62.002-35.796a4.906 4.906 0 014.94-.004 4.901 4.901 0 012.482 4.273l.109 38.714c.007 2.607-2.306 6.605-4.585 7.918l-62.004 35.798a4.957 4.957 0 01-2.472.669h-.002zM101.4 23.431c-.587 0-1.174.152-1.709.462l-62 35.796c-1.828 1.055-3.828 4.504-3.818 6.588l.105 38.715a3.386 3.386 0 001.713 2.952 3.38 3.38 0 003.412-.004l62.005-35.796c1.829-1.053 3.827-4.504 3.817-6.59l-.109-38.713a3.384 3.384 0 00-1.711-2.95 3.421 3.421 0 00-1.705-.458v-.002z" fill="#212D40"/><path d="M88.507 35.306c.849-.489 1.531-.084 1.535.88.002.975-.675 2.156-1.523 2.646-.845.487-1.538.097-1.54-.878-.001-.963.683-2.16 1.528-2.648zm5.705-3.292c.847-.49 1.53-.084 1.533.88.002.975-.675 2.154-1.524 2.646-.845.487-1.537.097-1.539-.878-.003-.963.685-2.16 1.53-2.648zm5.7-3.292c.85-.49 1.532-.084 1.536.88.002.975-.675 2.154-1.524 2.646-.845.485-1.537.097-1.539-.88-.004-.963.683-2.16 1.528-2.646z" fill="#212D40"/><path d="M69.351 51.509c10.192-5.885 18.917-2.327 22.374-.389.927.53.933 2.243.011 3.841-3.447 5.91-12.111 19.477-22.303 25.362-10.18 5.877-18.892 2.342-22.36.424-.929-.53-.933-2.242-.011-3.84 3.433-5.917 12.096-19.514 22.29-25.398z" fill="url(#paint3_linear_1_374)"/><path d="M91.736 54.958c-3.455 5.918-12.117 19.47-22.31 25.369-10.173 5.863-18.89 2.336-22.345.413-.933-.524-.933-2.241-.02-3.828.152-.262.318-.522.486-.822 2.26.411 4.63.635 7.059.635 16.93 0 30.651-10.584 30.651-23.633 0-1.53-.185-3.044-.558-4.481a23.082 23.082 0 017.018 2.502c.933.541.933 2.258.019 3.845z" fill="url(#paint4_linear_1_374)"/><path d="M57.898 84.314c-5.135 0-9.161-1.775-11.194-2.9a2.115 2.115 0 01-.986-1.334c-.275-1.01-.02-2.342.68-3.556 3.321-5.718 12.163-19.668 22.57-25.679 10.607-6.12 19.71-2.313 23.13-.39.481.274.822.734.982 1.33.275 1.014.02 2.343-.682 3.557-3.333 5.716-12.201 19.649-22.582 25.644-4.306 2.485-8.376 3.328-11.918 3.328zM69.735 52.17c-10.092 5.825-18.754 19.51-22.011 25.12-.486.842-.694 1.782-.53 2.39.053.201.141.335.258.402 3.2 1.768 11.723 5.276 21.597-.42 10.066-5.813 18.755-19.482 22.024-25.087.49-.841.696-1.78.531-2.388-.053-.198-.141-.334-.258-.401-3.19-1.788-11.69-5.347-21.61.384z" fill="#212D40"/><path d="M69.368 57.1c4.245-2.448 7.693-.497 7.705 4.378.015 4.877-3.41 10.813-7.655 13.262-4.233 2.444-7.681.478-7.695-4.397-.013-4.875 3.413-10.8 7.645-13.242z" fill="#fff"/><path d="M65.98 76.559a4.699 4.699 0 01-2.381-.616c-1.696-.975-2.633-2.963-2.64-5.6-.016-5.102 3.586-11.34 8.027-13.906 2.307-1.33 4.517-1.525 6.22-.546 1.69.973 2.626 2.957 2.633 5.588.016 5.108-3.594 11.355-8.038 13.925-1.333.768-2.631 1.155-3.82 1.155zm6.84-19.755c-.924 0-1.97.322-3.07.958-4.018 2.321-7.275 7.963-7.26 12.58.004 2.064.669 3.584 1.87 4.276 1.21.694 2.87.501 4.674-.54 4.026-2.322 7.29-7.973 7.274-12.596-.006-2.062-.667-3.578-1.864-4.267a3.223 3.223 0 00-1.625-.41z" fill="#212D40"/><path d="M69.388 62.7c1.548-.895 2.806-.181 2.81 1.598.004 1.78-1.243 3.946-2.791 4.84-1.545.89-2.805.173-2.81-1.607-.004-1.778 1.246-3.938 2.79-4.83z" fill="#212D40"/><defs><linearGradient id="paint0_linear_1_374" x1="56.9" y1="93.525" x2="75.418" y2="94.069" gradientUnits="userSpaceOnUse"><stop stop-color="#634ECA"/><stop offset=".568" stop-color="#A42FB7"/><stop offset="1" stop-color="#CA4E5D"/></linearGradient><linearGradient id="paint1_linear_1_374" x1="15.996" y1="53.078" x2="28.005" y2="53.186" gradientUnits="userSpaceOnUse"><stop stop-color="#634ECA"/><stop offset=".568" stop-color="#A42FB7"/><stop offset="1" stop-color="#CA4E5D"/></linearGradient><linearGradient id="paint2_linear_1_374" x1="18.387" y1="3.824" x2="115.649" y2="12.905" gradientUnits="userSpaceOnUse"><stop stop-color="#634ECA"/><stop offset=".568" stop-color="#A42FB7"/><stop offset="1" stop-color="#CA4E5D"/></linearGradient><linearGradient id="paint3_linear_1_374" x1="46.374" y1="48.27" x2="94.691" y2="51.709" gradientUnits="userSpaceOnUse"><stop stop-color="#634ECA"/><stop offset=".568" stop-color="#A42FB7"/><stop offset="1" stop-color="#CA4E5D"/></linearGradient><linearGradient id="paint4_linear_1_374" x1="46.379" y1="48.611" x2="94.681" y2="52.082" gradientUnits="userSpaceOnUse"><stop stop-color="#634ECA"/><stop offset=".568" stop-color="#A42FB7"/><stop offset="1" stop-color="#CA4E5D"/></linearGradient></defs></svg>