<svg width="130" height="130" fill="none" xmlns="http://www.w3.org/2000/svg"><path d="M72.072 98.356a3.292 3.292 0 01-3.292-3.282l-.15-52.566a3.29 3.29 0 013.283-3.302h.01a3.293 3.293 0 013.292 3.283l.149 52.566a3.29 3.29 0 01-3.283 3.301h-.01zm24.23-11.476c-.924 0-1.85-.24-2.692-.726a5.354 5.354 0 01-2.719-4.675l-.138-48.899a3.293 3.293 0 013.283-3.301c1.787 0 3.296 1.464 3.302 3.282l.132 46.865 8.415-4.89a3.295 3.295 0 013.65.229 3.284 3.284 0 01.621 4.613c-.263.343-.59.632-.964.85L99.018 86.14a5.398 5.398 0 01-2.717.74zm-43.06 20.389a5.437 5.437 0 01-2.693 4.686l-12.273 7.144a3.286 3.286 0 01-3.663-.23 3.287 3.287 0 01-.85-.97 3.279 3.279 0 011.2-4.493l11.696-6.795-.136-50.67a3.288 3.288 0 013.273-3.312c1.82-.02 3.29 1.472 3.309 3.29l.138 51.35z" fill="#fff"/><path d="M72.072 99.121a4.064 4.064 0 01-4.057-4.043l-.15-52.568a4.03 4.03 0 011.18-2.871 4.032 4.032 0 012.866-1.197 4.068 4.068 0 014.07 4.045l.15 52.568a4.064 4.064 0 01-4.048 4.066h-.011zm-.15-59.15a2.52 2.52 0 00-1.793.746 2.5 2.5 0 00-.734 1.787l.15 52.568a2.53 2.53 0 002.527 2.52h.01a2.531 2.531 0 002.517-2.533l-.15-52.568a2.53 2.53 0 00-2.526-2.52zm24.381 47.676a6.194 6.194 0 01-3.074-.828 6.114 6.114 0 01-3.103-5.338l-.137-48.899a4.063 4.063 0 014.045-4.068 4.072 4.072 0 014.068 4.043L98.23 78.1l7.271-4.225a4.02 4.02 0 013.078-.414 4.024 4.024 0 012.466 1.885c.547.936.692 2.028.415 3.074a4.036 4.036 0 01-1.883 2.47L99.402 86.8a6.153 6.153 0 01-3.099.848zm-2.267-57.604c-.673 0-1.308.268-1.784.746a2.495 2.495 0 00-.732 1.787l.138 48.901a4.588 4.588 0 002.332 4.015 4.658 4.658 0 004.642-.013l10.176-5.913a2.522 2.522 0 00-.623-4.627 2.513 2.513 0 00-1.916.256l-8.415 4.89a.77.77 0 01-1.151-.659l-.132-46.863a2.536 2.536 0 00-2.535-2.52zm-57.428 90.268a4.071 4.071 0 01-3.506-2.026 4.041 4.041 0 01-.416-3.079 4.042 4.042 0 011.896-2.462l11.31-6.572-.134-50.23a4.063 4.063 0 014.028-4.078h.044c2.206 0 4.015 1.807 4.042 4.047l.133 51.356a6.205 6.205 0 01-3.07 5.349l-12.277 7.145c-.65.363-1.354.55-2.05.55zM49.83 53.394h-.029a2.531 2.531 0 00-2.514 2.538l.136 50.678a.766.766 0 01-.382.663l-11.692 6.794a2.495 2.495 0 00-1.182 1.528 2.522 2.522 0 00.256 1.921 2.579 2.579 0 003.48.916l12.264-7.139a4.66 4.66 0 002.31-4.022l-.135-51.35a2.54 2.54 0 00-2.512-2.527z" fill="#212D40"/><path d="M88.232 4.785l9.692 5.632c-2.584-1.503-6.163-1.292-10.113.99-2.386 1.377-4.607 3.333-6.595 5.677l-9.693-5.633c1.988-2.343 4.21-4.301 6.596-5.678 3.95-2.28 7.528-2.49 10.113-.988z" fill="url(#paint0_linear_4_5169)"/><path d="M81.216 17.848a.765.765 0 01-.385-.103l-9.692-5.634a.765.765 0 01-.197-1.155c2.116-2.498 4.405-4.466 6.794-5.844 4.068-2.348 7.934-2.701 10.882-.986l9.693 5.632a.765.765 0 01-.77 1.32l-.008-.003c-2.453-1.423-5.77-1.069-9.341.994-2.241 1.294-4.392 3.147-6.393 5.51a.761.761 0 01-.583.267v.002zm-8.508-6.592l8.343 4.847c1.998-2.266 4.141-4.067 6.376-5.357 2.1-1.214 4.146-1.895 6.041-2.032l-5.62-3.267c-2.453-1.427-5.772-1.073-9.347.99-2.017 1.162-3.961 2.783-5.793 4.82z" fill="#212D40"/><path d="M27.115 96.875l-9.693-5.632c-3.116-1.81-5.051-5.653-5.066-11.12-.016-5.484 1.887-11.567 5.009-16.974l9.692 5.632c-3.122 5.407-5.024 11.49-5.009 16.973.016 5.468 1.95 9.31 5.067 11.12z" fill="url(#paint1_linear_4_5169)"/><path d="M57.99 20.788c-3.507-1.122-7.907-.435-12.697 2.339-11.46 6.6-20.742 22.667-20.696 35.868 0 4.034.893 7.336 2.453 9.788l-9.697-5.64c-1.558-2.452-2.428-5.729-2.453-9.788-.044-13.177 9.238-29.244 20.697-35.868 4.814-2.772 9.192-3.46 12.698-2.336l9.695 5.637z" fill="url(#paint2_linear_4_5169)"/><path d="M68.059 7.695l9.692 5.632c-3.142-1.828-7.507-1.564-12.344 1.227-2.676 1.549-5.177 3.663-7.414 6.234l-9.692-5.632c2.236-2.57 4.737-4.687 7.414-6.232 4.836-2.793 9.2-3.057 12.344-1.23z" fill="url(#paint3_linear_4_5169)"/><path d="M27.115 97.64a.76.76 0 01-.385-.104h-.002l-9.692-5.632c-3.493-2.032-5.43-6.215-5.447-11.78-.015-5.458 1.801-11.624 5.112-17.359a.769.769 0 011.048-.277l9.693 5.634a.765.765 0 01.279 1.044c-3.182 5.504-4.923 11.394-4.908 16.586.014 4.994 1.673 8.706 4.674 10.458l.012.005a.765.765 0 01-.383 1.425h-.001zm-9.466-33.441c-2.938 5.31-4.544 10.937-4.53 15.921.017 4.998 1.68 8.714 4.687 10.461l5.215 3.03c-1.13-2.104-1.73-4.767-1.74-7.857-.01-5.246 1.664-11.145 4.738-16.69L17.65 64.2z" fill="#212D40"/><path d="M27.05 69.546a.758.758 0 01-.385-.103l-9.696-5.64a.773.773 0 01-.26-.248c-1.684-2.65-2.549-6.08-2.573-10.194-.044-13.401 9.411-29.79 21.079-36.534 4.865-2.806 9.47-3.632 13.313-2.405l9.846 5.705a.765.765 0 01-.618 1.39c-3.433-1.103-7.614-.317-12.08 2.271-11.247 6.477-20.36 22.27-20.315 35.203 0 3.736.807 6.978 2.333 9.381a.765.765 0 01-.644 1.174zm-9.146-6.968l7.295 4.244c-.899-2.25-1.369-4.908-1.369-7.827-.044-13.42 9.412-29.81 21.083-36.534 3.28-1.898 6.45-2.892 9.352-2.953l-6.354-3.698c-3.262-1.024-7.445-.242-11.93 2.34-11.247 6.5-20.36 22.291-20.314 35.203.019 3.74.772 6.843 2.237 9.225z" fill="#212D40"/><path d="M57.993 21.553a.765.765 0 01-.382-.103l-9.694-5.632a.765.765 0 01-.192-1.164c2.32-2.667 4.88-4.818 7.607-6.393 4.923-2.845 9.578-3.28 13.111-1.228l9.693 5.632a.764.764 0 11-.769 1.323c-3.038-1.762-7.15-1.326-11.576 1.23-2.584 1.49-5.012 3.533-7.22 6.073a.763.763 0 01-.578.262zm-8.497-6.584l8.34 4.847c2.207-2.45 4.621-4.44 7.189-5.921 2.762-1.595 5.439-2.432 7.88-2.497l-5.228-3.044c-3.038-1.762-7.147-1.328-11.578 1.23-2.34 1.351-4.558 3.16-6.601 5.381l-.002.004z" fill="#212D40"/><path d="M45.292 23.119c4.8-2.772 9.195-3.455 12.701-2.33 2.237-2.572 4.736-4.688 7.414-6.233 7.04-4.064 13.083-2.772 15.809 2.528 1.988-2.344 4.21-4.302 6.595-5.678 7.858-4.537 14.243-.88 14.27 8.15 0 .353 0 .707-.058 1.091 6.007-1.562 10.4 2.233 10.421 9.767.025 8.995-6.289 19.986-14.147 24.523-1.025.59-1.992 1.047-2.929 1.336-2.565 4.783-6.291 8.972-10.463 11.379-4.359 2.517-8.287 2.496-10.916.426-2.665 6.439-7.398 12.405-12.813 15.531-4.156 2.4-7.922 2.67-10.667 1.122-2.992 4.592-6.835 8.512-11.05 10.945-9.555 5.518-17.38 1.092-17.41-9.922-.016-5.48 1.886-11.566 5.008-16.973-1.562-2.45-2.45-5.743-2.462-9.795-.038-13.184 9.24-29.252 20.697-35.867z" fill="#fff"/><path d="M112.444 30.407c.019 9.004-6.293 20.002-14.154 24.531-1.025.584-1.975 1.046-2.924 1.339-2.555 4.78-6.293 8.964-10.457 11.384-4.355 2.516-8.285 2.478-10.918.425-2.673 6.429-7.398 12.392-12.818 15.529-4.145 2.401-7.919 2.672-10.668 1.124-2.982 4.588-6.836 8.5-11.038 10.94-9.565 5.516-17.388 1.083-17.426-9.934 0-3.66.852-7.61 2.363-11.423 15.237 2.787 33.226-1.3 48.715-12.49 17.543-12.642 27.455-31.173 27.688-48.291.813 1.589 1.277 3.623 1.277 6.022 0 .35 0 .698-.057 1.086 6.003-1.568 10.398 2.225 10.417 9.758z" fill="#E9EDF4"/><path d="M31.688 98.823c-1.792 0-3.453-.42-4.923-1.267-3.518-2.023-5.466-6.214-5.483-11.8-.012-5.334 1.72-11.339 4.886-16.96-1.54-2.609-2.326-5.907-2.34-9.807-.038-13.412 9.421-29.8 21.083-36.532 4.655-2.687 9.07-3.563 12.834-2.54 2.23-2.497 4.678-4.522 7.28-6.024 4.015-2.32 7.857-3.044 11.101-2.09 2.16.635 3.944 2 5.22 3.973 1.911-2.113 3.955-3.804 6.08-5.03 4.056-2.342 7.91-2.701 10.856-1.006 2.929 1.687 4.55 5.172 4.563 9.813v.134c2.562-.44 4.843.058 6.651 1.45 2.382 1.837 3.702 5.13 3.713 9.275.027 9.248-6.49 20.546-14.53 25.186a16.81 16.81 0 01-2.185 1.084c-.375.141-.69.406-.894.751-2.71 4.741-6.37 8.605-10.31 10.88-3.422 1.977-6.82 2.539-9.567 1.577-.837-.292-1.709.04-2.08.79-2.938 5.901-7.341 10.855-12.082 13.592-3.468 2.002-6.793 2.65-9.601 1.874-.75-.204-1.482.011-1.868.552-2.982 4.157-6.527 7.49-10.25 9.64-2.86 1.651-5.635 2.485-8.154 2.485zm22.86-77.79c-2.705 0-5.716.925-8.87 2.747-11.241 6.49-20.355 22.283-20.318 35.204.011 3.808.799 6.966 2.341 9.387a.762.762 0 01.02.795c-3.182 5.504-4.923 11.394-4.908 16.586.014 5.017 1.688 8.737 4.715 10.477 3.053 1.758 7.155 1.323 11.549-1.214 3.536-2.042 6.914-5.225 9.77-9.207.765-1.065 2.144-1.51 3.518-1.136 2.422.665 5.33.065 8.431-1.724 4.487-2.59 8.67-7.31 11.476-12.949.727-1.449 2.386-2.099 3.956-1.552 2.319.81 5.263.292 8.297-1.457 3.709-2.141 7.17-5.804 9.746-10.314a3.28 3.28 0 011.652-1.413 15.688 15.688 0 001.99-.988c7.616-4.397 13.791-15.101 13.765-23.859-.008-3.66-1.115-6.527-3.116-8.067-1.656-1.277-3.845-1.61-6.346-.96a.763.763 0 01-.702-.173.765.765 0 01-.246-.68c.052-.336.048-.642.048-.948-.012-4.103-1.36-7.12-3.799-8.523-2.449-1.409-5.76-1.051-9.325 1.004-2.24 1.294-4.392 3.147-6.393 5.51a.765.765 0 01-1.262-.146c-1.088-2.11-2.76-3.55-4.843-4.162-2.83-.833-6.257-.158-9.903 1.947-2.584 1.49-5.012 3.533-7.22 6.073a.77.77 0 01-.81.226 10.48 10.48 0 00-3.213-.484z" fill="#212D40"/><path d="M110.802 68.67c3.77-2.175 6.831-.437 6.844 3.885.012 4.332-3.03 9.601-6.8 11.777-3.762 2.172-6.817.424-6.829-3.908-.013-4.322 3.021-9.582 6.785-11.753z" fill="#fff"/><path d="M117.652 72.559c0 4.336-3.04 9.605-6.794 11.773-2.792 1.606-5.191 1.065-6.256-1.065.755-.077 1.587-.37 2.459-.872 3.756-2.168 6.796-7.437 6.796-11.773 0-1.122-.212-2.07-.6-2.825 2.556-.37 4.376 1.432 4.395 4.762z" fill="#E9EDF4"/><path d="M107.791 86.033a4.272 4.272 0 01-2.155-.556c-1.529-.882-2.378-2.677-2.385-5.051-.014-4.634 3.135-10.09 7.169-12.417 2.078-1.199 4.072-1.373 5.609-.486 1.529.88 2.374 2.666 2.382 5.032.013 4.566-3.21 10.146-7.183 12.438-1.196.692-2.364 1.04-3.437 1.04zm6.074-17.536c-.803 0-1.715.279-2.679.835-3.544 2.046-6.417 7.02-6.404 11.09.006 1.807.579 3.132 1.619 3.728 1.042.6 2.485.43 4.063-.48 3.55-2.05 6.429-7.035 6.416-11.11-.006-1.798-.58-3.117-1.614-3.71a2.774 2.774 0 00-1.401-.353z" fill="#212D40"/><path d="M72.72 90.528c3.768-2.176 6.83-.438 6.844 3.886.011 4.33-3.03 9.599-6.8 11.777-3.763 2.172-6.818.42-6.83-3.91-.013-4.32 3.023-9.58 6.788-11.753h-.002z" fill="#fff"/><path d="M79.57 94.416c0 4.338-3.04 9.605-6.797 11.773-2.787 1.606-5.188 1.065-6.251-1.065.753-.076 1.587-.369 2.456-.872 3.757-2.168 6.797-7.436 6.797-11.772 0-1.123-.213-2.07-.6-2.826 2.556-.369 4.377 1.432 4.397 4.762h-.002z" fill="#E9EDF4"/><path d="M69.709 107.89c-.78 0-1.507-.183-2.157-.558-1.53-.879-2.376-2.673-2.384-5.047-.011-4.636 3.135-10.09 7.17-12.419 2.076-1.198 4.068-1.372 5.61-.485 1.528.88 2.373 2.665 2.38 5.031.012 4.644-3.142 10.108-7.182 12.438-1.197.692-2.365 1.04-3.437 1.04zm3.393-16.699c-3.544 2.046-6.416 7.02-6.402 11.088.003 1.807.579 3.132 1.617 3.728 1.046.601 2.485.432 4.064-.478 3.549-2.051 6.428-7.035 6.416-11.113-.005-1.797-.575-3.116-1.611-3.709-1.046-.604-2.497-.432-4.084.484z" fill="#212D40"/><path d="M35.205 109.582c3.768-2.173 6.83-.436 6.844 3.887.012 4.33-3.03 9.601-6.8 11.776-3.762 2.172-6.817.423-6.83-3.907-.012-4.323 3.024-9.584 6.786-11.756z" fill="#fff"/><path d="M42.055 113.473c0 4.336-3.04 9.603-6.796 11.772-2.788 1.606-5.189 1.063-6.254-1.066.756-.077 1.587-.367 2.459-.87 3.757-2.17 6.796-7.437 6.796-11.773 0-1.124-.212-2.072-.6-2.827 2.556-.367 4.378 1.433 4.395 4.764z" fill="#E9EDF4"/><path d="M32.194 126.947a4.265 4.265 0 01-2.156-.558c-1.53-.882-2.377-2.677-2.384-5.047-.012-4.636 3.135-10.093 7.169-12.419 2.076-1.199 4.068-1.373 5.61-.488 1.528.88 2.373 2.667 2.381 5.032.011 4.646-3.143 10.109-7.182 12.44-1.197.692-2.365 1.04-3.438 1.04zm3.393-16.701c-3.544 2.045-6.415 7.02-6.402 11.09.004 1.805.58 3.129 1.617 3.728 1.042.6 2.486.428 4.065-.482 3.548-2.047 6.427-7.033 6.416-11.111-.006-1.797-.578-3.114-1.612-3.709-1.046-.6-2.497-.432-4.084.484z" fill="#212D40"/><defs><linearGradient id="paint0_linear_4_5169" x1="71.523" y1="3.825" x2="99.04" y2="6.814" gradientUnits="userSpaceOnUse"><stop stop-color="#634ECA"/><stop offset=".568" stop-color="#A42FB7"/><stop offset="1" stop-color="#CA4E5D"/></linearGradient><linearGradient id="paint1_linear_4_5169" x1="12.356" y1="63.149" x2="27.911" y2="63.521" gradientUnits="userSpaceOnUse"><stop stop-color="#634ECA"/><stop offset=".568" stop-color="#A42FB7"/><stop offset="1" stop-color="#CA4E5D"/></linearGradient><linearGradient id="paint2_linear_4_5169" x1="14.9" y1="14.636" x2="60.255" y2="16.605" gradientUnits="userSpaceOnUse"><stop stop-color="#634ECA"/><stop offset=".568" stop-color="#A42FB7"/><stop offset="1" stop-color="#CA4E5D"/></linearGradient><linearGradient id="paint3_linear_4_5169" x1="48.301" y1="6.531" x2="78.969" y2="9.987" gradientUnits="userSpaceOnUse"><stop stop-color="#634ECA"/><stop offset=".568" stop-color="#A42FB7"/><stop offset="1" stop-color="#CA4E5D"/></linearGradient></defs></svg>