<svg width="131" height="130" fill="none" xmlns="http://www.w3.org/2000/svg"><path d="M90.612 96.324c-.667-.397-1.605-.344-2.636.252l-3.973 2.297-6.14-3.58 3.972-2.295c1.03-.58 1.97-.65 2.639-.253l6.138 3.58z" fill="#fff"/><path d="M63.643 110.638l-6.137-3.57 20.365-11.767 6.136 3.568-20.364 11.769z" fill="#fff"/><path d="M63.649 110.643l-3.973 2.294c-2.059 1.176-3.72 4.069-3.72 6.437l.02 6.04-6.124-3.581-.02-6.038c-.018-2.368 1.645-5.243 3.704-6.436l3.972-2.295 6.141 3.579z" fill="url(#paint0_linear_1_337)"/><path d="M87.974 96.575c2.057-1.188 3.717-.226 3.723 2.14l.019 6.042-35.737 20.651-.017-6.041c-.008-2.365 1.655-5.246 3.71-6.435l3.971-2.294 20.363-11.77 3.968-2.293z" fill="#fff"/><path d="M84.004 99.637a.765.765 0 01-.385-.103l-6.14-3.579a.765.765 0 010-1.325l3.976-2.296c1.27-.713 2.478-.803 3.409-.246l6.102 3.556a.767.767 0 01-.74 1.34l-.022-.014c-.442-.248-1.115-.154-1.843.268l-3.975 2.298a.779.779 0 01-.382.101zm-4.617-4.341l4.619 2.691 3.588-2.072a6.3 6.3 0 01.42-.22l-3.926-2.288c-.438-.262-1.122-.168-1.877.256l-2.824 1.633z" fill="#000"/><path d="M63.644 111.404a.764.764 0 01-.385-.105l-6.137-3.569a.774.774 0 01-.38-.664.765.765 0 01.384-.661l20.36-11.767a.77.77 0 01.77.002l6.136 3.567a.764.764 0 01-.004 1.325l-20.362 11.769a.777.777 0 01-.382.103zm-4.612-4.334l4.612 2.684 18.838-10.887-4.611-2.682-18.839 10.885z" fill="#000"/><path d="M55.973 126.178a.763.763 0 01-.384-.105l-6.123-3.579a.764.764 0 01-.379-.657l-.019-6.042c-.02-2.638 1.774-5.758 4.084-7.096l3.974-2.3a.772.772 0 01.768.002l6.141 3.579a.758.758 0 01.381.663.766.766 0 01-.385.662l-3.972 2.296c-1.813 1.034-3.338 3.678-3.338 5.773l.019 6.038a.765.765 0 01-.767.766zm-5.358-4.781l4.59 2.682-.014-4.699c0-2.669 1.803-5.789 4.107-7.104l2.83-1.635-4.621-2.691-3.589 2.074c-1.816 1.051-3.336 3.693-3.32 5.768l.017 5.605z" fill="#000"/><path d="M55.98 126.173a.773.773 0 01-.765-.765l-.018-6.037c-.007-2.652 1.792-5.77 4.093-7.101l28.304-16.357c1.237-.717 2.441-.808 3.39-.266.95.547 1.474 1.635 1.477 3.065l.02 6.041a.763.763 0 01-.383.665L56.36 126.069a.77.77 0 01-.38.104zm33.66-29.34c-.375 0-.817.137-1.281.405l-28.302 16.359c-1.812 1.046-3.336 3.688-3.33 5.772l.013 4.716 34.207-19.768-.015-5.601c-.002-.845-.262-1.48-.71-1.74a1.159 1.159 0 00-.582-.143z" fill="#000"/><path d="M79.352 84.11l4.653 14.759-20.362 11.769 4.552-20.08 11.157-6.448z" fill="#fff"/><path d="M68.197 90.558L62.06 86.99l11.158-6.448 6.136 3.569-11.157 6.448z" fill="#fff"/><path d="M63.643 111.404a.765.765 0 01-.745-.937l4.551-20.079a.77.77 0 01.364-.491l11.157-6.449a.763.763 0 011.112.434l4.652 14.757a.764.764 0 01-.344.893l-20.365 11.769a.778.778 0 01-.382.103zm5.225-20.35L64.777 109.1 83.09 98.513l-4.18-13.264-10.043 5.805z" fill="#000"/><path d="M68.197 91.325a.765.765 0 01-.386-.105l-6.135-3.57a.765.765 0 01.002-1.324l11.157-6.449a.772.772 0 01.769.002l6.135 3.571a.764.764 0 01-.002 1.323L68.58 91.222a.776.776 0 01-.383.103zm-4.611-4.334l4.611 2.684 9.632-5.567-4.612-2.684-9.631 5.567z" fill="#000"/><path d="M63.643 110.638l-6.137-3.57 4.554-20.079 6.137 3.57-4.554 20.079z" fill="url(#paint1_linear_1_337)"/><path d="M63.643 111.404a.763.763 0 01-.384-.105l-6.137-3.569a.762.762 0 01-.36-.832l4.553-20.08a.767.767 0 011.131-.49l6.135 3.57a.765.765 0 01.361.83l-4.553 20.08a.767.767 0 01-.746.596zm-5.265-4.714l4.749 2.762 4.198-18.513-4.749-2.765-4.198 18.516z" fill="#000"/><path d="M100.902 10.039c4.024-2.325 7.299-.46 7.312 4.171l.124 49.47c.014 4.63-3.238 10.269-7.264 12.595l-62.832 36.313c-4.025 2.326-7.298.458-7.311-4.17l-.124-49.47c-.014-4.631 3.238-10.27 7.264-12.595l62.831-36.314z" fill="#fff"/><path d="M23.162 54.497l.126 49.486c.019 2.294.831 3.904 2.131 4.664l7.64 4.447c-1.32-.759-2.113-2.368-2.132-4.684l-.126-49.466c0-2.281.795-4.805 2.076-7.059l-7.637-4.447c-1.285 2.254-2.078 4.778-2.078 7.059z" fill="url(#paint2_linear_1_337)"/><path d="M98.455 5.085c-1.337-.776-3.16-.667-5.181.509L30.44 41.914c-2.044 1.173-3.881 3.206-5.2 5.524l7.637 4.447c1.32-2.319 3.15-4.351 5.185-5.525l62.832-36.32c2.04-1.175 3.864-1.282 5.2-.506l-7.64-4.449z" fill="url(#paint3_linear_1_337)"/><path d="M38.03 58.926c-.006-2.04 1.87-5.282 3.65-6.312L95.569 21.47c2.418-1.396 5.442.344 5.45 3.141l.096 39.09c.007 2.038-1.87 5.282-3.652 6.31l-53.887 31.143c-2.418 1.398-5.443-.344-5.45-3.14l-.096-39.089z" fill="#fff"/><path d="M101.112 63.706c.019 2.038-1.874 5.284-3.657 6.31l-53.883 31.145c-2.415 1.388-5.441-.344-5.441-3.137l-.054-14.084c7.944 1.803 17.042 1.514 26.123-1.281 22.247-6.854 36.029-31.667 30.787-48.727a25.58 25.58 0 00-5.116-9.177l5.691-3.284c2.432-1.388 5.441.344 5.46 3.14l.09 39.095z" fill="#E9EDF4"/><path d="M34.97 114.358a4.503 4.503 0 01-2.28-.593c-1.62-.929-2.518-2.829-2.524-5.345l-.124-49.473c-.013-4.865 3.416-10.813 7.645-13.258L100.52 9.375c2.199-1.27 4.306-1.453 5.934-.516 1.622.933 2.518 2.831 2.524 5.35l.126 49.47c.013 4.865-3.416 10.813-7.647 13.258l-62.83 36.316c-1.273.736-2.518 1.107-3.654 1.107l-.001-.002zM104.17 9.8c-.866 0-1.847.302-2.881.902L38.45 47.014c-3.804 2.199-6.894 7.551-6.882 11.93l.126 49.472c.006 1.948.63 3.376 1.757 4.026 1.137.652 2.701.471 4.406-.516l62.832-36.314c3.809-2.198 6.896-7.551 6.883-11.93l-.125-49.47c-.005-1.948-.63-3.378-1.758-4.028a3.03 3.03 0 00-1.524-.382l.004-.002z" fill="#000"/><path d="M33.059 113.861a.767.767 0 01-.413-.123l-7.613-4.431c-1.6-.933-2.49-2.822-2.51-5.319l-.126-49.49c0-2.332.774-4.972 2.18-7.438a.768.768 0 011.049-.281l7.635 4.445a.765.765 0 01.282 1.038c-1.276 2.242-1.977 4.615-1.977 6.681l.126 49.465c.015 1.939.627 3.363 1.726 4.011l.025.016a.76.76 0 01.355.861.762.762 0 01-.74.565zm-9.133-59.366l.127 49.486c.015 1.931.636 3.355 1.75 4.005l4.66 2.711a8.743 8.743 0 01-.3-2.281l-.127-49.47c0-2.123.64-4.5 1.817-6.774l-6.317-3.676c-1.042 2.034-1.61 4.137-1.61 5.999z" fill="#000"/><path d="M32.877 52.65a.762.762 0 01-.384-.105L24.855 48.1a.765.765 0 01-.28-1.04c1.448-2.547 3.396-4.607 5.484-5.81L92.89 4.932c2.199-1.28 4.31-1.457 5.95-.503l7.639 4.447a.768.768 0 01.4.77.764.764 0 01-1.168.551c-1.138-.663-2.715-.483-4.436.509l-62.83 36.318c-1.847 1.064-3.586 2.925-4.902 5.238a.763.763 0 01-.665.388zm-6.584-5.483l6.315 3.676c1.395-2.24 3.177-4.053 5.072-5.146l62.83-36.32a8.744 8.744 0 012.213-.92L98.07 5.75c-1.14-.662-2.707-.484-4.414.506l-62.834 36.32c-1.679.965-3.27 2.58-4.53 4.59l.001.002zm15.466 55.246a4.386 4.386 0 01-2.193-.592 4.358 4.358 0 01-2.206-3.805l-.095-39.09c-.006-2.294 2.028-5.815 4.033-6.974L95.185 20.81a4.342 4.342 0 014.39-.004 4.359 4.359 0 012.208 3.804l.095 39.088c.008 2.298-2.026 5.818-4.033 6.978l-53.887 31.143a4.41 4.41 0 01-2.199.594zm55.625-80.669c-.493 0-.985.132-1.434.39L42.065 53.277c-1.535.885-3.275 3.892-3.27 5.645l.095 39.092a2.844 2.844 0 001.44 2.482 2.836 2.836 0 002.863-.002L97.08 69.351c1.533-.885 3.275-3.894 3.269-5.647l-.096-39.09a2.844 2.844 0 00-1.44-2.483 2.86 2.86 0 00-1.43-.387z" fill="#000"/><path d="M71.237 41.502c8.461-4.882 15.332-.957 15.36 8.75.014 4.734-1.6 9.967-4.236 14.654l-11.076-6.309-.048-17.095z" fill="url(#paint4_linear_1_337)"/><path d="M86.594 50.256c.013 4.728-1.598 9.96-4.235 14.652l-3.722-2.124c3.13-1.975 5.233-5.663 5.233-9.876 0-6.303-4.692-11.407-10.48-11.407-.742 0-1.463.086-2.155.242v-.242c8.463-4.885 15.338-.956 15.359 8.755z" fill="url(#paint5_linear_1_337)"/><path d="M82.361 65.673a.778.778 0 01-.38-.102l-11.075-6.308a.765.765 0 01-.386-.664l-.05-17.095a.765.765 0 01.383-.665c4.353-2.508 8.482-2.892 11.635-1.082 3.13 1.8 4.861 5.529 4.875 10.495.013 4.696-1.526 10.037-4.336 15.03a.765.765 0 01-.666.39zm-10.314-7.521l10.018 5.705c2.447-4.57 3.78-9.372 3.768-13.603-.013-4.397-1.472-7.654-4.11-9.172-2.568-1.472-6.007-1.166-9.722.868l.046 16.202z" fill="#000"/><path d="M67.862 63.036l11.08 6.31c-2.777 4.94-6.686 9.277-11.028 11.781-4.342 2.505-8.263 2.689-11.056.964l11.005-19.054z" fill="url(#paint6_linear_1_337)"/><path d="M78.941 69.345c-2.774 4.94-6.69 9.276-11.023 11.786-4.344 2.503-8.265 2.688-11.06.962l1.761-3.044c1.085.3 2.205.45 3.33.45 6.332 0 11.465-4.7 11.465-10.49a9.7 9.7 0 00-.506-3.101l6.033 3.437z" fill="url(#paint7_linear_1_337)"/><path d="M61.051 84c-1.682 0-3.233-.42-4.596-1.259a.765.765 0 01-.26-1.032l11.006-19.055a.765.765 0 011.04-.283l11.077 6.309a.764.764 0 01.288 1.042c-2.968 5.288-6.987 9.574-11.31 12.069C65.75 83.259 63.288 84 61.051 84zm-3.14-2.207c2.603 1.231 5.985.774 9.62-1.327 3.91-2.256 7.57-6.087 10.363-10.836l-9.75-5.553-10.232 17.716z" fill="#000"/><path d="M67.815 45.941l.048 17.095-11.005 19.055c-2.655-1.636-4.297-4.982-4.31-9.715-.027-9.716 6.805-21.55 15.267-26.435z" fill="#fff"/><path d="M67.86 63.035l-11 19.06c-2.046-1.262-3.495-3.544-4.05-6.697h.092c6.625 0 11.987-7.507 11.987-16.77 0-3.323-.692-6.41-1.883-9.012 1.51-1.455 3.13-2.703 4.812-3.67l.044 17.089z" fill="#E9EDF4"/><path d="M56.857 82.856a.765.765 0 01-.402-.115c-2.997-1.849-4.659-5.529-4.672-10.364-.029-9.946 6.993-22.101 15.65-27.097a.764.764 0 011.147.661l.047 17.092a.765.765 0 01-.103.386L57.52 82.473a.76.76 0 01-.663.383zm10.197-35.54c-7.7 5.116-13.767 16.04-13.742 25.058.012 3.905 1.178 6.926 3.3 8.61l10.486-18.152-.044-15.516z" fill="#000"/><defs><linearGradient id="paint0_linear_1_337" x1="49.833" y1="107.064" x2="64.378" y2="107.662" gradientUnits="userSpaceOnUse"><stop stop-color="#634ECA"/><stop offset=".568" stop-color="#A42FB7"/><stop offset="1" stop-color="#CA4E5D"/></linearGradient><linearGradient id="paint1_linear_1_337" x1="57.506" y1="86.989" x2="68.773" y2="87.267" gradientUnits="userSpaceOnUse"><stop stop-color="#634ECA"/><stop offset=".568" stop-color="#A42FB7"/><stop offset="1" stop-color="#CA4E5D"/></linearGradient><linearGradient id="paint2_linear_1_337" x1="23.162" y1="47.438" x2="33.598" y2="47.524" gradientUnits="userSpaceOnUse"><stop stop-color="#634ECA"/><stop offset=".568" stop-color="#A42FB7"/><stop offset="1" stop-color="#CA4E5D"/></linearGradient><linearGradient id="paint3_linear_1_337" x1="25.24" y1="4.589" x2="109.77" y2="12.473" gradientUnits="userSpaceOnUse"><stop stop-color="#634ECA"/><stop offset=".568" stop-color="#A42FB7"/><stop offset="1" stop-color="#CA4E5D"/></linearGradient><linearGradient id="paint4_linear_1_337" x1="71.237" y1="39.403" x2="87.418" y2="39.935" gradientUnits="userSpaceOnUse"><stop stop-color="#634ECA"/><stop offset=".568" stop-color="#A42FB7"/><stop offset="1" stop-color="#CA4E5D"/></linearGradient><linearGradient id="paint5_linear_1_337" x1="71.235" y1="39.401" x2="87.415" y2="39.932" gradientUnits="userSpaceOnUse"><stop stop-color="#634ECA"/><stop offset=".568" stop-color="#A42FB7"/><stop offset="1" stop-color="#CA4E5D"/></linearGradient><linearGradient id="paint6_linear_1_337" x1="56.858" y1="63.036" x2="80.063" y2="64.421" gradientUnits="userSpaceOnUse"><stop stop-color="#634ECA"/><stop offset=".568" stop-color="#A42FB7"/><stop offset="1" stop-color="#CA4E5D"/></linearGradient><linearGradient id="paint7_linear_1_337" x1="56.858" y1="65.908" x2="80.034" y2="67.52" gradientUnits="userSpaceOnUse"><stop stop-color="#634ECA"/><stop offset=".568" stop-color="#A42FB7"/><stop offset="1" stop-color="#CA4E5D"/></linearGradient></defs></svg>