<svg width="131" height="130" fill="none" xmlns="http://www.w3.org/2000/svg"><path d="M63.995 36.816l-9.433-5.48c1.76 1.02 4.026.734 6.29-.574 3.435-1.983 6.863-6.317 8.488-12.002.74-2.604 2.47-5.12 4.495-6.29l9.432 5.481c-2.026 1.17-3.754 3.686-4.492 6.29-1.63 5.686-5.055 10.018-8.489 12.002-2.267 1.308-4.534 1.594-6.291.573z" fill="url(#paint0_linear_1_312)"/><path d="M66.373 38.2a5.429 5.429 0 01-2.762-.724L54.186 32l-.008-.004a.763.763 0 01.187-1.406.766.766 0 01.584.085c1.455.847 3.418.64 5.52-.575 3.572-2.061 6.69-6.487 8.137-11.551.815-2.864 2.715-5.51 4.847-6.74a.764.764 0 01.766 0l9.433 5.482a.766.766 0 01-.002 1.323c-1.805 1.042-3.432 3.334-4.14 5.836-1.555 5.43-4.943 10.205-8.843 12.456-1.491.86-2.952 1.296-4.294 1.296zm-8.129-5.61l6.137 3.565c1.455.847 3.417.64 5.522-.573 3.57-2.063 6.687-6.487 8.136-11.553.677-2.388 2.114-4.627 3.81-6.018l-7.999-4.648c-1.655 1.126-3.11 3.273-3.772 5.605-1.554 5.43-4.942 10.204-8.842 12.456a9.727 9.727 0 01-2.991 1.166z" fill="#000"/><path d="M98.7 9.887l11.336 1.664c.306.057.593.153.841.306l-9.444-5.487a2.022 2.022 0 00-.765-.268l-.057-.038-11.337-1.663a3.168 3.168 0 00-1.164.06l9.439 5.486a3.08 3.08 0 011.15-.06z" fill="url(#paint1_linear_1_312)"/><path d="M110.877 12.621a.757.757 0 01-.384-.103l-.075-.044a1.91 1.91 0 00-.523-.172l-11.307-1.66a2.494 2.494 0 00-.873.052.788.788 0 01-.55-.086l-9.44-5.485a.764.764 0 01.215-1.405 3.904 3.904 0 011.453-.072l11.331 1.663c.074.01.147.03.214.063.306.057.593.172.879.336l9.349 5.43c.038.025.076.044.115.067a.761.761 0 01.335.861.763.763 0 01-.739.555zm-12.065-3.49l7.829 1.146-5.592-3.246a1.286 1.286 0 00-.478-.172.754.754 0 01-.22-.063l-8.96-1.311 6.297 3.657c.372-.06.75-.065 1.124-.012z" fill="#000"/><path d="M88.11 4.462c-.45.103-.916.289-1.376.57l-12.905 7.456 9.444 5.467L96.16 10.5a5.01 5.01 0 011.39-.554l-9.44-5.484z" fill="url(#paint2_linear_1_312)"/><path d="M83.271 18.722a.757.757 0 01-.382-.106l-9.444-5.467a.76.76 0 010-1.325l12.904-7.456a5.372 5.372 0 011.595-.65.791.791 0 01.552.084l9.439 5.483a.765.765 0 01-.222 1.41 4.211 4.211 0 00-1.174.468l-12.885 7.455a.776.776 0 01-.383.104zm-7.914-6.235l7.914 4.585 12.503-7.236.033-.017L88 5.284a3.998 3.998 0 00-.872.401l-11.772 6.802z" fill="#000"/><path d="M30.849 57.309l11.26-14.74a9.833 9.833 0 011.182-1.298l-9.435-5.481c-.41.382-.805.816-1.172 1.292l-11.26 14.74a10.885 10.885 0 00-1.902 3.938l9.413 5.468c.344-1.338 1-2.72 1.914-3.92z" fill="url(#paint3_linear_1_312)"/><path d="M28.935 61.995a.765.765 0 01-.384-.104l-9.414-5.471a.765.765 0 01-.357-.849 11.65 11.65 0 012.04-4.215l11.256-14.738a11.31 11.31 0 011.262-1.388.765.765 0 01.902-.1l9.435 5.481a.76.76 0 01.134 1.224 9.034 9.034 0 00-1.09 1.195l-11.26 14.743a10.41 10.41 0 00-1.784 3.648.765.765 0 01-.74.574zm-8.515-6.596l8.066 4.684a11.943 11.943 0 011.755-3.239l11.26-14.74c.172-.225.356-.449.553-.665l-8.078-4.695c-.238.25-.468.52-.688.805L22.03 52.289a10.046 10.046 0 00-1.612 3.108l.002.002z" fill="#000"/><path d="M44.67 40.237l12.58-7.265c1.281-.727 2.428-.784 3.308-.287l-9.444-5.487c-.86-.497-2.027-.44-3.308.287l-12.56 7.265a7.258 7.258 0 00-1.39 1.04l9.434 5.481c.45-.413.914-.767 1.38-1.034z" fill="url(#paint4_linear_1_312)"/><path d="M43.29 42.038a.775.775 0 01-.384-.105l-9.434-5.481a.763.763 0 01-.138-1.22 8.103 8.103 0 011.537-1.147l12.553-7.263c1.49-.843 2.934-.939 4.072-.287l9.446 5.49a.765.765 0 01-.76 1.326c-.844-.476-1.855-.111-2.553.286l-12.576 7.261c-.447.265-.864.58-1.242.937a.765.765 0 01-.52.203zm-8.094-6.353l8.005 4.65a8.004 8.004 0 011.09-.762L56.87 32.31a6.42 6.42 0 01.833-.398L50.73 27.86c-.648-.373-1.552-.273-2.544.289L35.63 35.413c-.145.08-.288.173-.434.272z" fill="#000"/><path d="M19.522 55.76c-.255 1-.37 1.983-.237 2.83l9.558 59.035c.192 1.032.65 1.797 1.339 2.198l9.444 5.487c-.688-.401-1.166-1.166-1.338-2.198l-9.56-59.036c-.14-.854-.053-1.839.207-2.848l-9.413-5.468z" fill="url(#paint5_linear_1_312)"/><path d="M39.624 126.075a.756.756 0 01-.383-.105h-.003l-9.443-5.485c-.879-.512-1.47-1.453-1.705-2.72L18.53 58.71c-.136-.889-.052-1.944.252-3.139a.765.765 0 011.128-.472l9.411 5.47c.297.171.44.52.356.852-.243.943-.31 1.816-.191 2.533l9.559 59.035c.128.782.472 1.373.967 1.66a.765.765 0 01-.388 1.426zM20.059 56.957a5.242 5.242 0 00-.02 1.518l9.56 59.03c.1.55.355 1.301.967 1.659l6.96 4.043-9.554-59.008a7.29 7.29 0 01.091-2.59l-8.004-4.652z" fill="#000"/><path d="M96.157 10.509c.89-.514 1.783-.734 2.542-.61l11.337 1.66c1.638.248 2.501 1.969 2.164 4.368l-9.813 70.206c-.277 1.9-1.248 3.951-2.638 5.525l-27.445 30.951a8.452 8.452 0 01-2.052 1.721c-.707.407-1.416.634-2.074.646l-27.237.652c-1.407.038-2.388-.912-2.661-2.511l-9.557-59.035c-.323-1.99.512-4.664 2.133-6.78L42.111 42.57c.769-1.004 1.658-1.814 2.562-2.334l12.572-7.26c2.001-1.156 3.714-.642 4.465 1.075 1.637 3.805 5.109 4.193 8.575 2.193 3.435-1.982 6.863-6.316 8.488-12.002.74-2.604 2.468-5.12 4.493-6.29l12.89-7.444z" fill="#fff"/><path d="M40.859 126.392c-1.727 0-2.998-1.196-3.332-3.146l-9.56-59.043c-.357-2.199.54-5.091 2.282-7.368l11.256-14.73c.826-1.083 1.79-1.958 2.785-2.534l12.572-7.259c1.23-.707 2.432-.902 3.48-.558.915.302 1.632.99 2.068 1.99.612 1.426 1.51 2.34 2.66 2.723 1.353.445 3.068.133 4.832-.887 3.572-2.061 6.688-6.485 8.137-11.551.812-2.862 2.715-5.51 4.846-6.741l12.89-7.443c1.062-.611 2.117-.85 3.047-.7l11.325 1.656c2.076.314 3.206 2.419 2.81 5.233l-9.813 70.206c-.302 2.074-1.329 4.232-2.82 5.926l-27.447 30.948a9.16 9.16 0 01-2.242 1.873c-.838.486-1.658.736-2.442.753l-27.235.65-.1.002zm18.423-93.273c-.497 0-1.059.172-1.655.518l-12.572 7.26c-.822.473-1.63 1.213-2.336 2.137L31.464 57.766c-1.477 1.925-2.275 4.416-1.986 6.192l9.559 59.035c.12.711.54 1.851 1.883 1.87l27.239-.65c.518-.012 1.109-.201 1.71-.551.636-.365 1.28-.906 1.863-1.564l27.445-30.947c1.281-1.453 2.199-3.369 2.453-5.127l9.811-70.2c.274-1.95-.325-3.329-1.522-3.51l-11.334-1.658c-.582-.101-1.306.088-2.046.516l-12.891 7.44c-1.805 1.043-3.432 3.335-4.14 5.837-1.555 5.43-4.943 10.205-8.843 12.455-2.18 1.258-4.282 1.612-6.08 1.014-1.56-.516-2.798-1.75-3.58-3.566-.178-.405-.522-.94-1.145-1.147a1.836 1.836 0 00-.58-.086h.002z" fill="#000"/><path d="M94.096 21.006c.734-.42 1.453-.6 2.078-.51l5.429.799c1.335.199 2.034 1.592 1.759 3.55l-8.341 59.618c-.214 1.545-1.017 3.216-2.137 4.482L71.92 112.593a6.91 6.91 0 01-1.667 1.394c-.577.333-1.155.52-1.69.531l-20.721.499c-1.136.025-1.947-.73-2.157-2.041L37.56 62.822c-.262-1.619.428-3.802 1.744-5.517l5.433-7.112c.621-.808 1.34-1.462 2.072-1.885l6.116-3.53c1.28-.74 2.466-.666 3.204.131 3.25 3.589 8.482 3.91 14.195.612 5.785-3.34 10.916-9.576 14.122-16.948.717-1.65 1.898-3.091 3.193-3.839l6.456-3.728z" fill="url(#paint6_linear_1_312)"/><path d="M103.364 24.837l-8.335 59.628c-.23 1.549-1.033 3.212-2.141 4.474l-20.973 23.649c-.516.592-1.09 1.07-1.663 1.395-.573.344-1.147.516-1.682.535l-20.724.497c-1.147.02-1.95-.726-2.16-2.045l-1.128-6.978c26.86-.325 48.54-24.222 48.54-53.663 0-9.75-2.37-18.889-6.538-26.765a5.17 5.17 0 011.07-.822l6.462-3.728c.746-.42 1.453-.612 2.084-.516l5.429.803c1.338.19 2.027 1.587 1.759 3.537z" fill="url(#paint7_linear_1_312)"/><path d="M47.79 115.784c-1.5 0-2.592-1.023-2.86-2.686l-8.124-50.151c-.296-1.83.447-4.225 1.892-6.107l5.432-7.111c.682-.887 1.478-1.608 2.298-2.084l6.114-3.531c1.567-.903 3.16-.795 4.148.275 3.07 3.393 7.901 3.562 13.252.47 5.59-3.229 10.622-9.276 13.803-16.59.788-1.812 2.1-3.382 3.512-4.196l6.456-3.728c.885-.509 1.773-.715 2.57-.604l5.433.797c1.774.266 2.738 2.038 2.403 4.414l-8.34 59.618c-.234 1.68-1.102 3.503-2.324 4.883L72.493 113.1c-.574.642-1.214 1.177-1.855 1.548-.7.402-1.392.618-2.055.631l-20.721.501-.071.004zm6.837-70.756c-.526 0-1.047.254-1.319.41l-6.114 3.532c-.65.374-1.29.96-1.85 1.688l-5.432 7.111c-1.185 1.541-1.825 3.524-1.596 4.933l8.125 50.149c.103.643.42 1.402 1.35 1.402h.038l20.718-.499c.398-.012.856-.159 1.325-.432.502-.289 1.013-.717 1.48-1.239L92.31 88.434c1.03-1.16 1.759-2.686 1.956-4.078l8.339-59.62c.16-1.14-.035-2.525-1.115-2.688l-5.43-.797c-.446-.057-1.005.084-1.582.417l-6.456 3.728c-1.138.655-2.212 1.955-2.873 3.48-3.31 7.608-8.573 13.917-14.442 17.306-5.94 3.428-11.604 3.147-15.145-.76a1.223 1.223 0 00-.937-.396l.002.002z" fill="#000"/><path d="M70.42 54.906c.796-.46 1.591-.392 1.891.483l2.76 8.1c.268.784 1.027.985 1.888.49l8.859-5.116c1.92-1.109 2.72 1.252 1.176 3.441l-7.148 10.12c-.689.974-.981 2.169-.712 2.95l2.769 8.115c.456 1.334-.643 3.358-1.88 4.072-.386.223-.787.317-1.158.221l-7.188-1.843c-.349-.09-.758.002-1.167.24a3.77 3.77 0 00-1.158 1.102L62.19 97.41c-.3.45-.695.83-1.156 1.115-1.235.713-2.344-.039-1.897-1.893l2.715-11.28c.264-1.09-.029-1.944-.726-2.122l-7.181-1.846c-1.553-.402-.769-3.677 1.15-4.784l8.862-5.115c.86-.498 1.613-1.572 1.877-2.662l2.705-11.256c.295-1.22 1.088-2.2 1.882-2.66v-.001z" fill="#fff"/><path d="M79.85 72.421c-.689.975-.995 2.18-.708 2.944l2.753 8.125c.459 1.339-.631 3.365-1.874 4.072-.382.23-.784.325-1.147.23l-7.188-1.855c-.363-.095-.765 0-1.185.249-.402.23-.803.612-1.147 1.09l-7.17 10.132c-.363.516-.764.899-1.147 1.109-1.242.726-2.351-.038-1.892-1.893l2.39-9.922c9.807-2.504 17.033-10.897 17.033-20.876 0-.899-.057-1.797-.172-2.677l7.418-4.282c1.93-1.109 2.715 1.242 1.185 3.441l-7.15 10.113z" fill="#E9EDF4"/><path d="M60.145 99.555a1.793 1.793 0 01-1.088-.354c-.713-.533-.956-1.535-.663-2.749l2.714-11.28c.163-.672.039-1.146-.17-1.198l-7.184-1.849c-.753-.197-1.252-.806-1.371-1.674-.191-1.419.698-3.57 2.332-4.512l8.858-5.116c.676-.39 1.3-1.286 1.518-2.18l2.705-11.256c.317-1.323 1.177-2.527 2.242-3.143.675-.388 1.358-.485 1.93-.271.349.134.817.44 1.066 1.166l2.762 8.104c.042.12.1.197.169.224.103.038.315.019.611-.153l8.86-5.114c.994-.572 1.953-.501 2.575.177.88.964.713 2.801-.394 4.367L80.47 72.863c-.612.872-.773 1.799-.612 2.263l2.768 8.116c.593 1.74-.707 4.105-2.22 4.98-.586.34-1.187.44-1.731.302l-7.19-1.843c-.13-.038-.358.025-.595.16-.32.182-.646.498-.918.88l-7.161 10.132a4.565 4.565 0 01-1.396 1.333c-.385.233-.824.36-1.273.369h.002zm10.658-43.986c-.535.308-1.252 1.065-1.52 2.178l-2.705 11.256c-.318 1.308-1.197 2.543-2.239 3.145l-8.86 5.116c-1.037.596-1.702 2.093-1.58 2.978.048.352.185.388.237.402l7.179 1.847c1.118.282 1.644 1.533 1.28 3.041l-2.714 11.28c-.153.638-.06 1.051.092 1.166.126.094.4.046.68-.115.216-.126.555-.384.912-.893l7.162-10.128c.401-.574.887-1.03 1.401-1.327.6-.344 1.204-.45 1.74-.317l7.188 1.845c.204.057.453-.067.585-.146 1.023-.59 1.841-2.275 1.539-3.162l-2.768-8.115c-.348-1.012-.03-2.442.808-3.636l7.148-10.121c.838-1.186.744-2.199.51-2.455-.152-.166-.557.046-.678.117l-8.859 5.115c-.66.383-1.338.478-1.912.258a1.835 1.835 0 01-1.08-1.16l-2.762-8.106c-.03-.088-.083-.2-.159-.23-.103-.038-.334.003-.625.167z" fill="#000"/><defs><linearGradient id="paint0_linear_1_312" x1="54.562" y1="12.47" x2="84.715" y2="14.362" gradientUnits="userSpaceOnUse"><stop stop-color="#634ECA"/><stop offset=".568" stop-color="#A42FB7"/><stop offset="1" stop-color="#CA4E5D"/></linearGradient><linearGradient id="paint1_linear_1_312" x1="88.11" y1="4.373" x2="111.476" y2="8.251" gradientUnits="userSpaceOnUse"><stop stop-color="#634ECA"/><stop offset=".568" stop-color="#A42FB7"/><stop offset="1" stop-color="#CA4E5D"/></linearGradient><linearGradient id="paint2_linear_1_312" x1="73.829" y1="4.462" x2="98.615" y2="6.839" gradientUnits="userSpaceOnUse"><stop stop-color="#634ECA"/><stop offset=".568" stop-color="#A42FB7"/><stop offset="1" stop-color="#CA4E5D"/></linearGradient><linearGradient id="paint3_linear_1_312" x1="19.522" y1="35.79" x2="44.523" y2="37.064" gradientUnits="userSpaceOnUse"><stop stop-color="#634ECA"/><stop offset=".568" stop-color="#A42FB7"/><stop offset="1" stop-color="#CA4E5D"/></linearGradient><linearGradient id="paint4_linear_1_312" x1="33.856" y1="26.874" x2="61.729" y2="29.694" gradientUnits="userSpaceOnUse"><stop stop-color="#634ECA"/><stop offset=".568" stop-color="#A42FB7"/><stop offset="1" stop-color="#CA4E5D"/></linearGradient><linearGradient id="paint5_linear_1_312" x1="19.23" y1="55.76" x2="40.733" y2="56.104" gradientUnits="userSpaceOnUse"><stop stop-color="#634ECA"/><stop offset=".568" stop-color="#A42FB7"/><stop offset="1" stop-color="#CA4E5D"/></linearGradient><linearGradient id="paint6_linear_1_312" x1="37.506" y1="20.473" x2="106.917" y2="23.113" gradientUnits="userSpaceOnUse"><stop stop-color="#634ECA"/><stop offset=".568" stop-color="#A42FB7"/><stop offset="1" stop-color="#CA4E5D"/></linearGradient><linearGradient id="paint7_linear_1_312" x1="44.558" y1="20.474" x2="106.561" y2="22.58" gradientUnits="userSpaceOnUse"><stop stop-color="#634ECA"/><stop offset=".568" stop-color="#A42FB7"/><stop offset="1" stop-color="#CA4E5D"/></linearGradient></defs></svg>