<svg width="131" height="131" fill="none" xmlns="http://www.w3.org/2000/svg"><path d="M73.82 123.277c-4.674 0-9.352-1.03-12.923-3.091-3.621-2.093-5.62-4.917-5.624-7.953-.004-3.015 1.957-5.816 5.524-7.888 7.105-4.129 18.698-4.129 25.85 0 3.601 2.078 5.587 4.896 5.591 7.934.006 3.022-1.957 5.831-5.525 7.905-3.548 2.063-8.218 3.093-12.893 3.093zm-.114-20.522c-4.403 0-8.8.971-12.14 2.911-3.074 1.788-4.768 4.12-4.764 6.563.004 2.468 1.73 4.824 4.861 6.634 6.716 3.877 17.608 3.877 24.28 0 3.078-1.789 4.772-4.126 4.768-6.582-.004-2.468-1.72-4.818-4.83-6.615-3.364-1.94-7.772-2.911-12.175-2.911z" fill="#000"/><path d="M83.597 43.664l-.03.11a4.162 4.162 0 01-.473.924c-.038.055-.07.109-.11.164a5.586 5.586 0 01-.808.891l-.107.088c-.344.297-.732.58-1.181.841a10.65 10.65 0 01-1.765.801c-.3.11-.615.195-.929.283-.721.205-1.457.357-2.2.455-.1.012-.193.03-.293.039a17.1 17.1 0 01-1.667.095h-.267a17.08 17.08 0 01-1.893-.118 15.783 15.783 0 01-1.594-.274c-.094-.02-.186-.046-.28-.069a13.48 13.48 0 01-1.372-.416c-.082-.03-.168-.054-.249-.084a10.827 10.827 0 01-1.506-.712c-1.962-1.131-2.939-2.615-2.935-4.095l-.195 68.64c-.004 1.478.975 2.962 2.935 4.093.445.259.923.486 1.424.685l.084.027c.08.032.166.055.247.084.286.103.573.21.871.294.165.046.335.082.501.123.096.022.186.047.281.068.085.019.167.044.253.063.323.065.65.123.982.171.119.017.241.026.36.04l.246.027c.12.013.24.03.36.04.325.026.652.044.979.053.103.002.204-.002.306-.002h.267c.15-.002.296.002.444-.004a17.5 17.5 0 001.103-.072l.122-.017c.096-.01.191-.029.287-.039.287-.038.573-.07.856-.12.123-.023.236-.065.356-.09.334-.07.664-.153.992-.247.172-.047.36-.076.528-.131.14-.044.267-.102.401-.151a12.422 12.422 0 001.765-.802 7.68 7.68 0 001.181-.841c.037-.028.075-.057.107-.088.027-.023.058-.044.085-.068.23-.215.437-.434.615-.662.042-.052.069-.107.107-.161.038-.053.077-.108.111-.164.06-.09.13-.178.182-.268.105-.187.193-.376.265-.567.012-.029.016-.058.025-.088.014-.039.02-.075.033-.111.038-.121.078-.239.103-.362.043-.216.066-.436.067-.657l.195-68.64c0 .344-.065.684-.172 1.02z" fill="#fff"/><path d="M83.597 43.664l-.03.11a4.132 4.132 0 01-.473.924c-.038.055-.07.109-.11.164a5.586 5.586 0 01-.807.891c-.033.03-.073.058-.107.088-.344.297-.733.58-1.182.841-.401.234-.841.429-1.288.612v68.546c.376-.16.753-.321 1.093-.52l.12-.07a7.799 7.799 0 001.062-.769l.109-.09c.024-.023.057-.044.082-.068.231-.215.436-.434.615-.662.04-.052.07-.107.107-.161.039-.053.077-.109.111-.164.06-.09.13-.178.182-.268a4.3 4.3 0 00.266-.565c.011-.031.015-.062.025-.09.013-.039.019-.075.032-.111.038-.121.078-.239.103-.362a3.39 3.39 0 00.067-.657l.195-68.64c0 .344-.067.684-.172 1.02z" fill="#E9EDF4"/><path d="M73.245 117.76a17.41 17.41 0 01-1.021-.057l-1.01-.111c-.345-.05-.69-.11-1.032-.18l-.264-.065-.23-.057-.056-.799-.172.745a7.522 7.522 0 01-.364-.09c-.319-.091-.623-.202-.925-.311l-.268-.092a11.464 11.464 0 01-1.606-.759c-2.145-1.239-3.322-2.929-3.316-4.76l.193-68.638a.765.765 0 011.53.003c-.003 1.262.903 2.48 2.551 3.432.436.25.908.468 1.401.66l-.028.797.26-.721c.417.153.849.285 1.294.394l.1.812.168-.745c.495.11 1.001.197 1.518.26l.231.025c1.138.118 2.285.117 3.422-.002l.371.72-.096-.758c.707-.095 1.406-.24 2.092-.434.32-.089.604-.167.875-.264l.354-.136a9.74 9.74 0 001.287-.606c.378-.222.73-.47 1.068-.761a4.97 4.97 0 00.792-.849 3.88 3.88 0 00.478-.889l.159.03v-.076l-.134-.044c.091-.288.135-.548.137-.793a.765.765 0 01.765-.763c.338.021.765.344.765.767l-.195 68.638c-.003.271-.03.542-.082.809a3.372 3.372 0 01-.104.372l-.053.186c-.123.348-.23.571-.354.793-.048.084-.1.165-.157.243l-.187.27-.12.177c-.213.27-.446.521-.698.754l-.186.153c-.372.321-.77.611-1.19.866-.593.344-1.094.573-1.612.781l-.364.138-.47-.638.283.709a5.572 5.572 0 01-.281.105c-.118.038-.245.067-.37.096l-.188.044a17.49 17.49 0 01-1.044.26c-.2.053-.287.076-.375.091-.258.048-.52.079-.782.113l-.332-.726.114.755-.198.027c-.426.048-.853.08-1.281.095l-1.063.004zm-.893-1.579c.31.025.621.04.933.05l.287.764v-.764l.682-.006c.353-.011.705-.034 1.055-.069l.364.723-.115-.757.262-.037c.233-.028.466-.057.696-.095.019-.008.323-.084.342-.088.315-.065.625-.147.935-.234l.267-.065c.08-.019.157-.034.232-.057l.187-.071.191-.072.352-.134a9.935 9.935 0 001.287-.608 7.482 7.482 0 001.068-.761l.169-.138a5.07 5.07 0 00.535-.573l.707.312-.554-.545.109-.157c.158-.258.23-.413.288-.568l.773.071-.707-.302c.022-.071.047-.14.06-.21.03-.146.047-.294.05-.442l.186-65.317c-.099.1-.2.198-.306.292-.44.383-.913.725-1.415 1.02-.476.27-.971.506-1.481.704l-.41.155c-.305.111-.627.201-.948.29-.768.223-1.552.386-2.346.488l-.305.04c-.574.062-1.157.092-1.74.096l-.283.004a19.095 19.095 0 01-1.717-.096l-.254-.028a16.714 16.714 0 01-1.677-.287l-.214-.052a14.945 14.945 0 01-1.53-.458l-.263-.092a11.791 11.791 0 01-1.614-.761 8.472 8.472 0 01-1.797-1.361l-.183 65.244c-.004 1.258.902 2.478 2.55 3.43.413.239.859.449 1.323.635l-.053.787.359-.688c.275.102.545.201.828.283l.287.071.187.044.264.065.084.807.155-.748c.308.063.621.119.936.163l.345.038.229.025.283.803.065-.763z" fill="#000"/><path d="M80.852 38.56c3.877 2.236 3.888 5.884.036 8.124-3.852 2.237-10.138 2.237-14.015 0-3.898-2.252-3.908-5.888-.058-8.125 3.855-2.238 10.139-2.25 14.037 0z" fill="#fff"/><path d="M73.891 49.116c-2.676 0-5.357-.593-7.398-1.77-2.14-1.233-3.315-2.917-3.32-4.741-.001-1.813 1.156-3.485 3.258-4.707 4.073-2.365 10.71-2.365 14.805 0 2.122 1.225 3.294 2.906 3.298 4.73.002 1.816-1.157 3.492-3.262 4.716-2.03 1.181-4.702 1.772-7.38 1.772zm-.065-11.486c-2.403 0-4.802.532-6.624 1.59-1.614.938-2.5 2.138-2.499 3.38.002 1.257.908 2.473 2.552 3.423 3.667 2.114 9.609 2.112 13.249 0 1.614-.939 2.5-2.143 2.499-3.392 0-1.258-.899-2.466-2.533-3.41-1.836-1.06-4.243-1.59-6.644-1.59z" fill="#000"/><path d="M68.133 99.357l-7.229-4.2 13.146-7.59 7.228 4.2-13.145 7.59z" fill="#fff"/><path d="M68.133 100.122a.773.773 0 01-.384-.103l-7.23-4.2a.764.764 0 01.001-1.323l13.147-7.59a.757.757 0 01.767 0l7.23 4.202a.765.765 0 01-.002 1.323l-13.147 7.59a.754.754 0 01-.382.101zm-5.703-4.963l5.705 3.315 11.62-6.708-5.705-3.315-11.62 6.708z" fill="#000"/><path d="M106.672 10.946c4.741-2.74 8.599-.541 8.614 4.91l.148 51.865c.015 5.449-3.818 12.087-8.559 14.824l-74.037 42.747c-4.741 2.736-8.601.537-8.617-4.911l-.147-51.866c-.015-5.449 3.818-12.086 8.56-14.824l74.038-42.745z" fill="#fff"/><path d="M15.066 63.277l.15 51.885c.02 2.701.98 4.596 2.511 5.489l9 5.236c-1.552-.895-2.488-2.789-2.51-5.514l-.149-51.86c0-2.686.937-5.659 2.447-8.309l-9.002-5.234c-1.512 2.652-2.447 5.623-2.447 8.307z" fill="url(#paint0_linear_1_402)"/><path d="M103.787 5.115c-1.573-.914-3.724-.788-6.106.596L23.644 48.466c-2.409 1.38-4.573 3.774-6.129 6.504l8.999 5.234c1.554-2.73 3.714-5.123 6.11-6.504l74.035-42.754c2.405-1.382 4.554-1.51 6.129-.595l-9.001-5.236z" fill="url(#paint1_linear_1_402)"/><path d="M32.587 68.492c-.007-2.401 2.205-6.22 4.302-7.431l63.495-36.658c2.851-1.644 6.414.405 6.424 3.697l.113 39.644c.007 2.4-2.203 6.217-4.302 7.43l-63.497 36.658c-2.849 1.646-6.414-.406-6.424-3.696l-.11-39.644z" fill="#fff"/><path d="M106.917 67.75c.022 2.397-2.209 6.219-4.31 7.43l-63.49 36.659c-2.846 1.635-6.411-.403-6.411-3.693l-.063-16.58c9.36 2.123 20.08 1.784 30.779-1.506 26.216-8.067 42.455-30.907 36.278-50.988a30.103 30.103 0 00-6.028-10.806l6.706-3.863c2.868-1.635 6.412.401 6.433 3.693l.106 39.654z" fill="#E9EDF4"/><path d="M28.984 127.238c-.952 0-1.836-.225-2.623-.678-1.864-1.073-2.895-3.265-2.904-6.175l-.147-51.866c-.016-5.686 3.995-12.637 8.94-15.491l74.04-42.745c2.546-1.47 4.98-1.689 6.857-.608 1.864 1.072 2.897 3.267 2.904 6.176l.147 51.867c.016 5.685-3.995 12.634-8.941 15.489L33.22 125.954c-1.48.852-2.921 1.284-4.236 1.284zM110.52 10.529c-1.046 0-2.228.363-3.467 1.078L33.018 54.352c-4.524 2.612-8.192 8.965-8.179 14.16l.147 51.867c.008 2.342.767 4.066 2.138 4.856 1.384.793 3.276.577 5.33-.606l74.036-42.747c4.526-2.61 8.194-8.964 8.179-14.16l-.147-51.867c-.008-2.342-.765-4.066-2.138-4.856a3.68 3.68 0 00-1.863-.47z" fill="#000"/><path d="M26.728 126.65a.766.766 0 01-.42-.125l-8.967-5.213c-1.841-1.076-2.868-3.258-2.89-6.144l-.15-51.89c0-2.718.906-5.806 2.549-8.687a.766.766 0 011.051-.283l8.999 5.235a.765.765 0 01.279 1.038c-1.51 2.66-2.346 5.477-2.346 7.932l.15 51.858c.018 2.333.764 4.048 2.096 4.837l.035.017a.764.764 0 01.078 1.267.77.77 0 01-.464.158zM15.83 63.275l.149 51.885c.019 2.321.776 4.038 2.131 4.831l5.79 3.365a9.844 9.844 0 01-.448-2.977l-.15-51.866c0-2.508.773-5.334 2.184-8.022l-7.678-4.466c-1.28 2.453-1.976 5.001-1.978 7.25z" fill="#000"/><path d="M26.516 60.969a.758.758 0 01-.387-.105l-8.998-5.233a.764.764 0 01-.281-1.04c1.697-2.98 3.974-5.39 6.412-6.79L97.297 5.05c2.546-1.48 4.989-1.692 6.874-.597l9.005 5.239a.754.754 0 01.381.466.756.756 0 01-.074.598.764.764 0 01-1.078.255c-1.388-.805-3.294-.593-5.362.598L33.006 54.362c-2.195 1.266-4.263 3.474-5.827 6.219a.765.765 0 01-.663.388zm-7.951-6.273l7.675 4.465c1.644-2.671 3.755-4.83 6-6.124l74.038-42.753a9.785 9.785 0 012.906-1.145l-5.781-3.365c-1.386-.804-3.284-.592-5.34.599L24.026 49.128c-2.03 1.164-3.95 3.125-5.46 5.569h-.001zM36.98 113.18c-.864 0-1.73-.229-2.518-.68a5.003 5.003 0 01-2.53-4.361l-.11-39.644c-.01-2.665 2.355-6.749 4.685-8.095l63.494-36.658a4.993 4.993 0 015.041-.004 4.996 4.996 0 012.529 4.361l.113 39.644c.01 2.665-2.355 6.749-4.684 8.095l-63.499 36.658a5.032 5.032 0 01-2.521.684zm65.548-88.59c-.606 0-1.21.16-1.759.477L37.273 61.724c-1.875 1.082-3.929 4.623-3.919 6.764l.109 39.646a3.484 3.484 0 001.763 3.04 3.488 3.488 0 003.513-.004l63.496-36.658c1.877-1.082 3.929-4.623 3.921-6.766l-.111-39.644a3.475 3.475 0 00-1.765-3.04 3.504 3.504 0 00-1.753-.472l.002-.002z" fill="#000"/><path d="M89.323 36.77c.87-.501 1.568-.086 1.571.9.004 1-.69 2.208-1.56 2.71-.864.498-1.573.1-1.575-.9-.004-.986.7-2.211 1.564-2.71zm5.84-3.37c.87-.503 1.568-.088 1.572.898.002 1-.692 2.208-1.56 2.71-.866.498-1.573.102-1.577-.898-.002-.988.7-2.212 1.565-2.71zm5.841-3.373c.87-.5 1.567-.086 1.571.9.002 1-.692 2.209-1.562 2.71-.864.498-1.571.1-1.575-.899-.002-.986.702-2.212 1.566-2.71zM87.507 47.931c.311-.178.573-.207.793-.082.22.126.33.367.333.718l.048 17.246c0 .358-.11.72-.327 1.086-.188.338-.46.621-.79.822-.306.178-.566.203-.776.083-.21-.12-.32-.356-.321-.712l-.048-17.246c0-.351.105-.72.315-1.093.21-.373.467-.644.773-.822zm-4.927 6.175c.424.688.637 1.573.64 2.655a9.975 9.975 0 01-.623 3.384c-.42 1.174-1.112 2.34-2.084 3.499-.973 1.156-2.227 2.179-3.77 3.07l-4.427 2.556.017 5.984c0 .355-.107.715-.325 1.082-.188.337-.46.62-.79.822-.31.18-.567.206-.78.086-.21-.12-.319-.356-.32-.713l-.048-17.105c0-.355.105-.719.315-1.091.21-.373.468-.65.778-.83l5.544-3.202c1.543-.89 2.8-1.32 3.776-1.281.975.034 1.673.395 2.097 1.084zm-2.575 7.228c.673-1.12 1.006-2.212 1.002-3.296-.004-1.082-.34-1.793-1.017-2.13-.675-.338-1.84-.026-3.493.928l-4.212 2.431.021 7.6 4.21-2.43c1.654-.956 2.82-1.988 3.489-3.103zM66.42 78.108c.077.151.12.318.124.487 0 .356-.101.712-.304 1.071a2.116 2.116 0 01-.79.822.946.946 0 01-.619.15.591.591 0 01-.428-.332l-1.594-3.443-8.273 4.776-1.563 5.267c-.1.3-.243.573-.425.822-.168.23-.38.423-.623.57-.323.187-.585.214-.788.09-.204-.127-.307-.364-.31-.72 0-.145.039-.355.123-.628l6.152-20.406c.13-.413.314-.794.547-1.144.233-.35.524-.623.86-.818l.249-.141c.336-.195.627-.259.862-.178a.937.937 0 01.547.51l6.253 13.245zm-11.035.717l6.567-3.791-3.31-7.188-3.257 10.979z" fill="#000"/><defs><linearGradient id="paint0_linear_1_402" x1="15.066" y1="54.97" x2="27.363" y2="55.08" gradientUnits="userSpaceOnUse"><stop stop-color="#634ECA"/><stop offset=".568" stop-color="#A42FB7"/><stop offset="1" stop-color="#CA4E5D"/></linearGradient><linearGradient id="paint1_linear_1_402" x1="17.515" y1="4.53" x2="117.118" y2="13.829" gradientUnits="userSpaceOnUse"><stop stop-color="#634ECA"/><stop offset=".568" stop-color="#A42FB7"/><stop offset="1" stop-color="#CA4E5D"/></linearGradient></defs></svg>