<svg width="130" height="130" fill="none" xmlns="http://www.w3.org/2000/svg"><path d="M14.166 116.514a.762.762 0 01-.748-.62.764.764 0 01.465-.854c1.646-.661 2.922-2.341 3.784-4.999 1.885-5.798 2.225-10.555 1.038-14.54-1.281-4.302-4.378-7.854-7.372-11.292a112.816 112.816 0 01-2.81-3.309c-5.02-6.24-6.678-12.629-4.545-17.527 2.375-5.464 8.81-7.733 13.962-7.156 4.718.53 9.49 3.05 14.181 7.487a.765.765 0 11-1.051 1.113c-4.445-4.206-8.92-6.588-13.302-7.08C13.189 57.231 7.46 59.2 5.38 63.981c-2.696 6.194 2.133 13.224 4.336 15.96a111.062 111.062 0 002.772 3.265c3.1 3.557 6.309 7.24 7.683 11.856 1.277 4.294.935 9.349-1.051 15.453-1.008 3.107-2.581 5.107-4.67 5.944a.742.742 0 01-.284.055z" fill="#212D40"/><path d="M47.316 63.688c-1.068-.62-2.55-.533-4.18.402-3.232 1.868-5.841 6.39-5.828 10.11 0 1.854.654 3.142 1.706 3.766l-19.85-11.551c-1.052-.608-1.704-1.912-1.72-3.751 0-3.72 2.61-8.242 5.841-10.11 1.631-.934 3.115-1.022 4.181-.401l19.85 11.535z" fill="url(#paint0_linear_1_253)"/><path d="M39.013 78.73a.757.757 0 01-.382-.105L18.78 67.078c-1.334-.772-2.082-2.336-2.099-4.407 0-4.028 2.734-8.76 6.223-10.778 1.835-1.05 3.59-1.19 4.948-.398L47.7 63.027a.766.766 0 01-.771 1.323c-.864-.503-2.078-.363-3.414.401-3.013 1.744-5.457 5.98-5.441 9.445 0 1.498.472 2.603 1.328 3.112a.765.765 0 01-.39 1.422zm-13.1-26.21c-.67 0-1.435.235-2.247.698-3.007 1.74-5.456 5.978-5.456 9.448.011 1.499.487 2.6 1.338 3.087l17.15 9.98a7.319 7.319 0 01-.153-1.534c-.017-4.018 2.711-8.75 6.208-10.772a7.7 7.7 0 011.466-.654l-17.137-9.957a2.294 2.294 0 00-1.17-.296z" fill="#212D40"/><path d="M43.14 64.096c3.23-1.864 5.87-.383 5.88 3.338.01 3.72-2.612 8.25-5.84 10.113-3.237 1.87-5.868.37-5.878-3.348-.011-3.72 2.602-8.235 5.839-10.103z" fill="#fff"/><path d="M40.549 79.12a3.785 3.785 0 01-1.91-.495c-1.35-.776-2.096-2.348-2.103-4.424-.01-4.018 2.724-8.746 6.223-10.769 1.818-1.047 3.567-1.195 4.926-.415 1.348.777 2.094 2.344 2.1 4.415.01 3.957-2.78 8.792-6.222 10.78-1.05.604-2.074.908-3.014.908zm5.22-15.065c-.67 0-1.435.234-2.244.704-3.02 1.74-5.467 5.976-5.458 9.438.004 1.51.478 2.61 1.334 3.103.865.497 2.071.354 3.396-.415 3.02-1.74 5.468-5.982 5.458-9.45-.006-1.5-.478-2.6-1.333-3.09a2.278 2.278 0 00-1.152-.29z" fill="#212D40"/><path d="M118.392 89.159v9.486c-.017 6.196-4.091 12.383-12.228 17.11-16.403 9.534-43.03 9.544-59.525.02-8.289-4.786-12.43-11.068-12.413-17.344v-9.484c-.017 6.274 4.124 12.558 12.413 17.341 16.495 9.525 43.12 9.515 59.525-.019 8.135-4.728 12.211-10.914 12.228-17.11z" fill="url(#paint1_linear_1_253)"/><path d="M105.969 71.81c16.497 9.522 16.568 24.946.195 34.459-16.403 9.534-43.03 9.544-59.525.019-16.479-9.513-16.565-24.944-.162-34.478 16.372-9.513 43.013-9.513 59.492 0z" fill="#fff"/><path d="M76.413 123.647c-10.91 0-21.83-2.403-30.158-7.209-8.268-4.776-12.813-11.17-12.793-18.009v-9.484a.764.764 0 111.53 0v.082c.018 6.236 4.285 12.13 12.03 16.598 16.242 9.379 42.602 9.372 58.758-.015 7.622-4.432 11.83-10.272 11.847-16.453a.767.767 0 011.306-.54.756.756 0 01.223.542v9.484c-.019 6.749-4.496 13.058-12.608 17.774-8.295 4.821-19.209 7.23-30.135 7.23zm-41.422-27.93v2.714c-.017 6.271 4.256 12.193 12.03 16.68 16.243 9.381 42.603 9.372 58.759-.015 7.622-4.433 11.83-10.274 11.847-16.455v-2.804c-1.95 4.171-5.722 7.981-11.079 11.094-16.578 9.635-43.626 9.643-60.293.019-5.458-3.151-9.291-7.01-11.264-11.234z" fill="#212D40"/><path d="M76.413 114.161c-10.91 0-21.83-2.403-30.158-7.209-8.24-4.757-12.784-11.13-12.793-17.944-.008-6.78 4.477-13.12 12.63-17.86 16.562-9.625 43.593-9.624 60.26 0 8.247 4.76 12.795 11.136 12.805 17.95.009 6.77-4.468 13.101-12.609 17.833-8.295 4.821-19.209 7.23-30.135 7.23zm-.23-48.723c-10.632 0-21.252 2.344-29.32 7.033-7.664 4.453-11.88 10.326-11.872 16.537.01 6.244 4.282 12.147 12.03 16.617 16.243 9.381 42.603 9.372 58.759-.015 7.649-4.445 11.857-10.31 11.847-16.51-.008-6.246-4.282-12.151-12.038-16.627-8.123-4.69-18.772-7.035-29.405-7.035z" fill="#212D40"/><path d="M126.167 56.99c0 27.54-22.329 49.87-49.87 49.87-27.541 0-49.873-22.33-49.873-49.87 0-27.543 22.33-49.873 49.873-49.873a49.668 49.668 0 0131.062 10.855 49.968 49.968 0 0115.193 20.347 49.65 49.65 0 013.615 18.67z" fill="#fff"/><path d="M117.409 85.188c-8.974 13.077-24.03 21.661-41.107 21.661-27.548 0-49.885-22.313-49.885-49.863 0-18.925 10.537-35.393 26.072-43.844-9.516 8.734-15.47 21.119-15.47 34.87 0 26.486 22.055 47.93 49.278 47.93 11.797 0 22.616-4.019 31.112-10.754z" fill="#E9EDF4"/><path d="M122.278 38.742c-1.349 2.135-2.412 4.573-2.307 7.094.088 2.102.967 4.078 1.543 6.103.581 2.026.829 4.324-.258 6.133-.822 1.37-2.373 2.382-2.597 3.967-.298 2.045 1.719 4.404.352 5.953-1.007 1.141-2.894.554-4.165-.283a16.705 16.705 0 01-4.837-4.915c-.237-.379-.501-.795-.933-.914-.44-.119-.899.124-1.262.407-2.432 1.881-2.868 5.403-4.795 7.8-.304.382-.661.74-1.118.908-1.464.553-2.81-1.091-3.307-2.58-.918-2.733-.899-5.686-1.493-8.508-.597-2.818-2.065-5.749-4.753-6.796-.834-.323-1.738-.442-2.596-.706a8.484 8.484 0 01-5.468-5.238c-.088-.268-.178-.55-.37-.753-.557-.581-1.511-.191-2.251.128-2.248.97-5.099.78-6.882-.904-.635-.6-1.132-1.415-1.147-2.294-.02-1.494 1.317-2.74 1.342-4.235.028-1.673-1.549-2.906-3.06-3.629-1.51-.73-3.23-1.357-4.066-2.81-.535-.95-.596-2.082-.87-3.135-.273-1.052-.913-2.16-1.98-2.37-.69-.142-1.38.127-2.055.315a9.211 9.211 0 01-6.664-.71c-.333-.172-.67-.388-.84-.726-.32-.654.186-1.453.82-1.816 1.128-.64 2.518-.427 3.814-.42 1.296.005 2.824-.414 3.246-1.641.175-.497.125-1.048.23-1.568.321-1.65 2.447-2.651 3.932-1.854 1.474.795 2.184 2.911 3.858 3.055 1.564.13 2.553-1.555 3.62-2.705 1.529-1.65 3.852-2.444 6.102-2.36 2.248.085 4.414.983 6.251 2.285 1.098.774 2.141 1.723 3.441 2.061 1.826.476 3.704-.333 5.512-.889a21.043 21.043 0 017.781-.864c.688.053 1.418.134 2.049-.159.478-.22.834-.63 1.153-1.047l.109-.15a49.967 49.967 0 0115.193 20.347c-.096.14-.184.285-.274.423z" fill="url(#paint2_linear_1_253)"/><path d="M118.669 62.048c-.306 2.044 1.717 4.39.348 5.953-1.021 1.13-2.889.543-4.172-.282a16.914 16.914 0 01-4.846-4.933c-.239-.369-.497-.782-.933-.912-.436-.109-.891.13-1.262.413-2.431 1.891-2.867 5.41-4.779 7.8-.302.392-.673.74-1.128.914-1.457.543-2.803-1.088-3.303-2.587-.912-2.737-.891-5.69-1.5-8.517-.586-2.802-2.064-5.735-4.737-6.779-.847-.325-1.737-.455-2.607-.717a8.53 8.53 0 01-5.474-5.236c-.088-.26-.174-.543-.37-.76-.544-.565-1.5-.173-2.237.131-2.26.977-5.105.782-6.888-.89-.631-.609-1.128-1.413-1.151-2.304-.023-1.5 1.325-2.738 1.348-4.237.019-1.673-1.543-2.911-3.065-3.628-1.499-.717-3.237-1.348-4.063-2.803-.544-.956-.587-2.086-.87-3.13-.282-1.064-.911-2.171-1.976-2.39-.696-.13-1.39.13-2.065.326a9.18 9.18 0 01-6.647-.715c-.348-.174-.675-.392-.849-.717-.325-.652.174-1.457.828-1.826 1.107-.63 2.497-.413 3.8-.413 1.304 0 2.826-.413 3.26-1.652.172-.478.109-1.041.216-1.563.327-1.652 2.455-2.65 3.933-1.847 1.477.803 2.196 2.911 3.869 3.062 1.564.11 2.543-1.563 3.606-2.714 1.085-1.174 2.563-1.891 4.129-2.195-2.74 10.278 2.455 22.878 13.621 30.808 9.364 6.672 20.512 8.278 29.029 5.085.412 1.803.455 3.715-.478 5.279-.826 1.369-2.369 2.39-2.587 3.976z" fill="url(#paint3_linear_1_253)"/><path d="M36.75 39.97c.793-1.217 1.835-2.245 2.867-3.264 2.249-2.218 4.835-4.583 7.992-4.611 4.215-.038 7.192 3.988 10.935 5.926.835.43 1.72.76 2.537 1.22 3.009 1.696 4.8 4.976 5.773 8.291.974 3.315 1.281 6.79 2.184 10.125.539 1.99 1.41 4.072 3.194 5.11 1.438.837 3.514 1.09 4.038 2.669.518 1.568-.979 3.017-2.308 3.994l-9.107 6.687c-.788.58-1.616 1.208-1.966 2.122-.523 1.357.075 3.162-.986 4.16-.528.497-1.3.598-1.97.876-1.57.651-2.511 2.236-3.77 3.38-3.28 2.982-9.126 2.382-11.73-1.21-1.6-2.207-1.954-5.057-2.154-7.774-.058-.745-.1-1.525.19-2.216.268-.63.79-1.127 1.056-1.758.566-1.354-.172-2.855-.562-4.27-.864-3.138.174-6.723 2.583-8.914.264-.239.556-.49.63-.835.077-.337-.076-.679-.23-.987-1.891-3.747-4.895-6.722-8.538-8.76-3.426-1.913-2.625-6.945-.658-9.962z" fill="url(#paint4_linear_1_253)"/><path d="M59.376 83.558c-1.26.76-2.107 2.085-3.216 3.085-3.279 3-9.125 2.39-11.732-1.195-1.587-2.215-1.954-5.062-2.151-7.777-.065-.74-.086-1.522.197-2.218.26-.63.782-1.127 1.042-1.758.587-1.348-.172-2.847-.543-4.26-.87-3.15.174-6.735 2.561-8.928.285-.24.568-.478.654-.827.065-.346-.086-.673-.239-.998-1.89-3.738-4.888-6.715-8.538-8.756-3.433-1.912-2.628-6.932-.654-9.951.784-1.218 1.826-2.26 2.868-3.26 2.239-2.217 4.825-4.584 7.976-4.626 1.78 0 3.325.694 4.8 1.65-3.366 6.67-4.735 16.099-3.257 26.159 1.434 9.776 5.278 18.207 10.232 23.66z" fill="url(#paint5_linear_1_253)"/><path d="M101.318 71.869c-.371 0-.746-.086-1.107-.258-1.19-.566-1.988-1.899-2.342-2.954-.58-1.724-.801-3.527-1.013-5.269-.134-1.1-.276-2.238-.505-3.322-.315-1.5-1.367-5.105-4.282-6.242-.451-.176-.93-.285-1.407-.394-.38-.09-.761-.178-1.134-.293a9.252 9.252 0 01-5.965-5.716c-.07-.214-.134-.409-.204-.478-.203-.214-1.036.15-1.394.3-2.709 1.167-5.808.746-7.708-1.047-.88-.832-1.37-1.84-1.386-2.84-.014-.942.39-1.77.745-2.496.3-.617.585-1.197.593-1.763.029-1.49-1.826-2.544-2.625-2.93l-.638-.3c-1.37-.637-2.922-1.358-3.759-2.816-.434-.77-.593-1.587-.745-2.379-.06-.317-.121-.634-.201-.944-.203-.784-.675-1.673-1.39-1.814-.396-.08-.87.059-1.37.206l-.332.096a9.959 9.959 0 01-7.222-.767c-.43-.226-.904-.528-1.17-1.065-.524-1.063.16-2.27 1.126-2.82 1.097-.623 2.35-.577 3.454-.543.253.01.497-.023.755.02.981 0 2.222-.293 2.505-1.123.072-.204.094-.459.115-.732a6.29 6.29 0 01.09-.738c.194-1.007.925-1.896 1.947-2.382 1.027-.485 2.184-.482 3.096.008.74.4 1.273 1.019 1.79 1.617.592.692 1.108 1.289 1.771 1.346.828.053 1.568-.788 2.329-1.694.222-.266.442-.53.665-.768 1.602-1.729 4.118-2.738 6.691-2.602 2.239.082 4.545.92 6.665 2.424.235.164.47.338.703.516.826.616 1.606 1.199 2.487 1.428 1.331.348 2.748-.117 4.248-.608l.847-.271a21.808 21.808 0 018.066-.897c.707.057 1.258.103 1.669-.088.325-.153.608-.482.866-.822.124-.16.363-.342.568-.369.208-.025.464-.038.625.088a50.767 50.767 0 0115.428 20.66.772.772 0 01-.078.717l-.19.287-.717-.296.647.409c-1.557 2.46-2.275 4.638-2.191 6.653.061 1.415.508 2.778.982 4.221.186.568.371 1.134.536 1.705.793 2.772.68 5.04-.341 6.736-.334.554-.755 1.038-1.164 1.502-.627.717-1.22 1.392-1.331 2.176-.099.684.151 1.502.392 2.298.402 1.325.861 2.827-.221 4.057-1.344 1.52-3.619.867-5.162-.153a17.549 17.549 0 01-5.059-5.141c-.149-.233-.344-.547-.493-.589-.082-.03-.281.036-.589.275-1.258.971-1.94 2.484-2.663 4.084-.556 1.23-1.132 2.504-2.007 3.592-.291.367-.765.895-1.449 1.147a2.39 2.39 0 01-.847.155zM83.169 45.353c.46 0 .918.136 1.297.531.306.32.432.704.535 1.011a7.716 7.716 0 004.97 4.78c.345.103.689.184 1.037.264.548.128 1.093.256 1.615.459 2.543.994 4.447 3.67 5.225 7.35.243 1.15.386 2.32.526 3.453.214 1.744.415 3.391.946 4.969.308.925.944 1.772 1.549 2.06.267.127.51.142.764.05.249-.093.497-.304.784-.669.757-.94 1.269-2.068 1.81-3.269.769-1.698 1.562-3.456 3.12-4.66.673-.523 1.329-.704 1.929-.54.725.199 1.104.803 1.381 1.244a16.01 16.01 0 004.613 4.684c1.072.714 2.527 1.144 3.17.415.491-.558.284-1.351-.096-2.6-.277-.91-.589-1.94-.442-2.957.174-1.231.949-2.113 1.694-2.967.383-.434.742-.845 1.006-1.285.791-1.315.85-3.174.178-5.525-.157-.555-.337-1.1-.517-1.648-.485-1.48-.988-3.01-1.057-4.634-.095-2.338.698-4.804 2.428-7.536v-.004l.13.082a49.239 49.239 0 00-14.288-19.36c-.293.325-.631.617-1.06.812-.774.361-1.586.293-2.307.237a20.508 20.508 0 00-7.618.822l-.823.266c-1.64.535-3.337 1.1-5.106.63-1.172-.303-2.11-1.003-3.019-1.681a30.18 30.18 0 00-.67-.492c-1.878-1.33-3.897-2.072-5.839-2.145-2.116-.08-4.21.708-5.514 2.115-.204.22-.407.462-.611.707-.884 1.057-1.977 2.382-3.633 2.239-1.288-.11-2.091-1.046-2.802-1.874-.444-.516-.865-1.004-1.354-1.265-.487-.264-1.128-.255-1.717.026-.587.277-.998.763-1.103 1.3-.038.184-.05.37-.063.557-.028.342-.057.726-.193 1.114-.464 1.348-1.94 2.153-3.95 2.153-.325-.023-.54-.012-.812-.02-.987-.034-1.923-.066-2.642.341-.354.2-.612.612-.513.814.073.144.312.281.51.389a8.427 8.427 0 006.103.648l.306-.088c.627-.188 1.338-.402 2.107-.241 1.193.237 2.154 1.332 2.567 2.929.09.342.157.69.224 1.04.134.7.262 1.363.572 1.908.592 1.036 1.799 1.596 3.076 2.188l.657.31c2.281 1.098 3.52 2.637 3.491 4.332-.015.907-.405 1.704-.75 2.41-.307.63-.597 1.227-.592 1.802.012.573.342 1.212.908 1.751 1.442 1.357 3.933 1.667 6.055.755.453-.195 1.133-.487 1.808-.487zm38.811-6.8l.298.19-.237-.217-.061.027zM50.96 89.327a10.1 10.1 0 01-.994-.05c-2.543-.263-4.783-1.495-6.152-3.383-1.74-2.398-2.1-5.474-2.298-8.167-.054-.708-.126-1.679.248-2.568.167-.39.402-.725.606-1.019.178-.256.348-.499.45-.74.342-.816.02-1.808-.318-2.864-.097-.305-.195-.606-.277-.906-.94-3.412.19-7.303 2.807-9.683.18-.162.38-.344.401-.434.014-.067-.044-.227-.172-.478-1.76-3.494-4.607-6.41-8.226-8.436-1.293-.721-2.17-1.897-2.54-3.401-.561-2.28.072-5.283 1.614-7.648.845-1.292 1.925-2.357 2.971-3.387 2.463-2.428 5.149-4.802 8.523-4.833 3.059 0 5.391 1.797 7.691 3.56 1.159.887 2.36 1.808 3.604 2.45.353.182.716.347 1.078.511.5.226 1.002.455 1.48.723 3.53 1.99 5.284 5.853 6.132 8.742.524 1.788.86 3.63 1.186 5.416.287 1.564.583 3.181 1.002 4.724.655 2.428 1.56 3.904 2.84 4.651.402.234.859.415 1.312.599 1.214.491 2.59 1.051 3.066 2.489.522 1.575-.344 3.208-2.58 4.85l-9.106 6.687c-.807.593-1.446 1.103-1.706 1.778-.166.432-.19.972-.217 1.54-.046.982-.098 2.099-.958 2.905-.493.465-1.098.658-1.631.828-.191.061-.386.122-.57.199-.898.373-1.592 1.147-2.328 1.969-.394.438-.79.876-1.22 1.27-1.499 1.36-3.54 2.106-5.718 2.106zM37.39 40.386c-1.082 1.661-1.938 4.3-1.41 6.446.269 1.098.875 1.918 1.8 2.434 3.887 2.174 6.948 5.315 8.848 9.081.153.3.436.86.296 1.493-.122.566-.526.933-.82 1.199-2.246 2.043-3.194 5.314-2.405 8.184.077.281.168.562.26.847.39 1.212.832 2.585.27 3.923-.165.392-.398.726-.606 1.023-.178.256-.346.497-.448.738-.216.508-.189 1.143-.133 1.858.183 2.485.506 5.31 2.01 7.381 1.113 1.54 2.962 2.543 5.07 2.763 2.111.212 4.124-.388 5.528-1.667.392-.358.75-.761 1.108-1.16.819-.913 1.664-1.855 2.881-2.36a8.86 8.86 0 01.692-.243c.434-.137.807-.258 1.048-.483.407-.385.44-1.071.478-1.866.03-.664.063-1.352.317-2.013.442-1.147 1.434-1.878 2.228-2.463l9.107-6.687c1.64-1.206 2.325-2.262 2.034-3.137-.256-.769-1.15-1.134-2.189-1.553a11.838 11.838 0 01-1.506-.695c-2.172-1.262-3.065-3.786-3.55-5.573-.434-1.606-.736-3.254-1.027-4.85-.32-1.746-.65-3.549-1.15-5.258-.77-2.619-2.333-6.104-5.417-7.84-.438-.248-.898-.455-1.357-.663a26.368 26.368 0 01-1.153-.545c-1.363-.708-2.619-1.667-3.831-2.598-2.176-1.667-4.233-3.243-6.691-3.243l-.056.002c-2.802.025-5.223 2.184-7.463 4.392-.987.973-2.008 1.976-2.763 3.133z" fill="#212D40"/><path d="M97.802 83.319c.1-.985.379-2.07 1.222-2.59 1.191-.737 2.757.06 4.129-.225 1.581-.327 2.967-2.074 4.464-1.466 1.071.434 1.342 1.94.818 2.969-.523 1.029-1.581 1.663-2.619 2.168-1.038.505-2.147.952-2.944 1.788-.931.975-1.319 2.357-2.183 3.39a4.728 4.728 0 01-4.292 1.61c-1.79-.286-2.403-1.957-1.46-3.328.378-.55 1.51-.612 1.988-1.185.743-.893.764-2.03.877-3.132z" fill="url(#paint6_linear_1_253)"/><path d="M76.295 107.625c-27.922 0-50.637-22.714-50.637-50.635 0-27.922 22.715-50.637 50.637-50.637 27.921 0 50.637 22.717 50.637 50.637s-22.716 50.635-50.637 50.635zm0-99.74c-27.077 0-49.108 22.026-49.108 49.105 0 27.076 22.031 49.105 49.108 49.105 27.076 0 49.107-22.029 49.107-49.105 0-27.079-22.029-49.106-49.107-49.106z" fill="#212D40"/><path d="M74.358 83.666c2.02-.082 3.634-1.613 5.206-2.886 1.571-1.272 3.68-2.41 5.53-1.597 1.802.79 2.364 3.499 1.027 4.94-.37.378-.804.688-1.283.914-1.951.99-4.389 1.252-5.8 2.925-.822.977-1.183 2.332-2.189 3.116-4.697 3.665-11.67-7.04-2.49-7.412z" fill="url(#paint7_linear_1_253)"/><defs><linearGradient id="paint0_linear_1_253" x1="17.445" y1="51.756" x2="48.825" y2="53.707" gradientUnits="userSpaceOnUse"><stop stop-color="#634ECA"/><stop offset=".568" stop-color="#A42FB7"/><stop offset="1" stop-color="#CA4E5D"/></linearGradient><linearGradient id="paint1_linear_1_253" x1="34.226" y1="88.947" x2="121.391" y2="100.731" gradientUnits="userSpaceOnUse"><stop stop-color="#634ECA"/><stop offset=".568" stop-color="#A42FB7"/><stop offset="1" stop-color="#CA4E5D"/></linearGradient><linearGradient id="paint2_linear_1_253" x1="55.342" y1="16.73" x2="125.898" y2="21.488" gradientUnits="userSpaceOnUse"><stop stop-color="#634ECA"/><stop offset=".568" stop-color="#A42FB7"/><stop offset="1" stop-color="#CA4E5D"/></linearGradient><linearGradient id="paint3_linear_1_253" x1="55.341" y1="16.9" x2="125.335" y2="21.597" gradientUnits="userSpaceOnUse"><stop stop-color="#634ECA"/><stop offset=".568" stop-color="#A42FB7"/><stop offset="1" stop-color="#CA4E5D"/></linearGradient><linearGradient id="paint4_linear_1_253" x1="35.056" y1="32.094" x2="78.56" y2="33.831" gradientUnits="userSpaceOnUse"><stop stop-color="#634ECA"/><stop offset=".568" stop-color="#A42FB7"/><stop offset="1" stop-color="#CA4E5D"/></linearGradient><linearGradient id="paint5_linear_1_253" x1="35.056" y1="32.089" x2="60.688" y2="32.691" gradientUnits="userSpaceOnUse"><stop stop-color="#634ECA"/><stop offset=".568" stop-color="#A42FB7"/><stop offset="1" stop-color="#CA4E5D"/></linearGradient><linearGradient id="paint6_linear_1_253" x1="94.497" y1="78.911" x2="109.407" y2="79.865" gradientUnits="userSpaceOnUse"><stop stop-color="#634ECA"/><stop offset=".568" stop-color="#A42FB7"/><stop offset="1" stop-color="#CA4E5D"/></linearGradient><linearGradient id="paint7_linear_1_253" x1="69.865" y1="78.91" x2="87.694" y2="80.188" gradientUnits="userSpaceOnUse"><stop stop-color="#634ECA"/><stop offset=".568" stop-color="#A42FB7"/><stop offset="1" stop-color="#CA4E5D"/></linearGradient></defs></svg>