<svg width="131" height="130" fill="none" xmlns="http://www.w3.org/2000/svg"><path d="M45.715 125.412l-24.71-14.396-.028-9.549 24.712 14.392.026 9.553z" fill="#fff"/><path d="M45.715 126.176a.764.764 0 01-.384-.105L20.62 111.679a.762.762 0 01-.383-.659l-.026-9.551a.767.767 0 011.15-.662l24.712 14.392a.764.764 0 01.382.66l.025 9.551a.77.77 0 01-.764.766zm-23.948-15.6l23.178 13.501-.019-7.777-23.18-13.501.02 7.777z" fill="#000"/><path d="M100.249 42.781l.099 35.38c.025 8.604-6.032 19.13-13.505 23.453l-41.128 23.798-.026-9.552 41.128-23.795c2.9-1.679 5.257-5.76 5.25-9.112l-.102-35.379 8.284-4.793z" fill="url(#paint0_linear_37_1043)"/><path d="M45.715 126.176a.772.772 0 01-.764-.764l-.027-9.55a.77.77 0 01.382-.665l41.126-23.796c2.646-1.53 4.875-5.398 4.868-8.446l-.102-35.379a.77.77 0 01.383-.665l8.283-4.793a.767.767 0 011.147.661l.1 35.38c.025 8.851-6.206 19.671-13.887 24.118l-41.126 23.796a.767.767 0 01-.383.103zm.74-9.876l.021 7.787 39.983-23.135c7.261-4.2 13.147-14.424 13.124-22.79l-.095-34.058-6.756 3.91.099 34.937c.01 3.589-2.516 7.972-5.632 9.775L46.455 116.3z" fill="#000"/><path d="M92.015 62.559l.038 20.398c.019 1.759-.65 3.728-1.683 5.43-.936 1.548-2.179 2.886-3.555 3.67l-41.122 23.801-24.72-14.395 41.142-23.802c1.357-.783 2.6-2.122 3.536-3.651h.02c1.032-1.72 1.7-3.69 1.682-5.449l-.058-20.283L53.015 40 78.116 8.398l24.872 60.527-10.973-6.366z" fill="#fff"/><path d="M92.015 62.559l.038 20.398c.019 1.759-.65 3.728-1.683 5.43-.936 1.548-2.179 2.886-3.555 3.67l-41.122 23.801-10.592-6.175c29.48-2.427 52.612-27.108 52.612-57.219A57.162 57.162 0 0073.318 14.44l4.798-6.04 24.872 60.526-10.973-6.366z" fill="#E9EDF4"/><path d="M45.693 116.623a.764.764 0 01-.385-.105L20.59 102.124a.77.77 0 01-.38-.663.769.769 0 01.382-.659L61.732 77c1.19-.688 2.352-1.89 3.27-3.39a.753.753 0 01.087-.114c.968-1.662 1.516-3.45 1.5-4.929l-.058-19.85-13.899-8.056a.76.76 0 01-.367-.52.758.758 0 01.151-.617L77.518 7.922a.797.797 0 01.705-.283.768.768 0 01.6.467l24.873 60.526a.765.765 0 01-1.09.952l-9.823-5.697.035 19.068c.019 1.816-.618 3.89-1.794 5.827-1.047 1.732-2.409 3.13-3.833 3.939l-41.116 23.797a.746.746 0 01-.382.105zm-23.196-15.158l23.197 13.508 40.738-23.58c1.205-.684 2.37-1.892 3.285-3.402 1.013-1.675 1.586-3.506 1.571-5.028L91.25 62.56a.77.77 0 011.15-.664l9.026 5.238L77.906 9.89l-23.74 29.89 13.512 7.835a.765.765 0 01.382.66l.058 20.284c.019 1.808-.618 3.886-1.792 5.844a.708.708 0 01-.101.134c-1.038 1.653-2.357 2.993-3.728 3.785l-40 23.142z" fill="#000"/><path d="M78.124 8.398l6.544-3.81 24.858 60.513-6.544 3.81L78.124 8.398z" fill="url(#paint1_linear_37_1043)"/><path d="M102.982 69.676a.763.763 0 01-.707-.474L77.416 8.69a.765.765 0 01.323-.952l6.546-3.812a.765.765 0 011.092.369l24.857 60.513a.764.764 0 01-.325.952l-6.542 3.812a.762.762 0 01-.385.103zM79.083 8.726l24.272 59.082 5.212-3.032L84.295 5.691l-5.212 3.034z" fill="#000"/><path d="M68.6 87.352l-.02 6.793c-.007 2.833-1.873 5.662-5.594 7.827-7.488 4.353-19.656 4.358-27.202 0-3.793-2.191-5.688-5.067-5.678-7.936l.02-6.793c-.009 2.87 1.884 5.745 5.677 7.934 7.546 4.359 19.714 4.355 27.205 0 3.72-2.16 5.582-4.99 5.591-7.825z" fill="url(#paint2_linear_37_1043)"/><path d="M49.403 105.984c-5.064 0-10.132-1.116-14.001-3.349-3.918-2.264-6.07-5.319-6.06-8.603l.018-6.79a.765.765 0 111.53.003c-.008 2.711 1.873 5.296 5.295 7.27 7.313 4.225 19.172 4.225 26.438.002 3.352-1.95 5.204-4.494 5.21-7.169a.765.765 0 111.531.004l-.019 6.795c-.01 3.236-2.13 6.251-5.974 8.486-3.845 2.235-8.903 3.351-13.968 3.351zm-18.525-14.12l-.007 2.174c-.008 2.714 1.873 5.295 5.295 7.27 7.313 4.225 19.173 4.225 26.436.002 3.355-1.95 5.206-4.495 5.212-7.167l.007-2.18c-1.011 1.442-2.504 2.757-4.43 3.877-7.69 4.47-20.235 4.468-27.97 0-1.985-1.147-3.516-2.496-4.543-3.976z" fill="#000"/><path d="M62.918 79.416c7.543 4.36 7.576 11.41.087 15.763-7.488 4.353-19.656 4.359-27.202 0-7.536-4.353-7.576-11.41-.088-15.763 7.488-4.353 19.666-4.353 27.203 0z" fill="#fff"/><path d="M49.422 99.192c-5.066 0-10.132-1.117-14.001-3.35-3.904-2.256-6.057-5.3-6.06-8.57-.006-3.25 2.116-6.276 5.97-8.517 7.685-4.47 20.232-4.472 27.969 0 3.906 2.256 6.058 5.296 6.064 8.569.004 3.25-2.118 6.274-5.972 8.516-3.843 2.235-8.905 3.352-13.97 3.352zm-.124-22.282c-4.787 0-9.566 1.055-13.199 3.168-3.364 1.956-5.213 4.512-5.21 7.19.005 2.705 1.886 5.278 5.296 7.248 7.313 4.225 19.171 4.225 26.438.001 3.365-1.955 5.215-4.51 5.212-7.192-.006-2.7-1.887-5.274-5.3-7.245-3.655-2.115-8.45-3.17-13.237-3.17z" fill="#000"/><path d="M56.301 88.763c.224-.405.292-.79.203-1.149v-.023c0-.044 0-.067-.023-.113a1.258 1.258 0 00-.203-.382 2.492 2.492 0 00-.765-.652 4.602 4.602 0 00-1.215-.497 4.419 4.419 0 00-.79-.134 6.745 6.745 0 00-2.027.18 20.79 20.79 0 00-2.273.698h-.023l-3.15-1.845-.316-.182c.652-.336 1.327-.63 2.048-.831.159-.07.338-.115.497-.159.134-.044.224-.067.29-.113.136-.09.226-.203.226-.315v-.044c-.02-.134-.113-.249-.267-.339a1.302 1.302 0 00-.99-.09 12.58 12.58 0 00-3.021 1.194l-1.014-.585c-.11-.09-.267-.113-.449-.113a.95.95 0 00-.45.114c-.135.065-.18.157-.18.247 0 .113.068.18.18.268l1.035.587c-.652.428-1.057.879-1.28 1.328a1.52 1.52 0 00-.16.585 1.2 1.2 0 00.09.631c0 .023.021.023.021.044.07.159.182.293.295.451l.023.023c.18.203.426.406.698.562a4.622 4.622 0 001.89.564 8.642 8.642 0 002.004-.159c.68-.153 1.348-.349 2.003-.584.067-.023.159-.046.226-.07l3.355 1.96a12.3 12.3 0 01-3.063 1.103 1.18 1.18 0 00-.338.113.416.416 0 00-.18.157c-.066.069-.09.136-.066.203 0 .068.02.135.066.181.046.067.09.134.18.18.15.071.31.116.474.134.203.023.383 0 .54-.021a15.98 15.98 0 003.647-1.329l1.036.608a.746.746 0 00.45.113.928.928 0 00.428-.115c.133-.088.202-.157.202-.268 0-.091-.067-.181-.202-.248l-1.037-.608c.654-.405 1.103-.832 1.375-1.26zm-10.266-1.195c-.564.046-1.036-.044-1.465-.292h-.066c-.406-.314-.585-.585-.519-.945.03-.15.1-.29.203-.405a2.79 2.79 0 01.675-.72l.271.156 2.904 1.667.044.044c-.664.234-1.35.398-2.047.495zm7.655 1.734l-3.13-1.824a15.27 15.27 0 011.283-.382c.023 0 .023 0 .046-.023h.02c.293-.044.565-.11.788-.134.541-.09 1.014-.023 1.396.203.069.044.159.09.204.157.022 0 .022 0 .045.023.72.539.517 1.215-.652 1.98z" fill="#000"/><path d="M68.6 75.96l-.02 6.793c-.007 2.835-1.873 5.664-5.594 7.826-7.488 4.353-19.656 4.36-27.202 0-3.793-2.189-5.688-5.066-5.678-7.933l.02-6.795c-.009 2.871 1.884 5.747 5.677 7.936 7.546 4.359 19.714 4.353 27.205 0 3.72-2.162 5.582-4.992 5.591-7.827z" fill="url(#paint3_linear_37_1043)"/><path d="M49.403 94.592c-5.064 0-10.132-1.116-14.001-3.35-3.918-2.263-6.07-5.314-6.06-8.598l.018-6.795a.765.765 0 111.53.004c-.008 2.713 1.873 5.296 5.295 7.27 7.313 4.227 19.175 4.225 26.438.002 3.352-1.95 5.204-4.494 5.21-7.167a.764.764 0 01.764-.763.769.769 0 01.767.767l-.019 6.792c-.01 3.239-2.13 6.252-5.974 8.487-3.843 2.235-8.903 3.351-13.968 3.351zm-18.525-14.12l-.007 2.174c-.008 2.714 1.873 5.295 5.295 7.27 7.313 4.225 19.173 4.225 26.436.002 3.355-1.95 5.206-4.495 5.212-7.167l.007-2.18c-1.011 1.442-2.504 2.757-4.43 3.877-7.688 4.47-20.233 4.468-27.97 0-1.985-1.147-3.516-2.496-4.543-3.976z" fill="#000"/><path d="M62.918 68.024c7.543 4.36 7.576 11.41.087 15.763-7.488 4.353-19.656 4.359-27.202 0-7.536-4.353-7.576-11.41-.088-15.76 7.488-4.354 19.666-4.356 27.203-.003z" fill="#fff"/><path d="M49.422 87.802c-5.066 0-10.132-1.119-14.001-3.352-3.904-2.256-6.057-5.295-6.06-8.57-.006-3.25 2.116-6.275 5.97-8.517 7.685-4.47 20.232-4.468 27.969 0 3.906 2.256 6.058 5.295 6.064 8.568.004 3.25-2.118 6.275-5.972 8.517-3.843 2.235-8.903 3.354-13.97 3.354zm-.124-22.282c-4.787 0-9.566 1.053-13.199 3.166-3.364 1.955-5.213 4.511-5.21 7.192.005 2.705 1.886 5.276 5.296 7.245 7.313 4.227 19.175 4.225 26.438.002 3.365-1.955 5.215-4.51 5.212-7.192-.006-2.701-1.887-5.274-5.3-7.245-3.655-2.113-8.45-3.168-13.237-3.168z" fill="#000"/><path d="M56.301 77.37c.224-.404.292-.787.203-1.146V76.2c0-.046 0-.069-.023-.115a1.258 1.258 0 00-.203-.382 2.492 2.492 0 00-.765-.652 4.6 4.6 0 00-1.215-.495 4.419 4.419 0 00-.79-.134 6.738 6.738 0 00-2.027.18c-.674.156-1.395.382-2.273.698h-.023l-3.15-1.847-.316-.18c.652-.338 1.327-.63 2.048-.834.159-.066.338-.112.497-.156.134-.046.224-.07.29-.115.136-.088.226-.2.226-.313v-.046c-.02-.134-.113-.249-.267-.337a1.302 1.302 0 00-.99-.09 12.61 12.61 0 00-3.021 1.193l-1.014-.587c-.11-.09-.267-.11-.449-.11a.951.951 0 00-.45.11c-.135.07-.18.159-.18.249 0 .113.068.18.18.27l1.035.586c-.652.427-1.057.878-1.28 1.327a1.52 1.52 0 00-.16.587c-.027.215.004.433.09.63 0 .022.021.022.021.045.07.157.182.292.295.45l.023.022c.18.203.426.405.698.564a4.649 4.649 0 001.89.562 8.54 8.54 0 002.004-.159 16.435 16.435 0 002.003-.585c.067-.023.159-.044.226-.067l3.355 1.958c-.967.502-1.997.874-3.063 1.105a1.18 1.18 0 00-.338.111.416.416 0 00-.18.159c-.066.067-.09.133-.066.202 0 .067.02.134.066.18.046.067.09.134.18.18.15.071.31.116.474.134.203.024.383 0 .54-.02 1.265-.293 2.49-.74 3.647-1.33l1.036.608a.746.746 0 00.45.114.93.93 0 00.428-.114c.133-.09.202-.157.202-.27 0-.09-.067-.18-.202-.248l-1.037-.608c.654-.406 1.103-.832 1.375-1.26zm-10.266-1.192c-.564.044-1.036-.046-1.465-.293h-.066c-.406-.315-.585-.585-.519-.946.03-.15.1-.29.203-.405a2.79 2.79 0 01.675-.72l.271.158 2.904 1.665.044.046a10.59 10.59 0 01-2.047.495zm7.655 1.734l-3.13-1.824a14.59 14.59 0 011.283-.382c.023 0 .023 0 .046-.023h.02c.293-.046.565-.113.788-.134.541-.092 1.014-.025 1.396.2.069.047.159.09.204.16.022 0 .022 0 .045.02.72.541.517 1.216-.652 1.983z" fill="#000"/><path d="M68.6 64.57l-.02 6.792c-.007 2.833-1.873 5.663-5.594 7.827-7.488 4.353-19.656 4.357-27.202 0-3.793-2.19-5.688-5.066-5.678-7.936l.02-6.792c-.009 2.87 1.884 5.745 5.677 7.933 7.546 4.36 19.714 4.355 27.205 0 3.72-2.16 5.582-4.99 5.591-7.824z" fill="url(#paint4_linear_37_1043)"/><path d="M49.401 83.2c-5.064 0-10.132-1.115-14-3.348-3.917-2.263-6.07-5.318-6.06-8.603l.02-6.79a.765.765 0 111.529.004c-.008 2.71 1.873 5.295 5.295 7.27 7.313 4.225 19.175 4.225 26.438 0 3.352-1.948 5.204-4.493 5.21-7.167a.765.765 0 111.531.004l-.019 6.794c-.01 3.237-2.13 6.252-5.974 8.486-3.845 2.235-8.903 3.35-13.97 3.35zM30.877 69.08l-.005 2.174c-.008 2.715 1.873 5.296 5.295 7.27 7.315 4.226 19.172 4.226 26.436.002 3.355-1.95 5.206-4.494 5.212-7.167l.007-2.18c-1.011 1.442-2.504 2.758-4.43 3.876-7.684 4.47-20.231 4.472-27.97.004-1.985-1.147-3.518-2.499-4.544-3.979z" fill="#000"/><path d="M62.918 56.634c7.543 4.359 7.576 11.41.087 15.763-7.488 4.352-19.656 4.356-27.202 0-7.536-4.354-7.576-11.41-.088-15.763 7.488-4.353 19.666-4.353 27.203 0z" fill="#fff"/><path d="M49.42 76.41c-5.062 0-10.132-1.117-14-3.35-3.903-2.256-6.056-5.302-6.06-8.573-.003-3.25 2.117-6.274 5.97-8.514 7.686-4.47 20.233-4.472 27.97 0 3.906 2.255 6.058 5.299 6.064 8.568.004 3.25-2.118 6.274-5.972 8.515-3.843 2.235-8.905 3.353-13.972 3.353zm-.122-22.282c-4.787 0-9.566 1.055-13.199 3.167-3.364 1.954-5.213 4.508-5.21 7.19.005 2.706 1.884 5.279 5.296 7.248 7.313 4.225 19.175 4.225 26.438 0 3.365-1.956 5.215-4.508 5.212-7.19-.004-2.701-1.885-5.275-5.3-7.246-3.655-2.114-8.45-3.17-13.237-3.17z" fill="#000"/><path d="M56.301 65.979c.224-.406.292-.788.203-1.147v-.023c0-.044 0-.067-.023-.113a1.258 1.258 0 00-.203-.382 2.493 2.493 0 00-.765-.654 4.6 4.6 0 00-1.215-.495 4.419 4.419 0 00-.79-.134 6.738 6.738 0 00-2.027.18c-.674.156-1.395.382-2.273.697h-.023l-3.15-1.846-.316-.18a10.89 10.89 0 012.048-.834c.159-.067.338-.11.497-.157.134-.045.224-.066.29-.112.136-.09.226-.203.226-.316v-.044c-.02-.136-.113-.248-.267-.338a1.302 1.302 0 00-.99-.09 12.58 12.58 0 00-3.021 1.193l-1.014-.585c-.11-.09-.267-.113-.449-.113a.95.95 0 00-.45.113c-.135.067-.18.157-.18.248 0 .111.068.18.18.268l1.035.587c-.652.428-1.057.88-1.28 1.329a1.519 1.519 0 00-.16.585c-.027.214.004.432.09.63 0 .022.021.022.021.045.07.158.182.292.295.45l.023.024c.18.2.426.403.698.562a4.62 4.62 0 001.89.562 8.538 8.538 0 002.004-.157 16.95 16.95 0 002.003-.585c.067-.023.159-.046.226-.069l3.355 1.96a12.3 12.3 0 01-3.063 1.103c-.117.02-.231.058-.338.113a.416.416 0 00-.18.156c-.066.07-.09.134-.066.203a.25.25 0 00.066.18c.046.069.09.135.18.181.15.072.31.117.474.134.203.023.383 0 .54-.02a15.97 15.97 0 003.647-1.33l1.036.609a.746.746 0 00.45.112.93.93 0 00.428-.114c.133-.088.202-.157.202-.268 0-.092-.067-.182-.202-.249l-1.037-.608c.654-.405 1.103-.833 1.375-1.261zm-10.266-1.193c-.564.046-1.036-.044-1.465-.293h-.066c-.406-.315-.585-.585-.519-.944.03-.15.1-.29.203-.405a2.79 2.79 0 01.675-.721l.271.157 2.904 1.667.044.044a10.59 10.59 0 01-2.047.495zm7.655 1.734l-3.13-1.824a15.27 15.27 0 011.283-.382c.023 0 .023 0 .046-.023h.02c.293-.044.565-.113.788-.134.541-.092 1.014-.023 1.396.202.069.044.159.09.204.157.022 0 .022 0 .045.023.72.54.517 1.216-.652 1.98z" fill="#000"/><defs><linearGradient id="paint0_linear_37_1043" x1="45.689" y1="42.781" x2="103.255" y2="44.859" gradientUnits="userSpaceOnUse"><stop stop-color="#634ECA"/><stop offset=".568" stop-color="#A42FB7"/><stop offset="1" stop-color="#CA4E5D"/></linearGradient><linearGradient id="paint1_linear_37_1043" x1="78.124" y1="4.588" x2="111.216" y2="5.47" gradientUnits="userSpaceOnUse"><stop stop-color="#634ECA"/><stop offset=".568" stop-color="#A42FB7"/><stop offset="1" stop-color="#CA4E5D"/></linearGradient><linearGradient id="paint2_linear_37_1043" x1="30.106" y1="87.243" x2="70.154" y2="91.917" gradientUnits="userSpaceOnUse"><stop stop-color="#634ECA"/><stop offset=".568" stop-color="#A42FB7"/><stop offset="1" stop-color="#CA4E5D"/></linearGradient><linearGradient id="paint3_linear_37_1043" x1="30.106" y1="75.851" x2="70.154" y2="80.525" gradientUnits="userSpaceOnUse"><stop stop-color="#634ECA"/><stop offset=".568" stop-color="#A42FB7"/><stop offset="1" stop-color="#CA4E5D"/></linearGradient><linearGradient id="paint4_linear_37_1043" x1="30.106" y1="64.461" x2="70.154" y2="69.135" gradientUnits="userSpaceOnUse"><stop stop-color="#634ECA"/><stop offset=".568" stop-color="#A42FB7"/><stop offset="1" stop-color="#CA4E5D"/></linearGradient></defs></svg>